STARTFONT 2.1
FONT -Baekmuk-Gulim-Medium-R-Normal--24-240-75-75-M-240-ksx1001.1997-0
SIZE 24 75 75
FONTBOUNDINGBOX 24 24 0 -5
STARTPROPERTIES 18
FOUNDRY "Baekmuk"
FAMILY_NAME "Gulim"
WEIGHT_NAME "Medium"
SLANT "R"
SETWIDTH_NAME "Normal"
ADD_STYLE_NAME ""
PIXEL_SIZE 24
POINT_SIZE 240
RESOLUTION_X 75
RESOLUTION_Y 75
SPACING "M"
AVERAGE_WIDTH 240
CHARSET_REGISTRY "ksx1001.1997"
CHARSET_ENCODING "0"
DEFAULT_CHAR 8481
FONT_ASCENT 19
FONT_DESCENT 4
COPYRIGHT "(c)Hwan Design Inc. and Mizi Research Inc."
ENDPROPERTIES
CHARS 8224
STARTCHAR 3000
ENCODING 8481
SWIDTH 2400 0
DWIDTH 24 0
BBX 0 0 0 0
BITMAP
ENDCHAR
STARTCHAR 3001
ENCODING 8482
SWIDTH 2400 0
DWIDTH 24 0
BBX 4 4 16 14
BITMAP
80
60
70
30
ENDCHAR
STARTCHAR 3002
ENCODING 8483
SWIDTH 2400 0
DWIDTH 24 0
BBX 5 5 15 14
BITMAP
70
88
88
88
70
ENDCHAR
STARTCHAR 00B7
ENCODING 8484
SWIDTH 2400 0
DWIDTH 24 0
BBX 3 4 10 5
BITMAP
E0
E0
E0
60
ENDCHAR
STARTCHAR 2025
ENCODING 8485
SWIDTH 2400 0
DWIDTH 24 0
BBX 13 3 5 6
BITMAP
4010
E038
6038
ENDCHAR
STARTCHAR 2026
ENCODING 8486
SWIDTH 2400 0
DWIDTH 24 0
BBX 15 2 4 6
BITMAP
C186
C186
ENDCHAR
STARTCHAR 00A8
ENCODING 8487
SWIDTH 2400 0
DWIDTH 24 0
BBX 8 1 8 13
BITMAP
C3
ENDCHAR
STARTCHAR 3003
ENCODING 8488
SWIDTH 2400 0
DWIDTH 24 0
BBX 6 9 9 3
BITMAP
6C
6C
6C
48
48
48
90
90
20
ENDCHAR
STARTCHAR 00AD
ENCODING 8489
SWIDTH 2400 0
DWIDTH 24 0
BBX 11 1 6 7
BITMAP
FFE0
ENDCHAR
STARTCHAR 2015
ENCODING 8490
SWIDTH 2400 0
DWIDTH 24 0
BBX 20 1 2 7
BITMAP
FFFFF0
ENDCHAR
STARTCHAR 2225
ENCODING 8491
SWIDTH 2400 0
DWIDTH 24 0
BBX 6 17 9 0
BITMAP
CC
CC
CC
CC
CC
CC
CC
CC
CC
CC
CC
CC
CC
CC
CC
CC
CC
ENDCHAR
STARTCHAR FF3C
ENCODING 8492
SWIDTH 2400 0
DWIDTH 24 0
BBX 18 19 2 -2
BITMAP
C00000
600000
300000
180000
0C0000
060000
020000
010000
008000
00C000
006000
003000
001800
000C00
000600
000300
000180
000080
000040
ENDCHAR
STARTCHAR 223C
ENCODING 8493
SWIDTH 2400 0
DWIDTH 24 0
BBX 13 4 5 5
BITMAP
3C00
6E08
83B0
01E0
ENDCHAR
STARTCHAR 2018
ENCODING 8494
SWIDTH 2400 0
DWIDTH 24 0
BBX 3 6 15 13
BITMAP
20
40
40
C0
E0
60
ENDCHAR
STARTCHAR 2019
ENCODING 8495
SWIDTH 2400 0
DWIDTH 24 0
BBX 3 5 5 14
BITMAP
60
E0
60
20
40
ENDCHAR
STARTCHAR 201C
ENCODING 8496
SWIDTH 2400 0
DWIDTH 24 0
BBX 7 6 13 13
BITMAP
20
46
44
C4
E6
46
ENDCHAR
STARTCHAR 201D
ENCODING 8497
SWIDTH 2400 0
DWIDTH 24 0
BBX 7 4 3 13
BITMAP
E6
22
44
84
ENDCHAR
STARTCHAR 3014
ENCODING 8498
SWIDTH 2400 0
DWIDTH 24 0
BBX 5 23 16 -4
BITMAP
08
78
E0
C0
C0
C0
C0
C0
C0
C0
C0
C0
C0
C0
C0
C0
C0
C0
C0
C0
C0
F0
18
ENDCHAR
STARTCHAR 3015
ENCODING 8499
SWIDTH 2400 0
DWIDTH 24 0
BBX 5 23 2 -4
BITMAP
80
F0
38
18
18
18
18
18
18
18
18
18
18
18
18
18
18
18
18
18
18
78
E0
ENDCHAR
STARTCHAR 3008
ENCODING 8500
SWIDTH 2400 0
DWIDTH 24 0
BBX 8 20 13 -3
BITMAP
01
02
04
0C
08
10
30
20
40
C0
40
60
20
10
18
08
04
06
02
01
ENDCHAR
STARTCHAR 3009
ENCODING 8501
SWIDTH 2400 0
DWIDTH 24 0
BBX 8 20 2 -3
BITMAP
40
60
20
10
18
08
04
06
02
01
01
02
04
04
08
10
30
20
40
C0
ENDCHAR
STARTCHAR 300A
ENCODING 8502
SWIDTH 2400 0
DWIDTH 24 0
BBX 9 21 12 -3
BITMAP
0480
0480
0D00
0900
1A00
1200
3400
2400
6800
4800
D000
D800
4800
6C00
2400
3600
1200
0B00
0900
0580
0480
ENDCHAR
STARTCHAR 300B
ENCODING 8503
SWIDTH 2400 0
DWIDTH 24 0
BBX 9 21 2 -3
BITMAP
1000
D800
4800
6C00
2400
3600
1200
1B00
0900
0D80
0480
0480
0D00
0900
1A00
1200
3400
2C00
6800
5800
9000
ENDCHAR
STARTCHAR 300C
ENCODING 8504
SWIDTH 2400 0
DWIDTH 24 0
BBX 9 11 14 8
BITMAP
FF80
C000
C000
C000
C000
C000
C000
C000
C000
C000
C000
ENDCHAR
STARTCHAR 300D
ENCODING 8505
SWIDTH 2400 0
DWIDTH 24 0
BBX 9 11 0 -4
BITMAP
0180
0180
0180
0180
0180
0180
0180
0180
0180
0180
FF80
ENDCHAR
STARTCHAR 300E
ENCODING 8506
SWIDTH 2400 0
DWIDTH 24 0
BBX 8 11 15 8
BITMAP
FE
81
81
BE
A0
A0
A0
A0
A0
A0
E0
ENDCHAR
STARTCHAR 300F
ENCODING 8507
SWIDTH 2400 0
DWIDTH 24 0
BBX 7 12 1 -5
BITMAP
04
0E
0A
0A
0A
0A
0A
0A
FA
82
82
7C
ENDCHAR
STARTCHAR 3010
ENCODING 8508
SWIDTH 2400 0
DWIDTH 24 0
BBX 5 21 15 -3
BITMAP
F0
F0
E0
E0
E0
E0
C0
C0
C0
C0
C0
C0
C0
C0
C0
E0
E0
E0
F0
F0
F8
ENDCHAR
STARTCHAR 3011
ENCODING 8509
SWIDTH 2400 0
DWIDTH 24 0
BBX 5 21 3 -3
BITMAP
F8
78
38
38
38
18
18
18
18
18
18
18
18
18
18
38
38
38
78
78
F8
ENDCHAR
STARTCHAR 00B1
ENCODING 8510
SWIDTH 2400 0
DWIDTH 24 0
BBX 14 16 5 0
BITMAP
0300
0300
0300
0300
0300
0300
7F00
FFFC
0300
0300
0300
0300
0300
0300
0000
FFFC
ENDCHAR
STARTCHAR 00D7
ENCODING 8511
SWIDTH 2400 0
DWIDTH 24 0
BBX 13 14 5 0
BITMAP
C008
6010
3020
1060
08C0
0580
0700
0700
0D80
08C0
1060
2030
4010
C008
ENDCHAR
STARTCHAR 00F7
ENCODING 8512
SWIDTH 2400 0
DWIDTH 24 0
BBX 15 14 4 0
BITMAP
0180
0180
0180
0000
0000
0000
FFFE
0000
0000
0000
0000
0180
0180
0180
ENDCHAR
STARTCHAR 2260
ENCODING 8513
SWIDTH 2400 0
DWIDTH 24 0
BBX 16 15 4 0
BITMAP
0200
0600
0200
0200
0300
FFFF
0100
0100
0180
FFFF
0080
00C0
00C0
0040
0040
ENDCHAR
STARTCHAR 2264
ENCODING 8514
SWIDTH 2400 0
DWIDTH 24 0
BBX 14 14 5 0
BITMAP
001C
0078
01C0
0700
1C00
E000
E000
3C00
0780
01E0
003C
000C
0000
FFFC
ENDCHAR
STARTCHAR 2265
ENCODING 8515
SWIDTH 2400 0
DWIDTH 24 0
BBX 14 14 5 0
BITMAP
C000
7000
1C00
0700
00E0
0038
0078
01C0
0700
3C00
F000
8000
0000
FFFC
ENDCHAR
STARTCHAR 221E
ENCODING 8516
SWIDTH 2400 0
DWIDTH 24 0
BBX 18 9 3 3
BITMAP
3E0F00
613180
C0A0C0
C0C0C0
C040C0
C0C0C0
C0A0C0
613180
3E0F00
ENDCHAR
STARTCHAR 2234
ENCODING 8517
SWIDTH 2400 0
DWIDTH 24 0
BBX 11 11 6 2
BITMAP
0600
0600
0600
0000
0000
0000
0000
0000
C060
C060
C060
ENDCHAR
STARTCHAR 00B0
ENCODING 8518
SWIDTH 2400 0
DWIDTH 24 0
BBX 4 5 3 14
BITMAP
60
90
90
90
F0
ENDCHAR
STARTCHAR 2032
ENCODING 8519
SWIDTH 2400 0
DWIDTH 24 0
BBX 3 6 3 13
BITMAP
20
60
60
40
80
80
ENDCHAR
STARTCHAR 2033
ENCODING 8520
SWIDTH 2400 0
DWIDTH 24 0
BBX 8 6 3 13
BITMAP
33
76
66
44
88
90
ENDCHAR
STARTCHAR 2103
ENCODING 8521
SWIDTH 2400 0
DWIDTH 24 0
BBX 15 17 4 0
BITMAP
6000
93F8
971C
DE0E
2C06
1C06
1806
1800
1800
1800
1800
1802
0C02
0C06
0606
039C
01F8
ENDCHAR
STARTCHAR 212B
ENCODING 8522
SWIDTH 2400 0
DWIDTH 24 0
BBX 12 18 5 0
BITMAP
0780
0480
0480
0300
0200
0300
0700
0580
0C80
08C0
18C0
1840
1060
3FE0
2020
6030
4010
C010
ENDCHAR
STARTCHAR FFE0
ENCODING 8523
SWIDTH 2400 0
DWIDTH 24 0
BBX 18 19 2 -2
BITMAP
03F040
070C80
0C0700
1C0200
180200
300F00
301000
303000
302000
304000
308000
310100
1A0300
1C0200
0C0600
160C00
23F000
400000
800000
ENDCHAR
STARTCHAR FFE1
ENCODING 8524
SWIDTH 2400 0
DWIDTH 24 0
BBX 14 17 5 0
BITMAP
00C0
07F0
0E18
0C18
0808
0808
0C00
0C00
FFF0
0600
0600
0600
2604
FC04
CE0C
CBF8
F0F0
ENDCHAR
STARTCHAR FFE5
ENCODING 8525
SWIDTH 2400 0
DWIDTH 24 0
BBX 16 18 4 0
BITMAP
1008
1008
1818
1818
0C30
FFFF
7FFE
0660
02C0
03C0
FFFF
0180
0180
0180
0180
0180
0180
0180
ENDCHAR
STARTCHAR 2642
ENCODING 8526
SWIDTH 2400 0
DWIDTH 24 0
BBX 12 21 6 -3
BITMAP
0400
0600
0F00
1F00
1680
26C0
6640
4620
8630
0600
0600
0600
0600
1F80
1F80
30C0
30C0
30C0
30C0
1980
0F00
ENDCHAR
STARTCHAR 2640
ENCODING 8527
SWIDTH 2400 0
DWIDTH 24 0
BBX 14 20 5 -3
BITMAP
0F80
18C0
3060
3060
3060
3060
18C0
0F80
0300
0300
0300
FFFC
0300
0300
0300
0300
0300
0300
0300
0300
ENDCHAR
STARTCHAR 2220
ENCODING 8528
SWIDTH 2400 0
DWIDTH 24 0
BBX 14 14 4 0
BITMAP
0008
0010
0020
0040
00C0
0180
0300
0600
0C00
1800
1000
2000
6000
FFFC
ENDCHAR
STARTCHAR 22A5
ENCODING 8529
SWIDTH 2400 0
DWIDTH 24 0
BBX 14 14 5 0
BITMAP
0300
0300
0300
0300
0300
0300
0300
0300
0300
0300
0300
0300
0300
FFFC
ENDCHAR
STARTCHAR 2312
ENCODING 8530
SWIDTH 2400 0
DWIDTH 24 0
BBX 13 4 5 13
BITMAP
1FE0
7030
C018
8008
ENDCHAR
STARTCHAR 2202
ENCODING 8531
SWIDTH 2400 0
DWIDTH 24 0
BBX 9 17 7 0
BITMAP
1C00
3F00
6100
4180
0180
0080
0080
1C80
3F80
6380
C100
8100
8100
8300
8600
EE00
7800
ENDCHAR
STARTCHAR 2207
ENCODING 8532
SWIDTH 2400 0
DWIDTH 24 0
BBX 16 14 4 0
BITMAP
FFFF
C006
6004
200C
3008
1018
1830
0830
0460
0640
02C0
0380
0180
0100
ENDCHAR
STARTCHAR 2261
ENCODING 8533
SWIDTH 2400 0
DWIDTH 24 0
BBX 15 8 4 3
BITMAP
FFFE
0000
0000
FFFE
0000
0000
0000
FFFE
ENDCHAR
STARTCHAR 2252
ENCODING 8534
SWIDTH 2400 0
DWIDTH 24 0
BBX 16 14 4 0
BITMAP
1800
1800
1800
0000
FFFF
0000
0000
0000
0000
FFFF
0000
0018
0018
0018
ENDCHAR
STARTCHAR 00A7
ENCODING 8535
SWIDTH 2400 0
DWIDTH 24 0
BBX 8 20 8 -3
BITMAP
3C
46
C6
C6
E0
70
3C
FE
87
83
83
43
3E
0C
02
01
61
61
3F
1C
ENDCHAR
STARTCHAR 203B
ENCODING 8536
SWIDTH 2400 0
DWIDTH 24 0
BBX 13 15 5 0
BITMAP
8008
C318
6310
3320
1840
0C80
6530
6330
6730
0C80
1840
1320
2330
4318
8008
ENDCHAR
STARTCHAR 2606
ENCODING 8537
SWIDTH 2400 0
DWIDTH 24 0
BBX 19 19 2 -3
BITMAP
004000
004000
006000
00A000
00A000
011000
FF1FE0
7000C0
180380
0C0700
060400
040400
040400
0CE600
09B200
0B1A00
1E0E00
180700
100100
ENDCHAR
STARTCHAR 2605
ENCODING 8538
SWIDTH 2400 0
DWIDTH 24 0
BBX 15 18 4 -2
BITMAP
0100
0100
0180
0380
0380
03C0
07C0
FFFE
7FFC
3FF8
0FF0
0FE0
1FF0
1FF0
1EF0
3830
3018
0008
ENDCHAR
STARTCHAR 25CB
ENCODING 8539
SWIDTH 2400 0
DWIDTH 24 0
BBX 17 18 3 -2
BITMAP
03E000
0C1800
300400
200200
600300
400300
C00180
C00180
C00180
C00180
C00180
C00180
400100
600300
200200
300600
1C1800
03E000
ENDCHAR
STARTCHAR 25CF
ENCODING 8540
SWIDTH 2400 0
DWIDTH 24 0
BBX 17 18 3 -2
BITMAP
03E000
0FF800
1FFC00
3FFE00
7FFF00
7FFF00
FFFF00
FFFF80
FFFF80
FFFF80
FFFF80
FFFF00
7FFF00
7FFF00
3FFE00
1FFC00
0FF800
03E000
ENDCHAR
STARTCHAR 25CE
ENCODING 8541
SWIDTH 2400 0
DWIDTH 24 0
BBX 17 18 3 -2
BITMAP
03E000
0C1800
300400
23E200
663300
4C1B00
D80D80
D80D80
D80D80
D80D80
D80D80
D80D80
4C1900
663300
23E200
300600
1C1800
03E000
ENDCHAR
STARTCHAR 25C7
ENCODING 8542
SWIDTH 2400 0
DWIDTH 24 0
BBX 18 20 3 -3
BITMAP
00C000
014000
022000
041000
0C0800
180400
300200
600100
400180
8000C0
8000C0
400180
200300
100600
180C00
0C1800
061000
032000
01C000
008000
ENDCHAR
STARTCHAR 25C6
ENCODING 8543
SWIDTH 2400 0
DWIDTH 24 0
BBX 18 20 3 -3
BITMAP
008000
01C000
03E000
07F000
07F800
0FFC00
1FFE00
3FFF00
7FFF80
FFFFC0
FFFFC0
7FFF80
3FFF00
1FFE00
1FFC00
0FF800
07F000
03E000
01C000
008000
ENDCHAR
STARTCHAR 25A1
ENCODING 8544
SWIDTH 2400 0
DWIDTH 24 0
BBX 17 17 3 -1
BITMAP
FFFF80
C00180
C00180
C00180
C00180
C00180
C00180
C00180
C00180
C00180
C00180
C00180
C00180
C00180
C00180
C00180
FFFF80
ENDCHAR
STARTCHAR 25A0
ENCODING 8545
SWIDTH 2400 0
DWIDTH 24 0
BBX 16 18 4 -2
BITMAP
FFFF
FFFF
FFFF
FFFF
FFFF
FFFF
FFFF
FFFF
FFFF
FFFF
FFFF
FFFF
FFFF
FFFF
FFFF
FFFF
FFFF
FFFF
ENDCHAR
STARTCHAR 25B3
ENCODING 8546
SWIDTH 2400 0
DWIDTH 24 0
BBX 17 15 3 0
BITMAP
008000
00C000
014000
012000
022000
061000
041800
0C0800
080C00
100400
100200
200200
600100
400180
FFFF80
ENDCHAR
STARTCHAR 25B2
ENCODING 8547
SWIDTH 2400 0
DWIDTH 24 0
BBX 17 15 3 0
BITMAP
008000
00C000
01C000
01E000
03E000
07F000
07F800
0FF800
0FFC00
1FFC00
1FFE00
3FFE00
7FFF00
7FFF80
FFFF80
ENDCHAR
STARTCHAR 25BD
ENCODING 8548
SWIDTH 2400 0
DWIDTH 24 0
BBX 17 15 3 0
BITMAP
FFFF80
400180
600300
300200
100600
180400
080C00
0C0800
041800
063000
032000
016000
01C000
00C000
008000
ENDCHAR
STARTCHAR 25BC
ENCODING 8549
SWIDTH 2400 0
DWIDTH 24 0
BBX 17 15 3 0
BITMAP
FFFF80
7FFF80
7FFF00
3FFE00
1FFE00
1FFC00
0FFC00
0FF800
07F000
03F000
03E000
01E000
01C000
008000
008000
ENDCHAR
STARTCHAR 2192
ENCODING 8550
SWIDTH 2400 0
DWIDTH 24 0
BBX 19 7 2 3
BITMAP
000300
000180
FFFFE0
0001C0
000180
000200
000400
ENDCHAR
STARTCHAR 2190
ENCODING 8551
SWIDTH 2400 0
DWIDTH 24 0
BBX 19 7 3 3
BITMAP
180000
300000
FFFFE0
700000
300000
080000
040000
ENDCHAR
STARTCHAR 2191
ENCODING 8552
SWIDTH 2400 0
DWIDTH 24 0
BBX 7 19 9 -3
BITMAP
10
38
38
7C
92
10
10
10
10
10
10
10
10
10
10
10
10
10
10
ENDCHAR
STARTCHAR 2193
ENCODING 8553
SWIDTH 2400 0
DWIDTH 24 0
BBX 7 18 9 -3
BITMAP
10
10
10
10
10
10
10
10
10
10
10
10
10
92
54
38
38
10
ENDCHAR
STARTCHAR 2194
ENCODING 8554
SWIDTH 2400 0
DWIDTH 24 0
BBX 17 7 3 4
BITMAP
000400
200200
600300
FFFF80
600300
200200
100000
ENDCHAR
STARTCHAR 3013
ENCODING 8555
SWIDTH 2400 0
DWIDTH 24 0
BBX 15 5 4 5
BITMAP
FFFE
0000
0000
0000
FFFE
ENDCHAR
STARTCHAR 226A
ENCODING 8556
SWIDTH 2400 0
DWIDTH 24 0
BBX 16 16 4 -1
BITMAP
0063
00C6
018C
0630
0C60
18C0
6300
C600
C600
3180
18C0
0E70
0318
018C
0067
0021
ENDCHAR
STARTCHAR 226B
ENCODING 8557
SWIDTH 2400 0
DWIDTH 24 0
BBX 16 16 3 -1
BITMAP
C600
7300
19C0
0C60
0730
018C
00C6
0073
0063
00C6
0318
0630
0C60
31C0
6300
C600
ENDCHAR
STARTCHAR 221A
ENCODING 8558
SWIDTH 2400 0
DWIDTH 24 0
BBX 19 20 3 -2
BITMAP
003FE0
004000
004000
004000
008000
008000
008000
010000
010000
010000
030000
020000
020000
660000
A40000
240000
3C0000
180000
180000
180000
ENDCHAR
STARTCHAR 223D
ENCODING 8559
SWIDTH 2400 0
DWIDTH 24 0
BBX 17 8 3 3
BITMAP
1E1E00
622300
C04180
C08180
C10180
C10180
626300
3C3E00
ENDCHAR
STARTCHAR 221D
ENCODING 8560
SWIDTH 2400 0
DWIDTH 24 0
BBX 15 8 4 3
BITMAP
3C1E
6222
C140
C080
C080
C140
6262
3C1E
ENDCHAR
STARTCHAR 2235
ENCODING 8561
SWIDTH 2400 0
DWIDTH 24 0
BBX 11 11 6 1
BITMAP
C060
C060
C060
0000
0000
0000
0000
0000
0600
0600
0600
ENDCHAR
STARTCHAR 222B
ENCODING 8562
SWIDTH 2400 0
DWIDTH 24 0
BBX 9 18 7 0
BITMAP
0700
0780
0C80
0800
0800
0800
0800
0800
0800
0800
0800
0800
0800
1000
9000
9000
E000
4000
ENDCHAR
STARTCHAR 222C
ENCODING 8563
SWIDTH 2400 0
DWIDTH 24 0
BBX 15 17 4 0
BITMAP
071C
05B6
0CB2
0820
0820
0820
0820
0820
0820
0820
0820
0860
1860
1860
9240
93C0
E380
ENDCHAR
STARTCHAR 2208
ENCODING 8564
SWIDTH 2400 0
DWIDTH 24 0
BBX 16 13 4 1
BITMAP
0FFF
1800
6000
6000
C000
C000
FFFF
C000
C000
6000
6000
1800
0FFF
ENDCHAR
STARTCHAR 220B
ENCODING 8565
SWIDTH 2400 0
DWIDTH 24 0
BBX 16 13 4 1
BITMAP
FFF0
0018
0004
0006
0003
0003
FFFF
0003
0003
0006
0004
0018
FFF0
ENDCHAR
STARTCHAR 2286
ENCODING 8566
SWIDTH 2400 0
DWIDTH 24 0
BBX 15 14 5 0
BITMAP
1FFE
3000
6000
C000
C000
C000
C000
E000
7000
1FFE
0000
0000
0000
FFFC
ENDCHAR
STARTCHAR 2287
ENCODING 8567
SWIDTH 2400 0
DWIDTH 24 0
BBX 15 14 4 0
BITMAP
FFF0
0018
000C
0006
0006
0006
0006
000C
0018
FFF0
0000
0000
0000
7FFE
ENDCHAR
STARTCHAR 2282
ENCODING 8568
SWIDTH 2400 0
DWIDTH 24 0
BBX 16 13 4 0
BITMAP
0FFF
3800
6000
6000
C000
C000
C000
C000
C000
6000
6000
1C00
0FFF
ENDCHAR
STARTCHAR 2283
ENCODING 8569
SWIDTH 2400 0
DWIDTH 24 0
BBX 16 13 4 0
BITMAP
FFF0
000C
0006
0006
0003
0003
0003
0003
0003
0006
0004
0018
FFF0
ENDCHAR
STARTCHAR 222A
ENCODING 8570
SWIDTH 2400 0
DWIDTH 24 0
BBX 12 17 6 0
BITMAP
8010
C010
C010
C010
C010
C010
C010
C010
C010
C010
C010
C010
C030
4030
6020
30C0
1F80
ENDCHAR
STARTCHAR 2229
ENCODING 8571
SWIDTH 2400 0
DWIDTH 24 0
BBX 12 17 6 0
BITMAP
1F80
30C0
6060
4020
C030
8030
8030
8010
8010
8010
8010
8010
8010
8010
8010
8010
8010
ENDCHAR
STARTCHAR 2227
ENCODING 8572
SWIDTH 2400 0
DWIDTH 24 0
BBX 14 15 5 0
BITMAP
0200
0300
0300
0480
0480
08C0
0840
1060
1020
2030
2010
4018
4008
800C
8004
ENDCHAR
STARTCHAR 2228
ENCODING 8573
SWIDTH 2400 0
DWIDTH 24 0
BBX 14 15 5 0
BITMAP
8000
800C
C008
4018
6010
2030
3020
1060
1840
0840
0C80
0480
0700
0300
0200
ENDCHAR
STARTCHAR FFE2
ENCODING 8574
SWIDTH 2400 0
DWIDTH 24 0
BBX 14 9 4 3
BITMAP
FFF8
000C
000C
000C
000C
000C
000C
000C
000C
ENDCHAR
STARTCHAR 21D2
ENCODING 8737
SWIDTH 2400 0
DWIDTH 24 0
BBX 19 12 2 1
BITMAP
000400
000200
000100
FFFF80
0000C0
000060
000040
FFFFC0
000180
000300
000600
000400
ENDCHAR
STARTCHAR 21D4
ENCODING 8738
SWIDTH 2400 0
DWIDTH 24 0
BBX 17 12 3 1
BITMAP
041800
0C0C00
180600
3FFF00
600100
C00080
400080
200100
3FFE00
180400
0C0800
041800
ENDCHAR
STARTCHAR 2200
ENCODING 8739
SWIDTH 2400 0
DWIDTH 24 0
BBX 14 16 5 0
BITMAP
8004
C004
4008
6008
2018
3FF0
1010
1020
1820
0840
0C40
04C0
0680
0380
0300
0300
ENDCHAR
STARTCHAR 2203
ENCODING 8740
SWIDTH 2400 0
DWIDTH 24 0
BBX 11 15 6 0
BITMAP
FFE0
0060
0060
0060
0060
0060
0060
FFE0
0060
0060
0060
0060
0060
0060
FFE0
ENDCHAR
STARTCHAR 00B4
ENCODING 8741
SWIDTH 2400 0
DWIDTH 24 0
BBX 2 4 10 15
BITMAP
40
40
C0
80
ENDCHAR
STARTCHAR FF5E
ENCODING 8742
SWIDTH 2400 0
DWIDTH 24 0
BBX 12 3 6 15
BITMAP
7830
C620
83C0
ENDCHAR
STARTCHAR 02C7
ENCODING 8743
SWIDTH 2400 0
DWIDTH 24 0
BBX 8 4 8 14
BITMAP
81
C6
7E
3C
ENDCHAR
STARTCHAR 02D8
ENCODING 8744
SWIDTH 2400 0
DWIDTH 24 0
BBX 8 4 8 15
BITMAP
81
81
C2
3C
ENDCHAR
STARTCHAR 02DD
ENCODING 8745
SWIDTH 2400 0
DWIDTH 24 0
BBX 7 4 8 15
BITMAP
36
6C
48
90
ENDCHAR
STARTCHAR 02DA
ENCODING 8746
SWIDTH 2400 0
DWIDTH 24 0
BBX 4 4 10 14
BITMAP
E0
90
90
E0
ENDCHAR
STARTCHAR 02D9
ENCODING 8747
SWIDTH 2400 0
DWIDTH 24 0
BBX 2 3 11 15
BITMAP
C0
C0
C0
ENDCHAR
STARTCHAR 00B8
ENCODING 8748
SWIDTH 2400 0
DWIDTH 24 0
BBX 4 4 10 -3
BITMAP
60
30
30
E0
ENDCHAR
STARTCHAR 02DB
ENCODING 8749
SWIDTH 2400 0
DWIDTH 24 0
BBX 4 5 10 -3
BITMAP
40
C0
90
F0
60
ENDCHAR
STARTCHAR 00A1
ENCODING 8750
SWIDTH 2400 0
DWIDTH 24 0
BBX 3 16 10 0
BITMAP
60
60
60
00
40
40
C0
C0
C0
C0
C0
C0
C0
E0
E0
C0
ENDCHAR
STARTCHAR 00BF
ENCODING 8751
SWIDTH 2400 0
DWIDTH 24 0
BBX 10 17 7 0
BITMAP
0600
0600
0600
0000
0000
0600
0600
0600
0E00
3E00
6000
C0C0
C0C0
C040
C0C0
7F80
1F00
ENDCHAR
STARTCHAR 02D0
ENCODING 8752
SWIDTH 2400 0
DWIDTH 24 0
BBX 3 10 10 3
BITMAP
E0
60
40
00
00
00
00
40
60
E0
ENDCHAR
STARTCHAR 222E
ENCODING 8753
SWIDTH 2400 0
DWIDTH 24 0
BBX 9 18 7 0
BITMAP
0180
0380
0480
0400
0C00
0C00
0C00
1E00
2E00
2E00
1E00
0C00
0800
0800
0800
1800
D000
E000
ENDCHAR
STARTCHAR 2211
ENCODING 8754
SWIDTH 2400 0
DWIDTH 24 0
BBX 16 17 3 0
BITMAP
FFFF
7FFF
2001
1001
0801
0401
0201
0100
0180
0100
0200
0601
0C01
1801
3001
6001
FFFF
ENDCHAR
STARTCHAR 220F
ENCODING 8755
SWIDTH 2400 0
DWIDTH 24 0
BBX 18 17 3 0
BITMAP
FFFFC0
180600
180600
180600
180600
180600
180600
180600
180600
180600
180600
180600
180600
180600
180600
180600
180600
ENDCHAR
STARTCHAR 00A4
ENCODING 8756
SWIDTH 2400 0
DWIDTH 24 0
BBX 15 17 4 -1
BITMAP
0002
8004
47C8
3830
2008
2008
4004
4004
4004
4004
4004
2008
2008
3838
47C4
8006
0002
ENDCHAR
STARTCHAR 2109
ENCODING 8757
SWIDTH 2400 0
DWIDTH 24 0
BBX 17 18 3 0
BITMAP
01FF80
F1FF80
918000
918000
F18000
018000
018000
01FE00
01FE00
018000
018000
018000
018000
018000
018000
018000
018000
018000
ENDCHAR
STARTCHAR 2030
ENCODING 8758
SWIDTH 2400 0
DWIDTH 24 0
BBX 19 21 2 -2
BITMAP
1C0600
360400
630800
631800
631000
632000
636000
634000
368000
1D8000
010000
02F380
069240
059E60
099E60
199E60
119E60
219E60
609240
40E380
800000
ENDCHAR
STARTCHAR 25C1
ENCODING 8759
SWIDTH 2400 0
DWIDTH 24 0
BBX 12 18 6 -1
BITMAP
0010
0030
00F0
0130
0230
0C30
1030
2030
C030
8030
6030
1030
0830
0630
0130
00F0
0030
0010
ENDCHAR
STARTCHAR 25C0
ENCODING 8760
SWIDTH 2400 0
DWIDTH 24 0
BBX 12 18 6 -1
BITMAP
0010
0030
00F0
01F0
03F0
0FF0
1FF0
7FF0
FFF0
FFF0
7FF0
1FF0
0FF0
07F0
01F0
00F0
0030
0010
ENDCHAR
STARTCHAR 25B7
ENCODING 8761
SWIDTH 2400 0
DWIDTH 24 0
BBX 12 18 5 -1
BITMAP
8000
C000
F000
D800
C400
C300
C080
C060
C010
C010
C020
C0C0
C100
C600
C800
F000
C000
8000
ENDCHAR
STARTCHAR 25B6
ENCODING 8762
SWIDTH 2400 0
DWIDTH 24 0
BBX 13 17 5 0
BITMAP
8000
E000
F000
F800
7E00
7F00
7FC0
7FE0
7FF0
7FF8
7FE0
7FC0
7F00
7E00
7C00
7000
6000
ENDCHAR
STARTCHAR 2664
ENCODING 8763
SWIDTH 2400 0
DWIDTH 24 0
BBX 14 19 5 -2
BITMAP
0300
0780
0480
0840
1860
1020
2010
6018
4008
C00C
8004
8004
8004
8484
7D78
0480
0480
0480
0FC0
ENDCHAR
STARTCHAR 2660
ENCODING 8764
SWIDTH 2400 0
DWIDTH 24 0
BBX 15 20 4 -2
BITMAP
0100
0180
03C0
07C0
0FE0
0FF0
1FF8
3FF8
3FFC
7FFC
7FFE
FFFE
FFFE
FFFE
7FFE
7DFC
1380
0380
03C0
07C0
ENDCHAR
STARTCHAR 2661
ENCODING 8765
SWIDTH 2400 0
DWIDTH 24 0
BBX 15 18 4 -1
BITMAP
3878
6444
62C4
C282
C182
C002
C002
C002
6004
6004
3008
3008
1810
1C30
0C60
0640
0380
0100
ENDCHAR
STARTCHAR 2665
ENCODING 8766
SWIDTH 2400 0
DWIDTH 24 0
BBX 16 20 4 -2
BITMAP
3C3C
7EFE
FEFE
FFFF
FFFF
FFFF
FFFF
FFFE
FFFE
7FFE
7FFC
3FFC
3FF8
1FF8
1FF0
0FE0
07E0
03C0
0380
0100
ENDCHAR
STARTCHAR 2667
ENCODING 8767
SWIDTH 2400 0
DWIDTH 24 0
BBX 18 20 3 -2
BITMAP
01E000
021000
040800
040800
040800
040800
021800
033000
3D2F00
473880
800040
800040
800040
800040
C12040
675080
392F00
012000
012000
03E000
ENDCHAR
STARTCHAR 2663
ENCODING 8768
SWIDTH 2400 0
DWIDTH 24 0
BBX 18 20 3 -2
BITMAP
01E000
03F000
07F000
07F800
07F800
07F800
07F000
3BF600
7FFF00
FFFF80
FFFF80
FFFFC0
FFFF80
FFBF80
7EFF80
7CDF00
01C000
01C000
01E000
03E000
ENDCHAR
STARTCHAR 2299
ENCODING 8769
SWIDTH 2400 0
DWIDTH 24 0
BBX 17 18 3 -1
BITMAP
07F000
1C1C00
300600
23E300
47F900
4FFD00
9FFC80
9FFC80
9FFC80
9FFC80
9FFC80
9FFC80
CFFD00
4FF900
67F200
300600
1C0C00
07F000
ENDCHAR
STARTCHAR 25C8
ENCODING 8770
SWIDTH 2400 0
DWIDTH 24 0
BBX 19 21 2 -3
BITMAP
004000
00A000
011000
024800
02E400
05F400
0BFA00
13FD00
27FE80
4FFE40
DFFF60
6FFEC0
37FC80
1BF900
09F200
04E400
024C00
031800
01B000
00E000
004000
ENDCHAR
STARTCHAR 25A3
ENCODING 8771
SWIDTH 2400 0
DWIDTH 24 0
BBX 16 18 4 -1
BITMAP
FFFF
8001
8001
8001
8001
9FF1
9FF1
9FF1
9FF1
9FF1
9FF1
9FF1
9FF1
9FF1
8001
8001
8001
FFFF
ENDCHAR
STARTCHAR 25D0
ENCODING 8772
SWIDTH 2400 0
DWIDTH 24 0
BBX 17 18 3 -1
BITMAP
03F000
0F1C00
3F0600
3F0200
7F0100
7F0100
FF0080
FF0080
FF0080
FF0080
FF0080
FF0080
7F0100
7F0100
3F0200
3F0600
0F1C00
03F000
ENDCHAR
STARTCHAR 25D1
ENCODING 8773
SWIDTH 2400 0
DWIDTH 24 0
BBX 17 18 3 -1
BITMAP
07F000
1C7800
307E00
207E00
407F00
407F00
807F80
807F80
807F80
807F80
807F80
807F80
807F00
407F00
407E00
307E00
1C7800
07F000
ENDCHAR
STARTCHAR 2592
ENCODING 8774
SWIDTH 2400 0
DWIDTH 24 0
BBX 17 18 3 -1
BITMAP
FFFF80
924980
800080
C92480
800080
924980
C92480
800080
924980
C92480
800080
924980
800080
C92480
924980
800080
800080
FFFF80
ENDCHAR
STARTCHAR 25A4
ENCODING 8775
SWIDTH 2400 0
DWIDTH 24 0
BBX 16 18 4 -1
BITMAP
FFFF
8001
8001
8001
8001
FFFF
8001
8001
8001
FFFF
8001
8001
8001
FFFF
8001
8001
8001
FFFF
ENDCHAR
STARTCHAR 25A5
ENCODING 8776
SWIDTH 2400 0
DWIDTH 24 0
BBX 16 18 4 -1
BITMAP
FFFF
9111
9111
9111
9111
9111
9111
9111
9111
9111
9111
9111
9111
9111
9111
9111
9111
FFFF
ENDCHAR
STARTCHAR 25A8
ENCODING 8777
SWIDTH 2400 0
DWIDTH 24 0
BBX 16 18 4 -1
BITMAP
FFFF
8103
8205
8409
8811
9021
A041
E041
C081
8103
8205
8409
8811
9021
A061
C0C1
C081
FFFF
ENDCHAR
STARTCHAR 25A7
ENCODING 8778
SWIDTH 2400 0
DWIDTH 24 0
BBX 17 18 3 -1
BITMAP
FFFF80
E04080
B02080
901080
880880
840480
820680
830380
818180
C0C080
A06080
903080
881880
8C0880
860480
830280
810380
FFFF80
ENDCHAR
STARTCHAR 25A6
ENCODING 8779
SWIDTH 2400 0
DWIDTH 24 0
BBX 16 18 4 -1
BITMAP
FFFF
9111
9111
9111
FFFF
9111
9111
9111
9111
FFFF
9111
9111
9111
FFFF
9111
9111
9111
FFFF
ENDCHAR
STARTCHAR 25A9
ENCODING 8780
SWIDTH 2400 0
DWIDTH 24 0
BBX 16 18 4 -1
BITMAP
FFFF
8383
C685
A449
9839
9831
A469
C245
8383
8183
C287
A44D
9829
8811
B429
C245
8183
FFFF
ENDCHAR
STARTCHAR 2668
ENCODING 8781
SWIDTH 2400 0
DWIDTH 24 0
BBX 18 20 3 -2
BITMAP
004000
004000
02E000
03A000
05A000
05A000
05A000
05A000
07F000
02F000
02D000
02D000
12F200
22A180
47A0C0
C520C0
C500C0
600380
380F00
0FF800
ENDCHAR
STARTCHAR 260F
ENCODING 8782
SWIDTH 2400 0
DWIDTH 24 0
BBX 20 15 2 0
BITMAP
01F800
1E0780
27F640
4B1520
8BF630
8AE530
F71AE0
040E00
0C0500
140480
340480
240480
220840
61F040
7FFFC0
ENDCHAR
STARTCHAR 260E
ENCODING 8783
SWIDTH 2400 0
DWIDTH 24 0
BBX 19 15 3 0
BITMAP
03F800
1FFF00
7FFF80
FA1BC0
FBFBE0
FFFBE0
E40CC0
080C00
080E00
180700
380700
380F00
3C0F80
7E1F80
7FFF80
ENDCHAR
STARTCHAR 261C
ENCODING 8784
SWIDTH 2400 0
DWIDTH 24 0
BBX 19 9 2 4
BITMAP
00FC00
FF1B60
C061E0
3FB860
0AF860
07D460
053260
03D1E0
00FE00
ENDCHAR
STARTCHAR 261E
ENCODING 8785
SWIDTH 2400 0
DWIDTH 24 0
BBX 20 9 2 4
BITMAP
03F000
ED8FF0
B86030
A1DFC0
A1BA00
A2EE00
A55C00
B8B800
47F000
ENDCHAR
STARTCHAR 00B6
ENCODING 8786
SWIDTH 2400 0
DWIDTH 24 0
BBX 12 21 5 -3
BITMAP
0030
3F30
6330
C330
C330
C330
C330
6330
3F30
0330
0330
0330
0330
0330
0330
0330
0330
0330
0330
0330
0030
ENDCHAR
STARTCHAR 2020
ENCODING 8787
SWIDTH 2400 0
DWIDTH 24 0
BBX 12 21 6 -3
BITMAP
0600
0600
0600
0600
0600
FFF0
FFF0
0600
0600
0600
0600
0600
0600
0600
0600
0600
0600
0600
0600
0600
0600
ENDCHAR
STARTCHAR 2021
ENCODING 8788
SWIDTH 2400 0
DWIDTH 24 0
BBX 12 21 6 -3
BITMAP
0600
0600
0600
FFF0
FFF0
0600
0600
FFF0
0600
0600
0600
0600
0600
0600
0600
0600
0600
0600
0600
0600
0600
ENDCHAR
STARTCHAR 2195
ENCODING 8789
SWIDTH 2400 0
DWIDTH 24 0
BBX 6 19 9 -2
BITMAP
30
78
78
B4
30
30
30
30
30
30
30
30
30
30
30
FC
78
30
20
ENDCHAR
STARTCHAR 2197
ENCODING 8790
SWIDTH 2400 0
DWIDTH 24 0
BBX 13 14 4 0
BITMAP
0078
0018
0038
0068
00C8
0180
0300
0600
0400
0800
1000
3000
6000
C000
ENDCHAR
STARTCHAR 2199
ENCODING 8791
SWIDTH 2400 0
DWIDTH 24 0
BBX 13 14 6 1
BITMAP
0018
0030
0060
00C0
0180
0300
0200
0400
0C00
9800
B000
E000
C000
F800
ENDCHAR
STARTCHAR 2196
ENCODING 8792
SWIDTH 2400 0
DWIDTH 24 0
BBX 13 14 6 0
BITMAP
F800
E000
E000
B000
9800
8C00
0600
0300
0180
00C0
0060
0030
0010
0018
ENDCHAR
STARTCHAR 2198
ENCODING 8793
SWIDTH 2400 0
DWIDTH 24 0
BBX 12 15 6 0
BITMAP
8000
C000
4000
6000
3000
1800
0C00
0600
0300
0190
00D0
0050
0030
00F0
0100
ENDCHAR
STARTCHAR 266D
ENCODING 8794
SWIDTH 2400 0
DWIDTH 24 0
BBX 8 16 8 0
BITMAP
C0
C0
C0
C0
C0
CE
F2
C3
C3
C3
C3
C6
CC
D8
F0
C0
ENDCHAR
STARTCHAR 2669
ENCODING 8795
SWIDTH 2400 0
DWIDTH 24 0
BBX 5 20 9 -2
BITMAP
18
18
18
18
18
18
18
18
18
18
18
18
18
18
18
18
78
F0
E0
C0
ENDCHAR
STARTCHAR 266A
ENCODING 8796
SWIDTH 2400 0
DWIDTH 24 0
BBX 10 18 6 -2
BITMAP
1000
1800
1E00
1700
1380
1180
10C0
1040
1040
1040
1080
1000
1000
1000
1000
F000
E000
C000
ENDCHAR
STARTCHAR 266C
ENCODING 8797
SWIDTH 2400 0
DWIDTH 24 0
BBX 15 18 4 -2
BITMAP
0FFE
0C06
0C06
0C06
0FFE
0C06
0C06
0C06
0C06
0C06
0C06
0C06
0C06
0C1E
3C3C
7878
F030
6000
ENDCHAR
STARTCHAR 327F
ENCODING 8798
SWIDTH 2400 0
DWIDTH 24 0
BBX 17 18 3 -1
BITMAP
03F000
0C0C00
180200
300300
661100
662180
C66080
C6C000
C7C000
FF5F80
062180
863180
C61180
461B00
660A00
300600
181800
07E000
ENDCHAR
STARTCHAR 321C
ENCODING 8799
SWIDTH 2400 0
DWIDTH 24 0
BBX 19 19 2 -2
BITMAP
080200
100100
3FFF80
206080
60F0C0
41B840
CF0E60
CC0760
C00060
C00060
DFFFE0
C06060
406040
6060C0
206080
306180
106100
086200
040400
ENDCHAR
STARTCHAR 2116
ENCODING 8800
SWIDTH 2400 0
DWIDTH 24 0
BBX 20 17 2 0
BITMAP
818000
C18000
C18000
E18000
E18000
D18F00
D19F80
C9B0C0
C9F0E0
C9E060
C5E060
C5E060
C3E060
C3F060
C1B0C0
C1BF90
C08F00
ENDCHAR
STARTCHAR 33C7
ENCODING 8801
SWIDTH 2400 0
DWIDTH 24 0
BBX 21 17 1 0
BITMAP
1F0000
318000
61C000
60C000
C0C000
C00780
C00CC0
C01860
C03030
C03030
C03030
C0F030
C0F030
60F030
61D860
318CC0
1F0788
ENDCHAR
STARTCHAR 2122
ENCODING 8802
SWIDTH 2400 0
DWIDTH 24 0
BBX 18 17 2 0
BITMAP
FF60C0
FF60C0
1860C0
1860C0
1861C0
1871C0
1871C0
1872C0
1872C0
1872C0
186AC0
186AC0
186AC0
186AC0
186CC0
1864C0
1864C0
ENDCHAR
STARTCHAR 33C2
ENCODING 8803
SWIDTH 2400 0
DWIDTH 24 0
BBX 21 12 1 0
BITMAP
101800
7C1EE0
C61B60
C61B60
061B60
3E1B60
761B60
C61B60
C61B60
C61B60
CF1B60
7B5B68
ENDCHAR
STARTCHAR 33D8
ENCODING 8804
SWIDTH 2400 0
DWIDTH 24 0
BBX 20 16 2 -4
BITMAP
C03000
DC3FC0
E636C0
E336C0
C336C0
C336C0
C336C0
C336C0
C336C0
C336C0
E636C0
DCB6D0
C00000
C00000
C00000
C00000
ENDCHAR
STARTCHAR 2121
ENCODING 8805
SWIDTH 2400 0
DWIDTH 24 0
BBX 18 17 2 0
BITMAP
FFC0C0
FF80C0
0C00C0
0C00C0
0C00C0
0C30C0
0CFCC0
0D0CC0
0D06C0
0D06C0
0DFEC0
0DFEC0
0D00C0
0D06C0
0D06C0
0CDCC0
0C78C0
ENDCHAR
STARTCHAR FF01
ENCODING 8993
SWIDTH 2400 0
DWIDTH 24 0
BBX 2 20 11 -2
BITMAP
C0
C0
C0
C0
C0
C0
C0
C0
C0
C0
80
80
80
80
80
00
00
C0
C0
40
ENDCHAR
STARTCHAR FF02
ENCODING 8994
SWIDTH 2400 0
DWIDTH 24 0
BBX 9 7 7 11
BITMAP
0880
1980
1300
3200
2400
4800
8800
ENDCHAR
STARTCHAR FF03
ENCODING 8995
SWIDTH 2400 0
DWIDTH 24 0
BBX 16 19 4 -2
BITMAP
0208
0608
0618
0418
0410
7FFF
0410
0C10
0C30
0830
0820
0820
1820
FFFC
1060
1060
1040
1040
1040
ENDCHAR
STARTCHAR FF04
ENCODING 8996
SWIDTH 2400 0
DWIDTH 24 0
BBX 16 20 4 -2
BITMAP
0620
07E0
1FF8
3666
6663
6662
6660
7660
1F60
07F8
066E
0663
0663
0663
C663
6666
3E7C
0FF0
0660
0040
ENDCHAR
STARTCHAR FF05
ENCODING 8997
SWIDTH 2400 0
DWIDTH 24 0
BBX 20 18 2 -1
BITMAP
1F0060
6080C0
C04180
C04300
C04600
C04C00
60D800
31B000
0E6000
00CFC0
019860
033030
063030
0C3030
183030
301870
600CE0
000380
ENDCHAR
STARTCHAR FF06
ENCODING 8998
SWIDTH 2400 0
DWIDTH 24 0
BBX 12 17 6 0
BITMAP
0700
1D80
10C0
1040
10C0
1080
1B80
0E00
3E00
6200
C310
8190
80F0
8060
C0E0
63B0
1F10
ENDCHAR
STARTCHAR FF07
ENCODING 8999
SWIDTH 2400 0
DWIDTH 24 0
BBX 2 6 11 13
BITMAP
C0
C0
C0
40
40
80
ENDCHAR
STARTCHAR FF08
ENCODING 9000
SWIDTH 2400 0
DWIDTH 24 0
BBX 7 21 8 -3
BITMAP
06
0C
18
30
20
60
60
C0
C0
C0
C0
C0
C0
40
60
20
30
18
18
0E
02
ENDCHAR
STARTCHAR FF09
ENCODING 9001
SWIDTH 2400 0
DWIDTH 24 0
BBX 7 21 8 -3
BITMAP
C0
60
30
18
08
0C
0C
06
06
06
06
06
06
04
0C
08
18
30
20
C0
80
ENDCHAR
STARTCHAR FF0A
ENCODING 9002
SWIDTH 2400 0
DWIDTH 24 0
BBX 13 12 5 2
BITMAP
18C0
1CE0
0CC0
0C80
0780
FB38
FFF8
0300
0480
0CC0
1CE0
18E0
ENDCHAR
STARTCHAR FF0B
ENCODING 9003
SWIDTH 2400 0
DWIDTH 24 0
BBX 18 18 3 -1
BITMAP
00C000
00C000
00C000
00C000
00C000
00C000
00C000
00C000
00C000
FFFFC0
00C000
00C000
00C000
00C000
00C000
00C000
00C000
00C000
ENDCHAR
STARTCHAR FF0C
ENCODING 9004
SWIDTH 2400 0
DWIDTH 24 0
BBX 4 7 10 -3
BITMAP
40
E0
F0
70
20
60
C0
ENDCHAR
STARTCHAR FF0D
ENCODING 9005
SWIDTH 2400 0
DWIDTH 24 0
BBX 17 1 4 7
BITMAP
FFFF80
ENDCHAR
STARTCHAR FF0E
ENCODING 9006
SWIDTH 2400 0
DWIDTH 24 0
BBX 3 3 11 -1
BITMAP
40
E0
E0
ENDCHAR
STARTCHAR FF0F
ENCODING 9007
SWIDTH 2400 0
DWIDTH 24 0
BBX 9 20 8 -3
BITMAP
0180
0100
0300
0200
0200
0600
0400
0C00
0800
0800
1800
1000
3000
2000
2000
6000
4000
C000
8000
8000
ENDCHAR
STARTCHAR FF10
ENCODING 9008
SWIDTH 2400 0
DWIDTH 24 0
BBX 12 17 6 0
BITMAP
0F00
30C0
6060
6060
4060
C030
C030
C030
C030
C030
C030
C030
C020
6060
6060
30C0
0F00
ENDCHAR
STARTCHAR FF11
ENCODING 9009
SWIDTH 2400 0
DWIDTH 24 0
BBX 7 17 7 0
BITMAP
06
0E
1E
36
66
C6
86
06
06
06
06
06
06
06
06
06
06
ENDCHAR
STARTCHAR FF12
ENCODING 9010
SWIDTH 2400 0
DWIDTH 24 0
BBX 12 17 6 0
BITMAP
1F80
7060
C020
C030
C030
0030
0070
00E0
01C0
0700
0E00
3800
7000
6000
C000
C000
FFF0
ENDCHAR
STARTCHAR FF13
ENCODING 9011
SWIDTH 2400 0
DWIDTH 24 0
BBX 12 17 6 0
BITMAP
1F80
60C0
C060
C060
0060
0060
0040
0080
1FC0
00E0
0060
0030
8030
8020
C060
60C0
3F80
ENDCHAR
STARTCHAR FF14
ENCODING 9012
SWIDTH 2400 0
DWIDTH 24 0
BBX 14 16 4 0
BITMAP
0070
00F0
01B0
0130
0330
0630
0C30
0830
1830
3030
6030
4030
FFFC
0030
0030
0030
ENDCHAR
STARTCHAR FF15
ENCODING 9013
SWIDTH 2400 0
DWIDTH 24 0
BBX 12 16 6 0
BITMAP
7FE0
C000
C000
C000
C000
C700
FFC0
E060
0030
0030
0030
8030
C030
C060
70C0
1F80
ENDCHAR
STARTCHAR FF16
ENCODING 9014
SWIDTH 2400 0
DWIDTH 24 0
BBX 12 17 6 0
BITMAP
0FC0
1060
2020
6020
4000
C000
CF80
D0E0
E060
C030
C030
C030
C030
4030
6060
30C0
1F80
ENDCHAR
STARTCHAR FF17
ENCODING 9015
SWIDTH 2400 0
DWIDTH 24 0
BBX 11 16 7 0
BITMAP
FFE0
0060
0040
00C0
0080
0180
0100
0200
0600
0400
0C00
0800
1800
3000
2000
6000
ENDCHAR
STARTCHAR FF18
ENCODING 9016
SWIDTH 2400 0
DWIDTH 24 0
BBX 12 17 6 0
BITMAP
1F80
30C0
6060
4020
4020
4020
6020
30C0
3FC0
70E0
C030
C030
C010
C030
4020
30C0
1F80
ENDCHAR
STARTCHAR FF19
ENCODING 9017
SWIDTH 2400 0
DWIDTH 24 0
BBX 12 17 6 0
BITMAP
1F00
30C0
6020
C020
C020
C010
C010
C030
C030
6070
30B0
1F30
0020
C020
C060
60C0
3F80
ENDCHAR
STARTCHAR FF1A
ENCODING 9018
SWIDTH 2400 0
DWIDTH 24 0
BBX 2 15 11 0
BITMAP
C0
C0
C0
00
00
00
00
00
00
00
00
00
C0
C0
C0
ENDCHAR
STARTCHAR FF1B
ENCODING 9019
SWIDTH 2400 0
DWIDTH 24 0
BBX 3 17 11 -2
BITMAP
C0
C0
C0
00
00
00
00
00
00
00
00
00
E0
E0
60
40
80
ENDCHAR
STARTCHAR FF1C
ENCODING 9020
SWIDTH 2400 0
DWIDTH 24 0
BBX 17 18 3 -1
BITMAP
000180
000700
001C00
007000
01C000
070000
0C0000
380000
E00000
C00000
700000
1C0000
070000
01C000
007000
003800
000E00
000380
ENDCHAR
STARTCHAR FF1D
ENCODING 9021
SWIDTH 2400 0
DWIDTH 24 0
BBX 17 6 4 5
BITMAP
FFFF80
000000
000000
000000
000000
FFFF80
ENDCHAR
STARTCHAR FF1E
ENCODING 9022
SWIDTH 2400 0
DWIDTH 24 0
BBX 16 19 4 -1
BITMAP
8000
E000
3800
0E00
0380
00E0
0038
001C
0007
0001
0003
000E
0038
00E0
0380
0E00
3800
E000
C000
ENDCHAR
STARTCHAR FF1F
ENCODING 9023
SWIDTH 2400 0
DWIDTH 24 0
BBX 15 20 4 -2
BITMAP
0FE0
3018
600C
4006
C006
C006
600E
381C
1838
00E0
0180
0180
0180
0180
0180
0180
0000
0000
0000
0180
ENDCHAR
STARTCHAR FF20
ENCODING 9024
SWIDTH 2400 0
DWIDTH 24 0
BBX 19 19 3 -2
BITMAP
07FC00
1C0700
300380
600080
4008C0
C1F840
833860
861860
861860
861860
861860
861860
C31CC0
43F780
60C300
300000
1C0000
07FC00
01F000
ENDCHAR
STARTCHAR FF21
ENCODING 9025
SWIDTH 2400 0
DWIDTH 24 0
BBX 16 18 4 0
BITMAP
0180
0180
03C0
0240
0640
0660
0420
0C30
0830
1810
1818
1008
300C
3FFC
2004
6006
4002
C003
ENDCHAR
STARTCHAR FF22
ENCODING 9026
SWIDTH 2400 0
DWIDTH 24 0
BBX 14 18 5 0
BITMAP
FFE0
C010
C008
C008
C008
C008
C008
C018
FFE0
C018
C004
C004
C004
C004
C004
C008
C008
7FF0
ENDCHAR
STARTCHAR FF23
ENCODING 9027
SWIDTH 2400 0
DWIDTH 24 0
BBX 15 18 5 0
BITMAP
07F0
0C18
100C
2006
6006
6002
C000
C000
C000
C000
C000
C000
C002
6002
2006
100C
0C18
03E0
ENDCHAR
STARTCHAR FF24
ENCODING 9028
SWIDTH 2400 0
DWIDTH 24 0
BBX 14 17 6 0
BITMAP
FF80
C060
C030
C018
C018
C00C
C00C
C00C
C00C
C00C
C00C
C00C
C008
C018
C010
C070
FFC0
ENDCHAR
STARTCHAR FF25
ENCODING 9029
SWIDTH 2400 0
DWIDTH 24 0
BBX 13 17 6 0
BITMAP
FFF8
C000
C000
C000
C000
C000
C000
C000
FFF0
C000
C000
C000
C000
C000
C000
C000
FFF8
ENDCHAR
STARTCHAR FF26
ENCODING 9030
SWIDTH 2400 0
DWIDTH 24 0
BBX 13 18 6 -1
BITMAP
FFF8
C000
C000
C000
C000
C000
C000
C000
FFF0
C000
C000
C000
C000
C000
C000
C000
C000
C000
ENDCHAR
STARTCHAR FF27
ENCODING 9031
SWIDTH 2400 0
DWIDTH 24 0
BBX 15 19 4 -1
BITMAP
07E0
0C18
100C
3004
6006
6000
C000
C000
C000
C0FE
C002
C002
C002
6002
6004
7004
3008
1C30
07C0
ENDCHAR
STARTCHAR FF28
ENCODING 9032
SWIDTH 2400 0
DWIDTH 24 0
BBX 13 18 5 0
BITMAP
C018
C018
C018
C018
C018
C018
C018
C018
FFF8
C018
C018
C018
C018
C018
C018
C018
C018
C018
ENDCHAR
STARTCHAR FF29
ENCODING 9033
SWIDTH 2400 0
DWIDTH 24 0
BBX 2 18 11 0
BITMAP
C0
C0
C0
C0
C0
C0
C0
C0
C0
C0
C0
C0
C0
C0
C0
C0
C0
C0
ENDCHAR
STARTCHAR FF2A
ENCODING 9034
SWIDTH 2400 0
DWIDTH 24 0
BBX 12 18 5 0
BITMAP
0030
0030
0030
0030
0030
0030
0030
0030
0030
0030
0030
C030
C030
C030
6060
6060
30C0
1F00
ENDCHAR
STARTCHAR FF2B
ENCODING 9035
SWIDTH 2400 0
DWIDTH 24 0
BBX 13 18 7 0
BITMAP
C010
C030
C060
C0C0
C180
C300
C400
D800
D000
F000
D800
CE00
C300
C180
C0C0
C060
C030
C018
ENDCHAR
STARTCHAR FF2C
ENCODING 9036
SWIDTH 2400 0
DWIDTH 24 0
BBX 14 18 6 0
BITMAP
C000
C000
C000
C000
C000
C000
C000
C000
C000
C000
C000
C000
C000
C000
C000
C000
C000
7FFC
ENDCHAR
STARTCHAR FF2D
ENCODING 9037
SWIDTH 2400 0
DWIDTH 24 0
BBX 18 18 3 0
BITMAP
C00080
C001C0
E001C0
E003C0
D002C0
D006C0
C804C0
C804C0
CC08C0
C408C0
C410C0
C210C0
C230C0
C320C0
C160C0
C1C0C0
C0C0C0
C080C0
ENDCHAR
STARTCHAR FF2E
ENCODING 9038
SWIDTH 2400 0
DWIDTH 24 0
BBX 14 18 5 0
BITMAP
C00C
E00C
E00C
D00C
C80C
C80C
C40C
C60C
C20C
C10C
C10C
C08C
C04C
C04C
C02C
C03C
C01C
C00C
ENDCHAR
STARTCHAR FF2F
ENCODING 9039
SWIDTH 2400 0
DWIDTH 24 0
BBX 16 19 4 -1
BITMAP
07E0
1C38
300C
200C
6006
6006
C003
C003
C003
C003
C003
C003
C003
6006
6006
6004
300C
1C38
07E0
ENDCHAR
STARTCHAR FF30
ENCODING 9040
SWIDTH 2400 0
DWIDTH 24 0
BBX 16 18 5 -1
BITMAP
FFF8
C00E
C007
C003
C003
C003
C006
C00E
FFF8
8000
8000
8000
8000
8000
8000
8000
8000
8000
ENDCHAR
STARTCHAR FF31
ENCODING 9041
SWIDTH 2400 0
DWIDTH 24 0
BBX 15 21 4 -3
BITMAP
07C0
1830
3018
600C
600C
C006
C006
C006
C006
C006
C006
C006
C006
600C
600C
3018
1870
0FC0
38C0
6070
001E
ENDCHAR
STARTCHAR FF32
ENCODING 9042
SWIDTH 2400 0
DWIDTH 24 0
BBX 14 17 5 0
BITMAP
FFF0
C018
C00C
C00C
C00C
C00C
C018
C038
FFF0
C030
C010
C018
C008
C008
C008
C00C
C00C
ENDCHAR
STARTCHAR FF33
ENCODING 9043
SWIDTH 2400 0
DWIDTH 24 0
BBX 14 19 5 -1
BITMAP
0FC0
3070
6010
C018
C008
C000
E000
7800
3F80
07F0
0078
001C
000C
800C
C00C
C00C
6018
3830
0FC0
ENDCHAR
STARTCHAR FF34
ENCODING 9044
SWIDTH 2400 0
DWIDTH 24 0
BBX 14 18 5 -1
BITMAP
FFFC
0300
0300
0300
0300
0300
0300
0300
0300
0300
0300
0300
0300
0300
0300
0300
0300
0300
ENDCHAR
STARTCHAR FF35
ENCODING 9045
SWIDTH 2400 0
DWIDTH 24 0
BBX 14 18 5 0
BITMAP
C00C
C00C
C00C
C00C
C00C
C00C
C00C
C00C
C00C
C00C
C00C
C00C
C00C
C00C
6018
6018
3870
0FC0
ENDCHAR
STARTCHAR FF36
ENCODING 9046
SWIDTH 2400 0
DWIDTH 24 0
BBX 14 18 5 -1
BITMAP
C00C
C008
4008
4018
6010
2010
2030
3020
1020
1060
1840
0840
0840
0CC0
0480
0480
0780
0300
ENDCHAR
STARTCHAR FF37
ENCODING 9047
SWIDTH 2400 0
DWIDTH 24 0
BBX 20 18 2 -1
BITMAP
C06030
C06030
406020
407020
60F020
609060
209040
209840
319840
3188C0
110880
110C80
110C80
1B0480
0A0580
0A0700
0E0700
040200
ENDCHAR
STARTCHAR FF38
ENCODING 9048
SWIDTH 2400 0
DWIDTH 24 0
BBX 14 18 5 0
BITMAP
4008
6018
3030
1020
1860
0CC0
0680
0380
0300
0780
0480
0CC0
1860
1030
3010
6018
400C
8004
ENDCHAR
STARTCHAR FF39
ENCODING 9049
SWIDTH 2400 0
DWIDTH 24 0
BBX 14 18 5 0
BITMAP
8004
C00C
6018
2010
3030
1060
18C0
0CC0
0780
0700
0300
0300
0300
0300
0300
0300
0300
0300
ENDCHAR
STARTCHAR FF3A
ENCODING 9050
SWIDTH 2400 0
DWIDTH 24 0
BBX 13 17 5 0
BITMAP
7FF8
0018
0030
0060
0060
00C0
0180
0300
0600
0600
0C00
1800
3000
6000
6000
C000
FFF8
ENDCHAR
STARTCHAR FF3B
ENCODING 9051
SWIDTH 2400 0
DWIDTH 24 0
BBX 8 21 8 -3
BITMAP
7F
C0
C0
C0
C0
C0
C0
C0
C0
C0
C0
C0
C0
C0
C0
C0
C0
C0
C0
FF
78
ENDCHAR
STARTCHAR FFE6
ENCODING 9052
SWIDTH 2400 0
DWIDTH 24 0
BBX 20 18 2 -1
BITMAP
406020
606020
60F060
20D060
209040
209040
FFFFF0
3098C0
1198C0
110880
110880
FFFFF0
190980
1B0D80
0A0500
0A0500
0E0700
040200
ENDCHAR
STARTCHAR FF3D
ENCODING 9053
SWIDTH 2400 0
DWIDTH 24 0
BBX 8 21 7 -3
BITMAP
FE
03
03
03
03
03
03
03
03
03
03
03
03
03
03
03
03
03
03
03
FE
ENDCHAR
STARTCHAR FF3E
ENCODING 9054
SWIDTH 2400 0
DWIDTH 24 0
BBX 8 3 8 15
BITMAP
3C
66
81
ENDCHAR
STARTCHAR FF3F
ENCODING 9055
SWIDTH 2400 0
DWIDTH 24 0
BBX 21 1 2 -3
BITMAP
FFFFF8
ENDCHAR
STARTCHAR FF40
ENCODING 9056
SWIDTH 2400 0
DWIDTH 24 0
BBX 3 5 10 14
BITMAP
40
C0
60
60
20
ENDCHAR
STARTCHAR FF41
ENCODING 9057
SWIDTH 2400 0
DWIDTH 24 0
BBX 11 12 6 0
BITMAP
1F80
3040
6060
0060
01E0
3E60
4060
4060
8060
40E0
41A0
3F20
ENDCHAR
STARTCHAR FF42
ENCODING 9058
SWIDTH 2400 0
DWIDTH 24 0
BBX 11 16 7 0
BITMAP
C000
C000
C000
C000
CF00
F180
E0C0
C060
C060
C060
C060
C060
C060
E0C0
F1C0
CF00
ENDCHAR
STARTCHAR FF43
ENCODING 9059
SWIDTH 2400 0
DWIDTH 24 0
BBX 11 12 6 0
BITMAP
0F80
30C0
6060
6020
C000
C000
C000
C000
6020
6060
30C0
0F80
ENDCHAR
STARTCHAR FF44
ENCODING 9060
SWIDTH 2400 0
DWIDTH 24 0
BBX 10 16 7 0
BITMAP
00C0
00C0
00C0
00C0
1EC0
73C0
61C0
C0C0
C0C0
C0C0
C0C0
C0C0
C0C0
61C0
72C0
1CC0
ENDCHAR
STARTCHAR FF45
ENCODING 9061
SWIDTH 2400 0
DWIDTH 24 0
BBX 10 12 7 0
BITMAP
1E00
6180
40C0
8040
8040
FFC0
8000
8000
C040
40C0
6180
1F00
ENDCHAR
STARTCHAR FF46
ENCODING 9062
SWIDTH 2400 0
DWIDTH 24 0
BBX 9 15 7 0
BITMAP
0F80
1880
1800
1800
1800
FF80
1800
1800
1800
1800
1800
1800
1800
1800
1800
ENDCHAR
STARTCHAR FF47
ENCODING 9063
SWIDTH 2400 0
DWIDTH 24 0
BBX 11 15 6 -3
BITMAP
1E60
71E0
60E0
C060
C060
C060
C060
C060
60E0
31E0
1F60
0060
0040
E180
3F00
ENDCHAR
STARTCHAR FF48
ENCODING 9064
SWIDTH 2400 0
DWIDTH 24 0
BBX 10 16 7 0
BITMAP
C000
C000
C000
C000
DF00
E180
C0C0
C0C0
C0C0
C0C0
C0C0
C0C0
C0C0
C0C0
C0C0
C0C0
ENDCHAR
STARTCHAR FF49
ENCODING 9065
SWIDTH 2400 0
DWIDTH 24 0
BBX 2 17 11 0
BITMAP
C0
00
00
00
C0
C0
C0
C0
C0
C0
C0
C0
C0
C0
C0
C0
C0
ENDCHAR
STARTCHAR FF4A
ENCODING 9066
SWIDTH 2400 0
DWIDTH 24 0
BBX 8 20 6 -3
BITMAP
03
00
00
00
03
03
03
03
03
03
03
03
03
03
03
03
03
03
06
FC
ENDCHAR
STARTCHAR FF4B
ENCODING 9067
SWIDTH 2400 0
DWIDTH 24 0
BBX 9 16 8 0
BITMAP
C000
C000
C000
C100
C300
C600
D800
F000
E000
F000
D800
CC00
C600
C300
C100
C180
ENDCHAR
STARTCHAR FF4C
ENCODING 9068
SWIDTH 2400 0
DWIDTH 24 0
BBX 2 16 11 0
BITMAP
C0
C0
C0
C0
C0
C0
C0
C0
C0
C0
C0
C0
C0
C0
C0
C0
ENDCHAR
STARTCHAR FF4D
ENCODING 9069
SWIDTH 2400 0
DWIDTH 24 0
BBX 15 13 5 0
BITMAP
B878
EFDC
C306
C306
C306
C306
C306
C306
C306
C306
C306
C306
C306
ENDCHAR
STARTCHAR FF4E
ENCODING 9070
SWIDTH 2400 0
DWIDTH 24 0
BBX 9 13 7 0
BITMAP
8C00
FF00
E100
C180
C180
C180
C180
C180
C180
C180
C180
C180
C180
ENDCHAR
STARTCHAR FF4F
ENCODING 9071
SWIDTH 2400 0
DWIDTH 24 0
BBX 12 13 6 0
BITMAP
1F80
30C0
6060
4060
C030
C030
C030
C030
C030
6060
6060
30C0
1F00
ENDCHAR
STARTCHAR FF50
ENCODING 9072
SWIDTH 2400 0
DWIDTH 24 0
BBX 10 16 7 -3
BITMAP
8000
BE00
E300
C180
C0C0
C0C0
C0C0
C0C0
C0C0
C0C0
E180
F380
DE00
C000
C000
C000
ENDCHAR
STARTCHAR FF51
ENCODING 9073
SWIDTH 2400 0
DWIDTH 24 0
BBX 11 15 6 -3
BITMAP
1F60
71E0
60E0
C060
C060
C060
C060
C060
C060
60E0
3BE0
1E60
0060
0060
0060
ENDCHAR
STARTCHAR FF52
ENCODING 9074
SWIDTH 2400 0
DWIDTH 24 0
BBX 9 13 9 0
BITMAP
4E00
FF00
E180
C000
C000
C000
C000
C000
C000
C000
C000
C000
C000
ENDCHAR
STARTCHAR FF53
ENCODING 9075
SWIDTH 2400 0
DWIDTH 24 0
BBX 10 13 7 0
BITMAP
1E00
7F00
4180
4080
4000
7000
1E00
0380
0080
C0C0
40C0
6180
3F00
ENDCHAR
STARTCHAR FF54
ENCODING 9076
SWIDTH 2400 0
DWIDTH 24 0
BBX 9 16 8 0
BITMAP
3000
3000
3000
3000
FF00
3000
3000
3000
3000
3000
3000
3000
3000
3080
1B80
0E00
ENDCHAR
STARTCHAR FF55
ENCODING 9077
SWIDTH 2400 0
DWIDTH 24 0
BBX 10 13 7 0
BITMAP
C040
C0C0
C0C0
C0C0
C0C0
C0C0
C0C0
C0C0
C0C0
C0C0
C1C0
63C0
3E40
ENDCHAR
STARTCHAR FF56
ENCODING 9078
SWIDTH 2400 0
DWIDTH 24 0
BBX 10 13 7 0
BITMAP
8040
8040
80C0
C080
4080
6180
2100
2300
3200
1200
1E00
0C00
0C00
ENDCHAR
STARTCHAR FF57
ENCODING 9079
SWIDTH 2400 0
DWIDTH 24 0
BBX 16 13 4 0
BITMAP
8101
8181
C183
42C2
4242
4246
6644
2464
2424
342C
1828
1818
1810
ENDCHAR
STARTCHAR FF58
ENCODING 9080
SWIDTH 2400 0
DWIDTH 24 0
BBX 11 13 7 0
BITMAP
C0C0
6080
2100
3300
1E00
0C00
0E00
1A00
3300
6180
40C0
8060
8000
ENDCHAR
STARTCHAR FF59
ENCODING 9081
SWIDTH 2400 0
DWIDTH 24 0
BBX 11 16 6 -3
BITMAP
4020
4060
6040
20C0
3080
1080
1980
0900
0900
0F00
0600
0600
0400
0400
0800
F800
ENDCHAR
STARTCHAR FF5A
ENCODING 9082
SWIDTH 2400 0
DWIDTH 24 0
BBX 10 13 7 0
BITMAP
FF80
0180
0180
0300
0600
0C00
0C00
1800
3000
6000
6000
C000
FFC0
ENDCHAR
STARTCHAR FF5B
ENCODING 9083
SWIDTH 2400 0
DWIDTH 24 0
BBX 7 21 9 -3
BITMAP
1E
38
30
30
30
30
30
30
30
30
E0
70
30
30
30
30
30
30
30
38
0E
ENDCHAR
STARTCHAR FF5C
ENCODING 9084
SWIDTH 2400 0
DWIDTH 24 0
BBX 2 20 11 -2
BITMAP
C0
C0
C0
C0
C0
C0
C0
C0
C0
C0
C0
C0
C0
C0
C0
C0
C0
C0
C0
C0
ENDCHAR
STARTCHAR FF5D
ENCODING 9085
SWIDTH 2400 0
DWIDTH 24 0
BBX 7 21 8 -3
BITMAP
E0
18
18
18
18
18
18
08
08
18
0E
1C
18
18
18
18
18
18
18
38
E0
ENDCHAR
STARTCHAR FFE3
ENCODING 9086
SWIDTH 2400 0
DWIDTH 24 0
BBX 13 1 6 7
BITMAP
FFF8
ENDCHAR
STARTCHAR 3131
ENCODING 9249
SWIDTH 2400 0
DWIDTH 24 0
BBX 14 12 4 0
BITMAP
FFFC
000C
000C
000C
000C
000C
000C
000C
000C
000C
000C
000C
ENDCHAR
STARTCHAR 3132
ENCODING 9250
SWIDTH 2400 0
DWIDTH 24 0
BBX 15 12 4 0
BITMAP
FFFE
0206
0206
0206
0206
0206
0206
0206
0206
0206
0206
0206
ENDCHAR
STARTCHAR 3133
ENCODING 9251
SWIDTH 2400 0
DWIDTH 24 0
BBX 17 12 3 0
BITMAP
FF1800
031800
031800
031800
031800
031800
033C00
032400
032600
034300
03C180
038080
ENDCHAR
STARTCHAR 3134
ENCODING 9252
SWIDTH 2400 0
DWIDTH 24 0
BBX 15 12 5 0
BITMAP
C000
C000
C000
C000
C000
C000
C000
C000
C000
C000
C000
FFFE
ENDCHAR
STARTCHAR 3135
ENCODING 9253
SWIDTH 2400 0
DWIDTH 24 0
BBX 17 12 4 0
BITMAP
C1FF80
C01800
C01800
C01800
C01800
C03C00
C02C00
C06600
C04200
C0C300
CF8180
F90080
ENDCHAR
STARTCHAR 3136
ENCODING 9254
SWIDTH 2400 0
DWIDTH 24 0
BBX 17 13 4 -1
BITMAP
C07C00
C00000
C00000
C3FF80
C00000
C00000
C07C00
C0C200
C18200
C18200
DF8200
F8C200
007C00
ENDCHAR
STARTCHAR 3137
ENCODING 9255
SWIDTH 2400 0
DWIDTH 24 0
BBX 14 12 5 0
BITMAP
FFFC
C000
C000
C000
C000
C000
C000
C000
C000
C000
C000
FFFC
ENDCHAR
STARTCHAR 3138
ENCODING 9256
SWIDTH 2400 0
DWIDTH 24 0
BBX 17 12 4 0
BITMAP
FF7F00
C04000
C04000
C04000
C04000
C04000
C04000
C04000
C04000
C34000
FE4000
E07F80
ENDCHAR
STARTCHAR 3139
ENCODING 9257
SWIDTH 2400 0
DWIDTH 24 0
BBX 15 12 4 0
BITMAP
FFFC
000C
000C
000C
000C
3FFC
2000
2000
2000
2000
2000
3FFE
ENDCHAR
STARTCHAR 313A
ENCODING 9258
SWIDTH 2400 0
DWIDTH 24 0
BBX 17 12 3 0
BITMAP
FF7F80
030180
030180
030180
030180
FF0180
C00180
C00180
C00180
C00180
C78180
FC0180
ENDCHAR
STARTCHAR 313B
ENCODING 9259
SWIDTH 2400 0
DWIDTH 24 0
BBX 17 12 3 0
BITMAP
FE3F80
023180
023180
023180
023180
7E3180
603180
603180
603180
603180
63F180
7F3F80
ENDCHAR
STARTCHAR 313C
ENCODING 9260
SWIDTH 2400 0
DWIDTH 24 0
BBX 17 12 3 0
BITMAP
7F0180
012180
012180
012180
012180
FF3F80
C02180
C02180
C03180
C03180
C73180
FE3F80
ENDCHAR
STARTCHAR 313D
ENCODING 9261
SWIDTH 2400 0
DWIDTH 24 0
BBX 18 12 3 0
BITMAP
FE0C00
060C00
060C00
060C00
060C00
FE0C00
C01E00
C01200
C01300
C02180
C760C0
FCC040
ENDCHAR
STARTCHAR 313E
ENCODING 9262
SWIDTH 2400 0
DWIDTH 24 0
BBX 18 12 3 0
BITMAP
FF3FC0
033000
033000
033000
033000
FF3F80
C03000
C03000
C03000
C03000
C7B000
FE3FC0
ENDCHAR
STARTCHAR 313F
ENCODING 9263
SWIDTH 2400 0
DWIDTH 24 0
BBX 19 12 2 0
BITMAP
FF7FE0
030000
030000
033080
033080
7F1180
601180
601100
601100
601900
679900
7E7FE0
ENDCHAR
STARTCHAR 3140
ENCODING 9264
SWIDTH 2400 0
DWIDTH 24 0
BBX 18 13 3 -1
BITMAP
FE3F00
060000
060000
06FFC0
060000
FE0000
C01F00
C02180
C040C0
C040C0
C740C0
FC2180
001F00
ENDCHAR
STARTCHAR 3141
ENCODING 9265
SWIDTH 2400 0
DWIDTH 24 0
BBX 12 12 6 0
BITMAP
FFF0
8010
8010
8010
8010
8010
8010
8010
8010
8010
8010
FFF0
ENDCHAR
STARTCHAR 3142
ENCODING 9266
SWIDTH 2400 0
DWIDTH 24 0
BBX 12 12 6 0
BITMAP
8030
8030
8030
8030
8030
FFF0
8030
8030
8030
8030
8030
FFF0
ENDCHAR
STARTCHAR 3143
ENCODING 9267
SWIDTH 2400 0
DWIDTH 24 0
BBX 16 12 4 0
BITMAP
C663
C663
C663
C663
C663
FE7F
C663
C663
C663
C663
C663
FE7F
ENDCHAR
STARTCHAR 3144
ENCODING 9268
SWIDTH 2400 0
DWIDTH 24 0
BBX 18 12 3 0
BITMAP
400C00
C30C00
C30C00
C30C00
C30C00
FF0C00
C31E00
C31200
C31300
C32180
C360C0
FFC040
ENDCHAR
STARTCHAR 3145
ENCODING 9269
SWIDTH 2400 0
DWIDTH 24 0
BBX 16 12 4 0
BITMAP
0180
0180
0180
0180
0180
03C0
0240
0620
0C30
181C
700E
C003
ENDCHAR
STARTCHAR 3146
ENCODING 9270
SWIDTH 2400 0
DWIDTH 24 0
BBX 18 13 3 -1
BITMAP
0C0C00
0C0C00
0C0C00
0C0C00
0C0C00
0C0C00
1E1E00
121A00
331300
61B100
406180
80C0C0
008000
ENDCHAR
STARTCHAR 3147
ENCODING 9271
SWIDTH 2400 0
DWIDTH 24 0
BBX 14 12 5 0
BITMAP
0FC0
3030
4008
800C
8004
8004
8004
8004
C00C
4008
3030
0FC0
ENDCHAR
STARTCHAR 3148
ENCODING 9272
SWIDTH 2400 0
DWIDTH 24 0
BBX 15 12 4 0
BITMAP
FFFE
0100
0180
0180
0380
02C0
0640
0C60
0830
3018
600E
4002
ENDCHAR
STARTCHAR 3149
ENCODING 9273
SWIDTH 2400 0
DWIDTH 24 0
BBX 18 12 3 0
BITMAP
7FFFC0
0C0C00
0C0C00
0C0C00
0C0C00
1E1E00
121200
131300
21A100
60E180
C0C0C0
808040
ENDCHAR
STARTCHAR 314A
ENCODING 9274
SWIDTH 2400 0
DWIDTH 24 0
BBX 15 12 4 0
BITMAP
0FF0
0000
0000
7FFE
0100
0180
0280
0640
0C60
1830
F00E
8002
ENDCHAR
STARTCHAR 314B
ENCODING 9275
SWIDTH 2400 0
DWIDTH 24 0
BBX 15 12 4 0
BITMAP
FFFE
0006
0006
0006
0006
0024
FFE4
0004
0004
000C
0008
0008
ENDCHAR
STARTCHAR 314C
ENCODING 9276
SWIDTH 2400 0
DWIDTH 24 0
BBX 14 12 5 0
BITMAP
FFFC
C000
C000
C000
C000
FFFC
C000
C000
C000
C000
C000
FFFC
ENDCHAR
STARTCHAR 314D
ENCODING 9277
SWIDTH 2400 0
DWIDTH 24 0
BBX 16 12 4 0
BITMAP
7FFE
0000
0000
0000
0810
0810
0810
0810
0830
0830
0C20
FFFF
ENDCHAR
STARTCHAR 314E
ENCODING 9278
SWIDTH 2400 0
DWIDTH 24 0
BBX 15 14 4 -1
BITMAP
1FF0
0000
0000
0000
FFFE
0000
07C0
1C30
3008
3008
3008
3008
1C30
07C0
ENDCHAR
STARTCHAR 314F
ENCODING 9279
SWIDTH 2400 0
DWIDTH 24 0
BBX 8 20 9 -4
BITMAP
C0
C0
C0
C0
C0
C0
C0
C0
C0
FF
C0
C0
C0
C0
C0
C0
C0
C0
C0
C0
ENDCHAR
STARTCHAR 3150
ENCODING 9280
SWIDTH 2400 0
DWIDTH 24 0
BBX 7 20 8 -4
BITMAP
C6
C6
C6
C6
C6
C6
C6
C6
C6
FE
C6
C6
C6
C6
C6
C6
C6
C6
C6
06
ENDCHAR
STARTCHAR 3151
ENCODING 9281
SWIDTH 2400 0
DWIDTH 24 0
BBX 7 20 10 -4
BITMAP
C0
C0
C0
C0
C0
C0
FE
C0
C0
C0
C0
C0
FE
C0
C0
C0
C0
C0
C0
C0
ENDCHAR
STARTCHAR 3152
ENCODING 9282
SWIDTH 2400 0
DWIDTH 24 0
BBX 7 20 8 -4
BITMAP
C6
C6
C6
C6
C6
C6
FE
C6
C6
C6
C6
FE
C6
C6
C6
C6
C6
C6
C6
06
ENDCHAR
STARTCHAR 3153
ENCODING 9283
SWIDTH 2400 0
DWIDTH 24 0
BBX 9 20 6 -4
BITMAP
0180
0180
0180
0180
0180
0180
0180
0180
0180
FF80
0180
0180
0180
0180
0180
0180
0180
0180
0180
0180
ENDCHAR
STARTCHAR 3154
ENCODING 9284
SWIDTH 2400 0
DWIDTH 24 0
BBX 12 20 4 -4
BITMAP
0030
0330
0330
0330
0330
0330
0330
0330
0330
FF30
0330
0330
0330
0330
0330
0330
0330
0330
0330
0030
ENDCHAR
STARTCHAR 3155
ENCODING 9285
SWIDTH 2400 0
DWIDTH 24 0
BBX 9 21 6 -4
BITMAP
0180
0180
0180
0180
0180
0180
0180
FF80
0180
0180
0180
0180
0180
FF80
0180
0180
0180
0180
0180
0180
0180
ENDCHAR
STARTCHAR 3156
ENCODING 9286
SWIDTH 2400 0
DWIDTH 24 0
BBX 11 20 5 -4
BITMAP
0020
0620
0620
0620
0620
0620
FE20
0620
0620
0620
0620
0620
FE20
0620
0620
0620
0620
0620
0020
0020
ENDCHAR
STARTCHAR 3157
ENCODING 9287
SWIDTH 2400 0
DWIDTH 24 0
BBX 19 11 2 1
BITMAP
004000
004000
004000
004000
004000
004000
004000
004000
004000
004000
FFFFE0
ENDCHAR
STARTCHAR 3158
ENCODING 9288
SWIDTH 2400 0
DWIDTH 24 0
BBX 19 21 2 -4
BITMAP
000600
000600
000600
000600
000600
030600
030600
030600
030600
030600
0307E0
030600
030600
030E00
FFFE00
FE0600
000600
000600
000600
000600
000600
ENDCHAR
STARTCHAR 3159
ENCODING 9289
SWIDTH 2400 0
DWIDTH 24 0
BBX 17 21 2 -4
BITMAP
000180
001980
001980
001980
001980
061980
061980
061980
061980
061980
061980
061F80
061980
07F980
FF9980
001980
001980
001980
001980
001980
000180
ENDCHAR
STARTCHAR 315A
ENCODING 9290
SWIDTH 2400 0
DWIDTH 24 0
BBX 16 20 3 -4
BITMAP
0003
0003
0003
0003
0003
0303
0303
0303
0303
0303
0303
0303
031F
3FF3
F003
0003
0003
0003
0003
0003
ENDCHAR
STARTCHAR 315B
ENCODING 9291
SWIDTH 2400 0
DWIDTH 24 0
BBX 19 11 2 1
BITMAP
000400
020400
020400
020C00
020C00
020C00
020C00
020800
020800
020800
FFFFE0
ENDCHAR
STARTCHAR 315C
ENCODING 9292
SWIDTH 2400 0
DWIDTH 24 0
BBX 19 16 2 -3
BITMAP
FFFFE0
004000
004000
004000
004000
004000
004000
004000
004000
004000
004000
004000
004000
004000
004000
004000
ENDCHAR
STARTCHAR 315D
ENCODING 9293
SWIDTH 2400 0
DWIDTH 24 0
BBX 16 21 3 -4
BITMAP
0003
0003
0003
0003
0003
0003
0FFF
FF83
0303
0303
0303
037F
0303
0303
0303
0303
0303
0303
0303
0003
0003
ENDCHAR
STARTCHAR 315E
ENCODING 9294
SWIDTH 2400 0
DWIDTH 24 0
BBX 17 20 2 -4
BITMAP
000980
000980
000980
000980
000980
002980
FFE980
060980
060980
060980
06F980
060980
060980
060980
060980
060980
060980
000980
000980
000180
ENDCHAR
STARTCHAR 315F
ENCODING 9295
SWIDTH 2400 0
DWIDTH 24 0
BBX 15 20 3 -4
BITMAP
0006
0006
0006
0006
0006
0006
03FE
FFFE
0106
0106
0106
0106
0106
0106
0106
0106
0106
0106
0006
0006
ENDCHAR
STARTCHAR 3160
ENCODING 9296
SWIDTH 2400 0
DWIDTH 24 0
BBX 19 16 2 -3
BITMAP
FFFFE0
030400
030400
030400
030400
030400
030400
030400
030400
030400
030400
030400
030400
030400
030400
030400
ENDCHAR
STARTCHAR 3161
ENCODING 9297
SWIDTH 2400 0
DWIDTH 24 0
BBX 18 1 3 6
BITMAP
FFFFC0
ENDCHAR
STARTCHAR 3162
ENCODING 9298
SWIDTH 2400 0
DWIDTH 24 0
BBX 16 20 2 -4
BITMAP
0003
0003
0003
0003
0003
0003
0003
0003
0003
0003
0007
03FF
FF03
0003
0003
0003
0003
0003
0003
0003
ENDCHAR
STARTCHAR 3163
ENCODING 9299
SWIDTH 2400 0
DWIDTH 24 0
BBX 1 21 11 -4
BITMAP
80
80
80
80
80
80
80
80
80
80
80
80
80
80
80
80
80
80
80
80
80
ENDCHAR
STARTCHAR 3164
ENCODING 9300
SWIDTH 2400 0
DWIDTH 24 0
BBX 0 0 0 0
BITMAP
ENDCHAR
STARTCHAR 3165
ENCODING 9301
SWIDTH 2400 0
DWIDTH 24 0
BBX 18 12 3 0
BITMAP
006000
C06000
C06000
C06000
C06000
C06000
C06000
C06000
C06000
C16000
FF6000
F87FC0
ENDCHAR
STARTCHAR 3166
ENCODING 9302
SWIDTH 2400 0
DWIDTH 24 0
BBX 18 12 3 0
BITMAP
C00000
C07F80
C06000
C06000
C06000
C06000
C06000
C06000
C06000
C36000
FE6000
007FC0
ENDCHAR
STARTCHAR 3167
ENCODING 9303
SWIDTH 2400 0
DWIDTH 24 0
BBX 18 12 3 0
BITMAP
000C00
C00C00
C00C00
C00C00
C00C00
C00C00
C01A00
C01200
C01100
C02080
FE40C0
FC0040
ENDCHAR
STARTCHAR 3168
ENCODING 9304
SWIDTH 2400 0
DWIDTH 24 0
BBX 17 12 3 0
BITMAP
C00000
C00800
C01C00
C01C00
C01400
C03600
C02200
C02300
C06100
C24100
FE4180
00FF80
ENDCHAR
STARTCHAR 3169
ENCODING 9305
SWIDTH 2400 0
DWIDTH 24 0
BBX 19 12 3 0
BITMAP
000300
FBE300
086300
086300
086300
F86300
C06680
C06480
C064C0
C26C40
FE6860
006000
ENDCHAR
STARTCHAR 316A
ENCODING 9306
SWIDTH 2400 0
DWIDTH 24 0
BBX 18 11 3 0
BITMAP
FF3FC0
033000
033000
033000
7F3000
603000
603000
603000
603000
61F000
7F3FC0
ENDCHAR
STARTCHAR 316B
ENCODING 9307
SWIDTH 2400 0
DWIDTH 24 0
BBX 19 12 3 0
BITMAP
003000
FF3300
0F3300
0F3300
0F3300
7FF300
433380
433680
433480
433440
7F3840
03F820
ENDCHAR
STARTCHAR 316C
ENCODING 9308
SWIDTH 2400 0
DWIDTH 24 0
BBX 17 12 4 0
BITMAP
001000
FE1800
021800
023C00
023400
FE2400
C06600
C04200
C04300
C0C100
C0C100
FFFF80
ENDCHAR
STARTCHAR 316D
ENCODING 9309
SWIDTH 2400 0
DWIDTH 24 0
BBX 18 11 3 0
BITMAP
FEFFC0
020000
020000
021E00
FE2100
C04080
C04080
C04080
C04080
CFA100
FE1E00
ENDCHAR
STARTCHAR 316E
ENCODING 9310
SWIDTH 2400 0
DWIDTH 24 0
BBX 17 12 3 0
BITMAP
002080
FF2080
C32080
C32080
C32080
C33F80
C32080
C32080
C32080
C32080
C32080
FF3F80
ENDCHAR
STARTCHAR 316F
ENCODING 9311
SWIDTH 2400 0
DWIDTH 24 0
BBX 18 12 3 0
BITMAP
000C00
FF0C00
C30C00
C30C00
C30C00
C30C00
C31A00
C31200
C31100
C32180
C340C0
FF0040
ENDCHAR
STARTCHAR 3170
ENCODING 9312
SWIDTH 2400 0
DWIDTH 24 0
BBX 18 12 3 0
BITMAP
000400
FF0C00
C30C00
C30E00
C31A00
C31200
C31300
C33100
C32180
C32080
C36080
FF7FC0
ENDCHAR
STARTCHAR 3171
ENCODING 9313
SWIDTH 2400 0
DWIDTH 24 0
BBX 11 17 6 -3
BITMAP
FFE0
C060
C060
C060
C060
C060
C060
FFE0
0000
0000
1F80
2040
4020
4020
4020
2040
1F80
ENDCHAR
STARTCHAR 3172
ENCODING 9314
SWIDTH 2400 0
DWIDTH 24 0
BBX 16 12 4 0
BITMAP
8600
86FF
8603
8603
8603
FE03
8603
8603
8603
8603
8603
FE03
ENDCHAR
STARTCHAR 3173
ENCODING 9315
SWIDTH 2400 0
DWIDTH 24 0
BBX 17 12 3 0
BITMAP
C30000
C37F80
C36000
C36000
C36000
FF6000
C36000
C36000
C36000
C36000
C36000
FF7F80
ENDCHAR
STARTCHAR 3174
ENCODING 9316
SWIDTH 2400 0
DWIDTH 24 0
BBX 17 12 3 0
BITMAP
CC0000
CCCF80
CCC080
CCC080
CCC080
FCC080
CCE080
CDA080
CD2080
CD1080
CE1080
FE0880
ENDCHAR
STARTCHAR 3175
ENCODING 9317
SWIDTH 2400 0
DWIDTH 24 0
BBX 18 12 3 0
BITMAP
CCC000
CCC7C0
CCC400
CCC400
CCC400
FCC400
CCA400
CD2400
CD3400
CF1400
CE1C00
FC07C0
ENDCHAR
STARTCHAR 3176
ENCODING 9318
SWIDTH 2400 0
DWIDTH 24 0
BBX 18 12 3 0
BITMAP
C30000
C3FFC0
C30C00
C30C00
C30C00
FF0C00
C31E00
C31200
C33300
C36180
C34080
FF80C0
ENDCHAR
STARTCHAR 3177
ENCODING 9319
SWIDTH 2400 0
DWIDTH 24 0
BBX 17 12 3 0
BITMAP
C30000
C33F80
C32000
C32000
C32000
FF3F00
C32000
C32000
C32000
C32000
C32000
FF3F80
ENDCHAR
STARTCHAR 3178
ENCODING 9320
SWIDTH 2400 0
DWIDTH 24 0
BBX 11 18 6 -3
BITMAP
C000
C060
C060
C060
FFE0
C060
C060
C060
FFE0
0000
0000
1F80
2040
4020
4020
4020
2040
1F80
ENDCHAR
STARTCHAR 3179
ENCODING 9321
SWIDTH 2400 0
DWIDTH 24 0
BBX 14 19 5 -3
BITMAP
CD8C
CD8C
CD8C
CD8C
FDFC
CD8C
CD8C
CD8C
CD8C
FDFC
0000
0000
0FC0
1020
2010
2010
2010
1020
0FC0
ENDCHAR
STARTCHAR 317A
ENCODING 9322
SWIDTH 2400 0
DWIDTH 24 0
BBX 16 12 4 0
BITMAP
1800
18FF
1803
1803
1803
1803
3403
2603
6203
4103
8183
0083
ENDCHAR
STARTCHAR 317B
ENCODING 9323
SWIDTH 2400 0
DWIDTH 24 0
BBX 19 12 2 0
BITMAP
003000
0C3000
0C3000
0C3000
0C3000
0C3000
1E3000
123000
113000
21B000
60F000
C07FE0
ENDCHAR
STARTCHAR 317C
ENCODING 9324
SWIDTH 2400 0
DWIDTH 24 0
BBX 18 12 3 0
BITMAP
180000
187F80
186000
186000
186000
186000
346000
266000
626000
416000
81E000
007FC0
ENDCHAR
STARTCHAR 317D
ENCODING 9325
SWIDTH 2400 0
DWIDTH 24 0
BBX 18 12 2 0
BITMAP
000040
0C3040
0C3040
0C3040
0C3040
0C3FC0
1E3040
123040
113040
21B040
60F040
C07FC0
ENDCHAR
STARTCHAR 317E
ENCODING 9326
SWIDTH 2400 0
DWIDTH 24 0
BBX 17 12 4 0
BITMAP
180000
19FF80
181800
181800
181800
181800
343C00
262400
626600
40C300
818100
010180
ENDCHAR
STARTCHAR 317F
ENCODING 9327
SWIDTH 2400 0
DWIDTH 24 0
BBX 12 12 6 0
BITMAP
0400
0600
0E00
0B00
1900
1180
3080
2040
6060
4020
C030
FFF0
ENDCHAR
STARTCHAR 3180
ENCODING 9328
SWIDTH 2400 0
DWIDTH 24 0
BBX 17 11 3 0
BITMAP
3C1E00
663300
C36180
C36180
C36180
C36180
C36180
C36180
C36180
663300
3C1E00
ENDCHAR
STARTCHAR 3181
ENCODING 9329
SWIDTH 2400 0
DWIDTH 24 0
BBX 14 16 5 -1
BITMAP
0300
0300
0300
0780
1FE0
7FF8
7038
E01C
C00C
C00C
C00C
C00C
6018
6018
3870
0FC0
ENDCHAR
STARTCHAR 3182
ENCODING 9330
SWIDTH 2400 0
DWIDTH 24 0
BBX 18 13 3 0
BITMAP
180000
180000
180C00
7C0C00
7E0C00
E70C00
C30C00
C31E00
C31200
C31100
422180
6660C0
3CC040
ENDCHAR
STARTCHAR 3183
ENCODING 9331
SWIDTH 2400 0
DWIDTH 24 0
BBX 18 13 3 0
BITMAP
180000
180000
180C00
7C0C00
7E1C00
E31600
C11200
C13300
C12100
C12100
426180
624080
3C7FC0
ENDCHAR
STARTCHAR 3184
ENCODING 9332
SWIDTH 2400 0
DWIDTH 24 0
BBX 15 17 4 -2
BITMAP
7FFC
0000
0000
0820
0820
0820
0820
0C20
FFFE
0000
0000
07C0
1830
1010
1010
1830
07C0
ENDCHAR
STARTCHAR 3185
ENCODING 9333
SWIDTH 2400 0
DWIDTH 24 0
BBX 19 14 2 -1
BITMAP
3F0FC0
000000
000000
FFBFE0
000000
000000
000000
1E0F80
6198C0
409040
409040
409040
6118C0
1E0F80
ENDCHAR
STARTCHAR 3186
ENCODING 9334
SWIDTH 2400 0
DWIDTH 24 0
BBX 17 14 3 -1
BITMAP
FFFF80
000000
000000
000000
000000
000000
03E000
041000
080800
080800
080800
080800
041000
03E000
ENDCHAR
STARTCHAR 3187
ENCODING 9335
SWIDTH 2400 0
DWIDTH 24 0
BBX 19 20 2 -4
BITMAP
000200
000200
000200
006200
0C6200
0C6200
0C6200
0C63E0
0C6200
0C6200
0C6200
0C6200
0C7FE0
7FFE00
FC0200
000200
000200
000200
000200
000200
ENDCHAR
STARTCHAR 3188
ENCODING 9336
SWIDTH 2400 0
DWIDTH 24 0
BBX 16 21 3 -4
BITMAP
0003
0003
0033
0033
0033
1833
1B33
1B3F
1B33
1B33
1B33
1B33
1BFF
FFF3
F033
0033
0033
0033
0033
0033
0003
ENDCHAR
STARTCHAR 3189
ENCODING 9337
SWIDTH 2400 0
DWIDTH 24 0
BBX 16 20 2 -4
BITMAP
0003
0003
0003
0003
0C43
0C43
0C43
0C43
0C43
0C43
0C43
0C43
0C43
FFFF
FC03
0003
0003
0003
0003
0003
ENDCHAR
STARTCHAR 318A
ENCODING 9338
SWIDTH 2400 0
DWIDTH 24 0
BBX 16 20 2 -4
BITMAP
0001
0001
0001
0001
0001
00FD
FFFD
0CC1
0CC1
0CDF
0CC1
0CC1
0CC1
0CDF
0CC1
0CC1
0CC1
0CC1
0001
0001
ENDCHAR
STARTCHAR 318B
ENCODING 9339
SWIDTH 2400 0
DWIDTH 24 0
BBX 17 21 2 -4
BITMAP
000180
000D80
000D80
000D80
000D80
000D80
03ED80
FFCD80
198D80
198D80
19BD80
198D80
198D80
198D80
19BD80
198D80
198D80
198D80
198D80
000D80
000180
ENDCHAR
STARTCHAR 318C
ENCODING 9340
SWIDTH 2400 0
DWIDTH 24 0
BBX 16 20 3 -4
BITMAP
0003
0003
0003
0003
0003
0003
00FF
FFFF
0C63
0C63
0C63
0C63
0C63
0C63
0C63
0C63
0C63
0C63
0003
0003
ENDCHAR
STARTCHAR 318D
ENCODING 9341
SWIDTH 2400 0
DWIDTH 24 0
BBX 3 4 10 4
BITMAP
E0
E0
E0
E0
ENDCHAR
STARTCHAR 318E
ENCODING 9342
SWIDTH 2400 0
DWIDTH 24 0
BBX 10 20 6 -4
BITMAP
0040
0040
0040
0040
0040
0040
0040
0040
E040
E040
E040
E040
0040
0040
0040
0040
0040
0040
0040
0040
ENDCHAR
STARTCHAR 2170
ENCODING 9505
SWIDTH 2400 0
DWIDTH 24 0
BBX 2 18 11 0
BITMAP
C0
00
00
00
00
00
C0
C0
C0
C0
C0
C0
C0
C0
C0
C0
C0
C0
ENDCHAR
STARTCHAR 2171
ENCODING 9506
SWIDTH 2400 0
DWIDTH 24 0
BBX 8 18 8 0
BITMAP
C3
00
00
00
00
00
C3
C3
C3
C3
C3
C3
C3
C3
C3
C3
C3
C3
ENDCHAR
STARTCHAR 2172
ENCODING 9507
SWIDTH 2400 0
DWIDTH 24 0
BBX 12 18 6 0
BITMAP
C630
0000
0000
0000
0000
0000
8630
8630
8630
8630
8630
8630
8630
8630
8630
8630
8630
8630
ENDCHAR
STARTCHAR 2173
ENCODING 9508
SWIDTH 2400 0
DWIDTH 24 0
BBX 11 18 6 0
BITMAP
C000
0000
0000
0000
0000
0000
4820
4C20
4420
4460
4640
4240
4240
4280
4180
4180
4180
4000
ENDCHAR
STARTCHAR 2174
ENCODING 9509
SWIDTH 2400 0
DWIDTH 24 0
BBX 8 12 8 0
BITMAP
81
82
C2
42
44
64
24
28
38
18
10
10
ENDCHAR
STARTCHAR 2175
ENCODING 9510
SWIDTH 2400 0
DWIDTH 24 0
BBX 13 18 5 0
BITMAP
0018
0000
0000
0000
0000
0000
8118
8118
4218
4218
6218
2418
2418
3418
1C18
1818
0818
0818
ENDCHAR
STARTCHAR 2176
ENCODING 9511
SWIDTH 2400 0
DWIDTH 24 0
BBX 15 18 4 0
BITMAP
0066
0000
0000
0000
0000
0000
8226
C626
4426
4426
6426
2C26
2826
2826
3826
1026
1026
1026
ENDCHAR
STARTCHAR 2177
ENCODING 9512
SWIDTH 2400 0
DWIDTH 24 0
BBX 17 18 3 0
BITMAP
00D980
000000
000000
000000
000000
000000
824D80
C64D80
444D80
444D80
444D80
684D80
284D80
284D80
384D80
104D80
104D80
104D80
ENDCHAR
STARTCHAR 2178
ENCODING 9513
SWIDTH 2400 0
DWIDTH 24 0
BBX 12 18 6 0
BITMAP
C000
0000
0000
0000
0000
0000
C410
C420
C220
C240
C140
C180
C180
C1C0
C340
C260
C420
C430
ENDCHAR
STARTCHAR 2179
ENCODING 9514
SWIDTH 2400 0
DWIDTH 24 0
BBX 7 12 8 0
BITMAP
82
C2
44
24
28
10
10
28
2C
44
42
82
ENDCHAR
STARTCHAR 2160
ENCODING 9520
SWIDTH 2400 0
DWIDTH 24 0
BBX 2 17 11 0
BITMAP
C0
C0
C0
C0
C0
C0
C0
C0
C0
C0
C0
C0
C0
C0
C0
C0
C0
ENDCHAR
STARTCHAR 2161
ENCODING 9521
SWIDTH 2400 0
DWIDTH 24 0
BBX 9 17 7 0
BITMAP
C180
C180
C180
C180
C180
C180
C180
C180
C180
C180
C180
C180
C180
C180
C180
C180
C180
ENDCHAR
STARTCHAR 2162
ENCODING 9522
SWIDTH 2400 0
DWIDTH 24 0
BBX 13 17 5 0
BITMAP
C318
C318
C318
C318
C318
C318
C318
C318
C318
C318
C318
C318
C318
C318
C318
C318
C318
ENDCHAR
STARTCHAR 2163
ENCODING 9523
SWIDTH 2400 0
DWIDTH 24 0
BBX 12 17 6 0
BITMAP
D010
D810
C810
C830
CC20
CC20
C420
C440
C640
C240
C240
C280
C380
C180
C180
C100
C100
ENDCHAR
STARTCHAR 2164
ENCODING 9524
SWIDTH 2400 0
DWIDTH 24 0
BBX 9 17 7 0
BITMAP
8080
8080
C080
4180
4100
6100
6100
2300
2200
3200
1600
1400
1C00
0C00
0C00
0800
0800
ENDCHAR
STARTCHAR 2165
ENCODING 9525
SWIDTH 2400 0
DWIDTH 24 0
BBX 12 17 5 0
BITMAP
8090
8110
C110
4110
4110
4210
6210
2210
2210
3610
1410
1410
1C10
1C10
0810
0810
0810
ENDCHAR
STARTCHAR 2166
ENCODING 9526
SWIDTH 2400 0
DWIDTH 24 0
BBX 16 17 3 0
BITMAP
809B
C19B
411B
411B
411B
631B
221B
221B
221B
321B
141B
141B
1C1B
0C1B
081B
081B
081B
ENDCHAR
STARTCHAR 2167
ENCODING 9527
SWIDTH 2400 0
DWIDTH 24 0
BBX 17 17 3 0
BITMAP
826D80
826D80
C26D80
C26D80
466D80
446D80
446D80
646D80
246D80
286D80
286D80
386D80
386D80
186D80
106D80
106D80
106D80
ENDCHAR
STARTCHAR 2168
ENCODING 9528
SWIDTH 2400 0
DWIDTH 24 0
BBX 12 17 6 0
BITMAP
8830
8820
8C20
8440
8640
82C0
8380
8180
8100
8180
8380
8280
8240
8440
8460
8820
8830
ENDCHAR
STARTCHAR 2169
ENCODING 9529
SWIDTH 2400 0
DWIDTH 24 0
BBX 8 17 8 0
BITMAP
81
82
C2
44
64
2C
38
18
10
18
38
2C
64
46
42
82
81
ENDCHAR
STARTCHAR 0391
ENCODING 9537
SWIDTH 2400 0
DWIDTH 24 0
BBX 13 17 5 0
BITMAP
0020
0060
0060
00E0
0160
0260
0270
0430
0830
0830
1030
1030
3FF0
2010
4010
C018
8018
ENDCHAR
STARTCHAR 0392
ENCODING 9538
SWIDTH 2400 0
DWIDTH 24 0
BBX 12 17 6 0
BITMAP
0FC0
0FE0
1810
1010
1010
1010
3030
31E0
3F80
2040
6060
4020
4020
4060
C060
81C0
FF00
ENDCHAR
STARTCHAR 0393
ENCODING 9539
SWIDTH 2400 0
DWIDTH 24 0
BBX 13 17 5 0
BITMAP
0078
07F8
0C00
0800
0800
0800
1800
1000
1000
3000
2000
2000
2000
6000
4000
4000
C000
ENDCHAR
STARTCHAR 0394
ENCODING 9540
SWIDTH 2400 0
DWIDTH 24 0
BBX 13 17 4 0
BITMAP
0030
0030
00F0
00B0
0130
0230
0238
0438
0838
0818
1018
2018
2018
4018
8018
8018
FFF8
ENDCHAR
STARTCHAR 0395
ENCODING 9541
SWIDTH 2400 0
DWIDTH 24 0
BBX 14 17 5 0
BITMAP
07FC
0FF8
0800
0800
1800
1000
1000
1800
3FE0
2000
2000
6000
4000
4000
4000
C000
FFC0
ENDCHAR
STARTCHAR 0396
ENCODING 9542
SWIDTH 2400 0
DWIDTH 24 0
BBX 15 17 4 0
BITMAP
0FFE
0FFC
000C
0018
0030
0060
0040
0080
0180
0300
0600
0C00
0800
1000
3000
6000
FFF0
ENDCHAR
STARTCHAR 0397
ENCODING 9543
SWIDTH 2400 0
DWIDTH 24 0
BBX 15 17 4 0
BITMAP
0002
0802
0802
0802
1804
1004
1004
300C
3FF8
2008
2018
6010
4010
4010
C030
8020
8020
ENDCHAR
STARTCHAR 0398
ENCODING 9544
SWIDTH 2400 0
DWIDTH 24 0
BBX 13 17 5 0
BITMAP
07C0
0830
1018
2008
6008
4008
4008
C008
9FC8
8008
8018
8010
8030
C020
4060
3980
0F00
ENDCHAR
STARTCHAR 0399
ENCODING 9545
SWIDTH 2400 0
DWIDTH 24 0
BBX 4 17 10 0
BITMAP
10
30
30
20
20
20
20
60
40
40
40
40
C0
80
80
80
80
ENDCHAR
STARTCHAR 039A
ENCODING 9546
SWIDTH 2400 0
DWIDTH 24 0
BBX 12 17 6 0
BITMAP
1010
1020
1040
1080
3100
2200
2600
2E00
3200
6300
6100
4100
4080
4080
4040
C040
C060
ENDCHAR
STARTCHAR 039B
ENCODING 9547
SWIDTH 2400 0
DWIDTH 24 0
BBX 11 17 6 0
BITMAP
0080
0180
0180
0280
02C0
04C0
04C0
0840
0840
1840
1040
1060
2060
2060
4020
4020
8020
ENDCHAR
STARTCHAR 039C
ENCODING 9548
SWIDTH 2400 0
DWIDTH 24 0
BBX 16 17 4 0
BITMAP
1002
3807
3806
280A
280A
2812
2C16
6C26
4C24
4444
4444
4484
478C
C70C
C708
8208
8208
ENDCHAR
STARTCHAR 039D
ENCODING 9549
SWIDTH 2400 0
DWIDTH 24 0
BBX 13 17 5 0
BITMAP
0008
1808
1808
1C08
1418
3410
2610
2210
2210
2330
6130
4120
41A0
40A0
40E0
C0E0
8040
ENDCHAR
STARTCHAR 039E
ENCODING 9550
SWIDTH 2400 0
DWIDTH 24 0
BBX 13 17 5 0
BITMAP
0FF8
1FF8
0000
0000
0000
0000
0000
0000
1FE0
0000
0000
0000
0000
0000
0000
0000
FFE0
ENDCHAR
STARTCHAR 039F
ENCODING 9551
SWIDTH 2400 0
DWIDTH 24 0
BBX 13 17 5 0
BITMAP
0380
1FE0
3030
2018
6018
4008
C008
C008
8008
8018
8018
8010
8030
C020
4060
70C0
1F80
ENDCHAR
STARTCHAR 03A0
ENCODING 9552
SWIDTH 2400 0
DWIDTH 24 0
BBX 13 16 5 0
BITMAP
1FF8
1008
3008
2018
2010
2010
2010
6010
4030
4030
4020
4020
4020
C020
8060
8060
ENDCHAR
STARTCHAR 03A1
ENCODING 9553
SWIDTH 2400 0
DWIDTH 24 0
BBX 12 16 6 0
BITMAP
1FC0
1060
3020
2030
2020
2020
2060
7F80
4000
4000
4000
4000
C000
8000
8000
8000
ENDCHAR
STARTCHAR 03A3
ENCODING 9554
SWIDTH 2400 0
DWIDTH 24 0
BBX 13 17 6 0
BITMAP
1FF8
3FF8
1800
0800
0C00
0600
0200
0300
0300
0600
0C00
0800
1000
3000
6000
C000
FFE0
ENDCHAR
STARTCHAR 03A4
ENCODING 9555
SWIDTH 2400 0
DWIDTH 24 0
BBX 12 16 6 0
BITMAP
FFF0
0600
0400
0400
0400
0400
0C00
0C00
0800
0800
0800
0800
1800
1800
1000
1000
ENDCHAR
STARTCHAR 03A5
ENCODING 9556
SWIDTH 2400 0
DWIDTH 24 0
BBX 11 16 7 0
BITMAP
8020
C040
40C0
4180
2100
2200
3600
1400
1800
1800
1000
1000
1000
1000
3000
3000
ENDCHAR
STARTCHAR 03A6
ENCODING 9557
SWIDTH 2400 0
DWIDTH 24 0
BBX 14 17 4 0
BITMAP
0080
0080
07E0
18F8
3088
6084
4184
C184
C184
C104
C104
E304
7308
3F30
1FC0
0400
0400
ENDCHAR
STARTCHAR 03A7
ENCODING 9558
SWIDTH 2400 0
DWIDTH 24 0
BBX 12 17 5 0
BITMAP
1010
0830
0820
0C40
04C0
0580
0300
0200
0700
0500
0900
1080
3080
20C0
4040
C040
8000
ENDCHAR
STARTCHAR 03A8
ENCODING 9559
SWIDTH 2400 0
DWIDTH 24 0
BBX 14 16 5 0
BITMAP
4104
410C
430C
4308
C208
C208
8208
8218
8618
E630
3FE0
0400
0400
0C00
0800
0800
ENDCHAR
STARTCHAR 03A9
ENCODING 9560
SWIDTH 2400 0
DWIDTH 24 0
BBX 15 17 4 0
BITMAP
01C0
0FF0
1808
100C
3006
2006
2006
2006
6006
2004
200C
2008
1010
08E0
0880
0880
F9FC
ENDCHAR
STARTCHAR 03B1
ENCODING 9569
SWIDTH 2400 0
DWIDTH 24 0
BBX 10 13 7 0
BITMAP
1EC0
2380
4180
4180
8080
8180
8180
8100
8100
8300
8300
6D00
3980
ENDCHAR
STARTCHAR 03B2
ENCODING 9570
SWIDTH 2400 0
DWIDTH 24 0
BBX 10 22 8 -4
BITMAP
0200
0F80
1FC0
10C0
20C0
20C0
2180
2300
5C00
5F00
4380
4180
4180
4180
4180
4180
E300
9E00
8000
8000
8000
8000
ENDCHAR
STARTCHAR 03B3
ENCODING 9571
SWIDTH 2400 0
DWIDTH 24 0
BBX 9 18 7 -4
BITMAP
0080
E080
6180
6100
6100
6200
6200
6600
2400
3400
3800
3800
3000
3000
3000
7000
7000
2000
ENDCHAR
STARTCHAR 03B4
ENCODING 9572
SWIDTH 2400 0
DWIDTH 24 0
BBX 11 18 7 0
BITMAP
3FE0
1000
0800
0400
0600
1E00
3300
6180
C180
8080
8080
8080
8080
8100
8100
8200
4400
3800
ENDCHAR
STARTCHAR 03B5
ENCODING 9573
SWIDTH 2400 0
DWIDTH 24 0
BBX 10 13 7 0
BITMAP
1F00
3B80
20C0
60C0
3000
3E00
3E00
6000
C0C0
C080
C080
6180
3F00
ENDCHAR
STARTCHAR 03B6
ENCODING 9574
SWIDTH 2400 0
DWIDTH 24 0
BBX 10 21 7 -3
BITMAP
3FC0
01C0
0180
0300
0600
0400
0C00
1800
3000
2000
4000
C000
8000
8000
C000
7000
1E00
0300
0300
0200
1E00
ENDCHAR
STARTCHAR 03B7
ENCODING 9575
SWIDTH 2400 0
DWIDTH 24 0
BBX 9 17 7 -4
BITMAP
EF00
7180
6080
6080
4080
4080
4180
4100
C100
C100
8100
8100
8300
0300
0200
0200
0200
ENDCHAR
STARTCHAR 03B8
ENCODING 9576
SWIDTH 2400 0
DWIDTH 24 0
BBX 10 18 7 0
BITMAP
0F00
1180
3080
20C0
40C0
4040
C040
C0C0
FF80
8080
8080
8080
8180
8100
8100
8200
4600
3800
ENDCHAR
STARTCHAR 03B9
ENCODING 9577
SWIDTH 2400 0
DWIDTH 24 0
BBX 3 13 10 0
BITMAP
20
20
60
40
40
40
40
40
C0
C0
80
C0
E0
ENDCHAR
STARTCHAR 03BA
ENCODING 9578
SWIDTH 2400 0
DWIDTH 24 0
BBX 11 13 7 0
BITMAP
20E0
2100
2200
2400
6C00
7C00
6400
4400
4600
4200
4200
C300
8100
ENDCHAR
STARTCHAR 03BB
ENCODING 9579
SWIDTH 2400 0
DWIDTH 24 0
BBX 11 18 6 -1
BITMAP
0E00
0300
0300
0300
0300
0300
0700
0700
0B80
0980
1180
1180
2180
2180
6180
41C0
C0E0
8000
ENDCHAR
STARTCHAR 03BC
ENCODING 9580
SWIDTH 2400 0
DWIDTH 24 0
BBX 9 17 7 -4
BITMAP
2080
2080
2080
2080
6080
6180
4180
4100
4100
4300
4300
E580
9980
8000
8000
8000
8000
ENDCHAR
STARTCHAR 03BD
ENCODING 9581
SWIDTH 2400 0
DWIDTH 24 0
BBX 8 13 8 0
BITMAP
C1
C1
C3
C2
C6
44
44
68
68
70
70
60
60
ENDCHAR
STARTCHAR 03BE
ENCODING 9582
SWIDTH 2400 0
DWIDTH 24 0
BBX 10 21 7 -3
BITMAP
7FC0
0C00
1800
1000
1000
1000
1000
0F00
1F00
6000
4000
C000
8000
8000
C000
7000
3C00
0600
0200
0600
3C00
ENDCHAR
STARTCHAR 03BF
ENCODING 9583
SWIDTH 2400 0
DWIDTH 24 0
BBX 9 13 7 0
BITMAP
1F00
3100
6080
4080
4080
C080
8080
8080
8180
8100
4300
6600
3C00
ENDCHAR
STARTCHAR 03C0
ENCODING 9584
SWIDTH 2400 0
DWIDTH 24 0
BBX 11 13 7 0
BITMAP
FFE0
6080
4180
4180
4100
4100
4100
C100
8100
8300
8300
8200
8200
ENDCHAR
STARTCHAR 03C1
ENCODING 9585
SWIDTH 2400 0
DWIDTH 24 0
BBX 10 17 7 -4
BITMAP
0700
1980
10C0
2040
2040
2040
6040
4040
4080
4080
6180
E300
DE00
8000
8000
8000
8000
ENDCHAR
STARTCHAR 03C3
ENCODING 9586
SWIDTH 2400 0
DWIDTH 24 0
BBX 11 13 7 0
BITMAP
1FE0
3180
6080
4080
4080
C080
8080
8080
8080
C100
4100
6200
1C00
ENDCHAR
STARTCHAR 03C4
ENCODING 9587
SWIDTH 2400 0
DWIDTH 24 0
BBX 8 13 8 0
BITMAP
FF
10
10
10
10
10
30
30
30
20
20
34
1C
ENDCHAR
STARTCHAR 03C5
ENCODING 9588
SWIDTH 2400 0
DWIDTH 24 0
BBX 9 13 7 0
BITMAP
2080
6080
6080
4080
4180
4100
4100
4100
C100
8100
8200
C600
7C00
ENDCHAR
STARTCHAR 03C6
ENCODING 9589
SWIDTH 2400 0
DWIDTH 24 0
BBX 12 17 6 -4
BITMAP
1DE0
3A70
2230
6230
4430
C430
C430
C430
C460
C460
44C0
7BC0
1F00
0400
0C00
0800
0800
ENDCHAR
STARTCHAR 03C7
ENCODING 9590
SWIDTH 2400 0
DWIDTH 24 0
BBX 9 16 7 -3
BITMAP
6080
3080
1100
1200
1200
0C00
0C00
0800
0C00
1400
1400
2400
6600
4200
C200
8380
ENDCHAR
STARTCHAR 03C8
ENCODING 9591
SWIDTH 2400 0
DWIDTH 24 0
BBX 14 18 5 -4
BITMAP
4100
610C
6108
6108
6308
4308
4218
4218
4210
4210
C610
4630
75E0
3FC0
0400
0400
0C00
0C00
ENDCHAR
STARTCHAR 03C9
ENCODING 9592
SWIDTH 2400 0
DWIDTH 24 0
BBX 12 13 6 0
BITMAP
1CC0
3060
6030
4030
C210
8610
8430
8430
8430
8420
8C60
D2C0
7180
ENDCHAR
STARTCHAR 2500
ENCODING 9761
SWIDTH 2400 0
DWIDTH 24 0
BBX 24 1 0 7
BITMAP
FFFFFF
ENDCHAR
STARTCHAR 2502
ENCODING 9762
SWIDTH 2400 0
DWIDTH 24 0
BBX 1 24 12 -5
BITMAP
80
80
80
80
80
80
80
80
80
80
80
80
80
80
80
80
80
80
80
80
80
80
80
80
ENDCHAR
STARTCHAR 250C
ENCODING 9763
SWIDTH 2400 0
DWIDTH 24 0
BBX 13 13 12 -5
BITMAP
FFF8
8000
8000
8000
8000
8000
8000
8000
8000
8000
8000
8000
8000
ENDCHAR
STARTCHAR 2510
ENCODING 9764
SWIDTH 2400 0
DWIDTH 24 0
BBX 13 13 0 -5
BITMAP
FFF8
0008
0008
0008
0008
0008
0008
0008
0008
0008
0008
0008
0008
ENDCHAR
STARTCHAR 2518
ENCODING 9765
SWIDTH 2400 0
DWIDTH 24 0
BBX 13 12 0 7
BITMAP
0008
0008
0008
0008
0008
0008
0008
0008
0008
0008
0008
FFF8
ENDCHAR
STARTCHAR 2514
ENCODING 9766
SWIDTH 2400 0
DWIDTH 24 0
BBX 13 12 12 7
BITMAP
8000
8000
8000
8000
8000
8000
8000
8000
8000
8000
8000
FFF8
ENDCHAR
STARTCHAR 251C
ENCODING 9767
SWIDTH 2400 0
DWIDTH 24 0
BBX 13 24 12 -5
BITMAP
8000
8000
8000
8000
8000
8000
8000
8000
8000
8000
8000
FFF8
8000
8000
8000
8000
8000
8000
8000
8000
8000
8000
8000
8000
ENDCHAR
STARTCHAR 252C
ENCODING 9768
SWIDTH 2400 0
DWIDTH 24 0
BBX 25 13 0 -5
BITMAP
FFFFFF80
00080000
00080000
00080000
00080000
00080000
00080000
00080000
00080000
00080000
00080000
00080000
00080000
ENDCHAR
STARTCHAR 2524
ENCODING 9769
SWIDTH 2400 0
DWIDTH 24 0
BBX 13 24 0 -5
BITMAP
0008
0008
0008
0008
0008
0008
0008
0008
0008
0008
0008
FFF8
0008
0008
0008
0008
0008
0008
0008
0008
0008
0008
0008
0008
ENDCHAR
STARTCHAR 2534
ENCODING 9770
SWIDTH 2400 0
DWIDTH 24 0
BBX 25 12 0 7
BITMAP
00080000
00080000
00080000
00080000
00080000
00080000
00080000
00080000
00080000
00080000
00080000
FFFFFF80
ENDCHAR
STARTCHAR 253C
ENCODING 9771
SWIDTH 2400 0
DWIDTH 24 0
BBX 25 24 0 -5
BITMAP
00080000
00080000
00080000
00080000
00080000
00080000
00080000
00080000
00080000
00080000
00080000
FFFFFF80
00080000
00080000
00080000
00080000
00080000
00080000
00080000
00080000
00080000
00080000
00080000
00080000
ENDCHAR
STARTCHAR 2501
ENCODING 9772
SWIDTH 2400 0
DWIDTH 24 0
BBX 24 1 0 7
BITMAP
FFFFFF
ENDCHAR
STARTCHAR 2503
ENCODING 9773
SWIDTH 2400 0
DWIDTH 24 0
BBX 2 24 11 -5
BITMAP
C0
C0
C0
C0
C0
C0
C0
C0
C0
C0
C0
C0
C0
C0
C0
C0
C0
C0
C0
C0
C0
C0
C0
C0
ENDCHAR
STARTCHAR 250F
ENCODING 9774
SWIDTH 2400 0
DWIDTH 24 0
BBX 13 13 11 -5
BITMAP
FFF8
C000
C000
C000
C000
C000
C000
C000
C000
C000
C000
C000
C000
ENDCHAR
STARTCHAR 2513
ENCODING 9775
SWIDTH 2400 0
DWIDTH 24 0
BBX 13 13 0 -5
BITMAP
FFF8
0018
0018
0018
0018
0018
0018
0018
0018
0018
0018
0018
0018
ENDCHAR
STARTCHAR 251B
ENCODING 9776
SWIDTH 2400 0
DWIDTH 24 0
BBX 13 12 0 7
BITMAP
0018
0018
0018
0018
0018
0018
0018
0018
0018
0018
0018
FFF8
ENDCHAR
STARTCHAR 2517
ENCODING 9777
SWIDTH 2400 0
DWIDTH 24 0
BBX 13 12 11 7
BITMAP
C000
C000
C000
C000
C000
C000
C000
C000
C000
C000
C000
FFF8
ENDCHAR
STARTCHAR 2523
ENCODING 9778
SWIDTH 2400 0
DWIDTH 24 0
BBX 13 24 11 -5
BITMAP
C000
C000
C000
C000
C000
C000
C000
C000
C000
C000
C000
FFF8
C000
C000
C000
C000
C000
C000
C000
C000
C000
C000
C000
C000
ENDCHAR
STARTCHAR 2533
ENCODING 9779
SWIDTH 2400 0
DWIDTH 24 0
BBX 24 13 0 -5
BITMAP
FFFFFF
001800
001800
001800
001800
001800
001800
001800
001800
001800
001800
001800
001800
ENDCHAR
STARTCHAR 252B
ENCODING 9780
SWIDTH 2400 0
DWIDTH 24 0
BBX 13 24 0 -5
BITMAP
0018
0018
0018
0018
0018
0018
0018
0018
0018
0018
0018
FFF8
0018
0018
0018
0018
0018
0018
0018
0018
0018
0018
0018
0018
ENDCHAR
STARTCHAR 253B
ENCODING 9781
SWIDTH 2400 0
DWIDTH 24 0
BBX 24 12 0 7
BITMAP
001800
001800
001800
001800
001800
001800
001800
001800
001800
001800
001800
FFFFFF
ENDCHAR
STARTCHAR 254B
ENCODING 9782
SWIDTH 2400 0
DWIDTH 24 0
BBX 24 24 0 -5
BITMAP
001800
001800
001800
001800
001800
001800
001800
001800
001800
001800
001800
FFFFFF
001800
001800
001800
001800
001800
001800
001800
001800
001800
001800
001800
001800
ENDCHAR
STARTCHAR 2520
ENCODING 9783
SWIDTH 2400 0
DWIDTH 24 0
BBX 13 24 11 -5
BITMAP
C000
C000
C000
C000
C000
C000
C000
C000
C000
C000
C000
FFF8
C000
C000
C000
C000
C000
C000
C000
C000
C000
C000
C000
C000
ENDCHAR
STARTCHAR 252F
ENCODING 9784
SWIDTH 2400 0
DWIDTH 24 0
BBX 25 13 0 -5
BITMAP
FFFFFF80
00080000
00080000
00080000
00080000
00080000
00080000
00080000
00080000
00080000
00080000
00080000
00080000
ENDCHAR
STARTCHAR 2528
ENCODING 9785
SWIDTH 2400 0
DWIDTH 24 0
BBX 13 24 0 -5
BITMAP
0018
0018
0018
0018
0018
0018
0018
0018
0018
0018
0018
FFF8
0018
0018
0018
0018
0018
0018
0018
0018
0018
0018
0018
0018
ENDCHAR
STARTCHAR 2537
ENCODING 9786
SWIDTH 2400 0
DWIDTH 24 0
BBX 25 12 0 7
BITMAP
00080000
00080000
00080000
00080000
00080000
00080000
00080000
00080000
00080000
00080000
00080000
FFFFFF80
ENDCHAR
STARTCHAR 253F
ENCODING 9787
SWIDTH 2400 0
DWIDTH 24 0
BBX 25 24 0 -5
BITMAP
00080000
00080000
00080000
00080000
00080000
00080000
00080000
00080000
00080000
00080000
00080000
FFFFFF80
00080000
00080000
00080000
00080000
00080000
00080000
00080000
00080000
00080000
00080000
00080000
00080000
ENDCHAR
STARTCHAR 251D
ENCODING 9788
SWIDTH 2400 0
DWIDTH 24 0
BBX 13 24 12 -5
BITMAP
8000
8000
8000
8000
8000
8000
8000
8000
8000
8000
8000
FFF8
8000
8000
8000
8000
8000
8000
8000
8000
8000
8000
8000
8000
ENDCHAR
STARTCHAR 2530
ENCODING 9789
SWIDTH 2400 0
DWIDTH 24 0
BBX 24 13 0 -5
BITMAP
FFFFFF
001800
001800
001800
001800
001800
001800
001800
001800
001800
001800
001800
001800
ENDCHAR
STARTCHAR 2525
ENCODING 9790
SWIDTH 2400 0
DWIDTH 24 0
BBX 13 24 0 -5
BITMAP
0008
0008
0008
0008
0008
0008
0008
0008
0008
0008
0008
FFF8
0008
0008
0008
0008
0008
0008
0008
0008
0008
0008
0008
0008
ENDCHAR
STARTCHAR 2538
ENCODING 9791
SWIDTH 2400 0
DWIDTH 24 0
BBX 24 12 0 7
BITMAP
001800
001800
001800
001800
001800
001800
001800
001800
001800
001800
001800
FFFFFF
ENDCHAR
STARTCHAR 2542
ENCODING 9792
SWIDTH 2400 0
DWIDTH 24 0
BBX 24 24 0 -5
BITMAP
001800
001800
001800
001800
001800
001800
001800
001800
001800
001800
001800
FFFFFF
001800
001800
001800
001800
001800
001800
001800
001800
001800
001800
001800
001800
ENDCHAR
STARTCHAR 2512
ENCODING 9793
SWIDTH 2400 0
DWIDTH 24 0
BBX 13 13 0 -5
BITMAP
FFF8
0018
0018
0018
0018
0018
0018
0018
0018
0018
0018
0018
0018
ENDCHAR
STARTCHAR 2511
ENCODING 9794
SWIDTH 2400 0
DWIDTH 24 0
BBX 13 13 0 -5
BITMAP
FFF8
0008
0008
0008
0008
0008
0008
0008
0008
0008
0008
0008
0008
ENDCHAR
STARTCHAR 251A
ENCODING 9795
SWIDTH 2400 0
DWIDTH 24 0
BBX 13 12 0 7
BITMAP
0018
0018
0018
0018
0018
0018
0018
0018
0018
0018
0018
FFF8
ENDCHAR
STARTCHAR 2519
ENCODING 9796
SWIDTH 2400 0
DWIDTH 24 0
BBX 13 12 0 7
BITMAP
0008
0008
0008
0008
0008
0008
0008
0008
0008
0008
0008
FFF8
ENDCHAR
STARTCHAR 2516
ENCODING 9797
SWIDTH 2400 0
DWIDTH 24 0
BBX 13 12 11 7
BITMAP
C000
C000
C000
C000
C000
C000
C000
C000
C000
C000
C000
FFF8
ENDCHAR
STARTCHAR 2515
ENCODING 9798
SWIDTH 2400 0
DWIDTH 24 0
BBX 13 12 12 7
BITMAP
8000
8000
8000
8000
8000
8000
8000
8000
8000
8000
8000
FFF8
ENDCHAR
STARTCHAR 250E
ENCODING 9799
SWIDTH 2400 0
DWIDTH 24 0
BBX 13 13 11 -5
BITMAP
FFF8
C000
C000
C000
C000
C000
C000
C000
C000
C000
C000
C000
C000
ENDCHAR
STARTCHAR 250D
ENCODING 9800
SWIDTH 2400 0
DWIDTH 24 0
BBX 13 13 12 -5
BITMAP
FFF8
8000
8000
8000
8000
8000
8000
8000
8000
8000
8000
8000
8000
ENDCHAR
STARTCHAR 251E
ENCODING 9801
SWIDTH 2400 0
DWIDTH 24 0
BBX 13 24 11 -5
BITMAP
C000
C000
C000
C000
C000
C000
C000
C000
C000
C000
C000
FFF8
4000
4000
4000
4000
4000
4000
4000
4000
4000
4000
4000
4000
ENDCHAR
STARTCHAR 251F
ENCODING 9802
SWIDTH 2400 0
DWIDTH 24 0
BBX 13 24 11 -5
BITMAP
4000
4000
4000
4000
4000
4000
4000
4000
4000
4000
4000
7FF8
C000
C000
C000
C000
C000
C000
C000
C000
C000
C000
C000
C000
ENDCHAR
STARTCHAR 2521
ENCODING 9803
SWIDTH 2400 0
DWIDTH 24 0
BBX 13 24 11 -5
BITMAP
C000
C000
C000
C000
C000
C000
C000
C000
C000
C000
C000
FFF8
4000
4000
4000
4000
4000
4000
4000
4000
4000
4000
4000
4000
ENDCHAR
STARTCHAR 2522
ENCODING 9804
SWIDTH 2400 0
DWIDTH 24 0
BBX 13 24 11 -5
BITMAP
4000
4000
4000
4000
4000
4000
4000
4000
4000
4000
4000
7FF8
C000
C000
C000
C000
C000
C000
C000
C000
C000
C000
C000
C000
ENDCHAR
STARTCHAR 2526
ENCODING 9805
SWIDTH 2400 0
DWIDTH 24 0
BBX 13 24 0 -5
BITMAP
0018
0018
0018
0018
0018
0018
0018
0018
0018
0018
0018
FFF8
0008
0008
0008
0008
0008
0008
0008
0008
0008
0008
0008
0008
ENDCHAR
STARTCHAR 2527
ENCODING 9806
SWIDTH 2400 0
DWIDTH 24 0
BBX 13 24 0 -5
BITMAP
0008
0008
0008
0008
0008
0008
0008
0008
0008
0008
0008
FFF8
0018
0018
0018
0018
0018
0018
0018
0018
0018
0018
0018
0018
ENDCHAR
STARTCHAR 2529
ENCODING 9807
SWIDTH 2400 0
DWIDTH 24 0
BBX 13 24 0 -5
BITMAP
0018
0018
0018
0018
0018
0018
0018
0018
0018
0018
0018
FFF8
0008
0008
0008
0008
0008
0008
0008
0008
0008
0008
0008
0008
ENDCHAR
STARTCHAR 252A
ENCODING 9808
SWIDTH 2400 0
DWIDTH 24 0
BBX 13 24 0 -5
BITMAP
0008
0008
0008
0008
0008
0008
0008
0008
0008
0008
0008
FFF8
0018
0018
0018
0018
0018
0018
0018
0018
0018
0018
0018
0018
ENDCHAR
STARTCHAR 252D
ENCODING 9809
SWIDTH 2400 0
DWIDTH 24 0
BBX 25 13 0 -5
BITMAP
FFFFFF80
00080000
00080000
00080000
00080000
00080000
00080000
00080000
00080000
00080000
00080000
00080000
00080000
ENDCHAR
STARTCHAR 252E
ENCODING 9810
SWIDTH 2400 0
DWIDTH 24 0
BBX 25 13 0 -5
BITMAP
FFFFFF80
00080000
00080000
00080000
00080000
00080000
00080000
00080000
00080000
00080000
00080000
00080000
00080000
ENDCHAR
STARTCHAR 2531
ENCODING 9811
SWIDTH 2400 0
DWIDTH 24 0
BBX 24 13 0 -5
BITMAP
FFFFFF
001800
001800
001800
001800
001800
001800
001800
001800
001800
001800
001800
001800
ENDCHAR
STARTCHAR 2532
ENCODING 9812
SWIDTH 2400 0
DWIDTH 24 0
BBX 24 13 0 -5
BITMAP
FFFFFF
001800
001800
001800
001800
001800
001800
001800
001800
001800
001800
001800
001800
ENDCHAR
STARTCHAR 2535
ENCODING 9813
SWIDTH 2400 0
DWIDTH 24 0
BBX 25 12 0 7
BITMAP
00080000
00080000
00080000
00080000
00080000
00080000
00080000
00080000
00080000
00080000
00080000
FFFFFF80
ENDCHAR
STARTCHAR 2536
ENCODING 9814
SWIDTH 2400 0
DWIDTH 24 0
BBX 25 12 0 7
BITMAP
00080000
00080000
00080000
00080000
00080000
00080000
00080000
00080000
00080000
00080000
00080000
FFFFFF80
ENDCHAR
STARTCHAR 2539
ENCODING 9815
SWIDTH 2400 0
DWIDTH 24 0
BBX 24 12 0 7
BITMAP
001800
001800
001800
001800
001800
001800
001800
001800
001800
001800
001800
FFFFFF
ENDCHAR
STARTCHAR 253A
ENCODING 9816
SWIDTH 2400 0
DWIDTH 24 0
BBX 24 12 0 7
BITMAP
001800
001800
001800
001800
001800
001800
001800
001800
001800
001800
001800
FFFFFF
ENDCHAR
STARTCHAR 253D
ENCODING 9817
SWIDTH 2400 0
DWIDTH 24 0
BBX 25 24 0 -5
BITMAP
00080000
00080000
00080000
00080000
00080000
00080000
00080000
00080000
00080000
00080000
00080000
FFFFFF80
00080000
00080000
00080000
00080000
00080000
00080000
00080000
00080000
00080000
00080000
00080000
00080000
ENDCHAR
STARTCHAR 253E
ENCODING 9818
SWIDTH 2400 0
DWIDTH 24 0
BBX 25 24 0 -5
BITMAP
00080000
00080000
00080000
00080000
00080000
00080000
00080000
00080000
00080000
00080000
00080000
FFFFFF80
00080000
00080000
00080000
00080000
00080000
00080000
00080000
00080000
00080000
00080000
00080000
00080000
ENDCHAR
STARTCHAR 2540
ENCODING 9819
SWIDTH 2400 0
DWIDTH 24 0
BBX 24 24 0 -5
BITMAP
001800
001800
001800
001800
001800
001800
001800
001800
001800
001800
001800
FFFFFF
000800
000800
000800
000800
000800
000800
000800
000800
000800
000800
000800
000800
ENDCHAR
STARTCHAR 2541
ENCODING 9820
SWIDTH 2400 0
DWIDTH 24 0
BBX 24 24 0 -5
BITMAP
000800
000800
000800
000800
000800
000800
000800
000800
000800
000800
000800
FFFFFF
001800
001800
001800
001800
001800
001800
001800
001800
001800
001800
001800
001800
ENDCHAR
STARTCHAR 2543
ENCODING 9821
SWIDTH 2400 0
DWIDTH 24 0
BBX 24 24 0 -5
BITMAP
001800
001800
001800
001800
001800
001800
001800
001800
001800
001800
001800
FFFFFF
000800
000800
000800
000800
000800
000800
000800
000800
000800
000800
000800
000800
ENDCHAR
STARTCHAR 2544
ENCODING 9822
SWIDTH 2400 0
DWIDTH 24 0
BBX 24 24 0 -5
BITMAP
001800
001800
001800
001800
001800
001800
001800
001800
001800
001800
001800
FFFFFF
000800
000800
000800
000800
000800
000800
000800
000800
000800
000800
000800
000800
ENDCHAR
STARTCHAR 2545
ENCODING 9823
SWIDTH 2400 0
DWIDTH 24 0
BBX 24 24 0 -5
BITMAP
000800
000800
000800
000800
000800
000800
000800
000800
000800
000800
000800
FFFFFF
001800
001800
001800
001800
001800
001800
001800
001800
001800
001800
001800
001800
ENDCHAR
STARTCHAR 2546
ENCODING 9824
SWIDTH 2400 0
DWIDTH 24 0
BBX 24 24 0 -5
BITMAP
000800
000800
000800
000800
000800
000800
000800
000800
000800
000800
000800
FFFFFF
001800
001800
001800
001800
001800
001800
001800
001800
001800
001800
001800
001800
ENDCHAR
STARTCHAR 2547
ENCODING 9825
SWIDTH 2400 0
DWIDTH 24 0
BBX 24 24 0 -5
BITMAP
001800
001800
001800
001800
001800
001800
001800
001800
001800
001800
001800
FFFFFF
000800
000800
000800
000800
000800
000800
000800
000800
000800
000800
000800
000800
ENDCHAR
STARTCHAR 2548
ENCODING 9826
SWIDTH 2400 0
DWIDTH 24 0
BBX 24 24 0 -5
BITMAP
000800
000800
000800
000800
000800
000800
000800
000800
000800
000800
000800
FFFFFF
001800
001800
001800
001800
001800
001800
001800
001800
001800
001800
001800
001800
ENDCHAR
STARTCHAR 2549
ENCODING 9827
SWIDTH 2400 0
DWIDTH 24 0
BBX 24 24 0 -5
BITMAP
001800
001800
001800
001800
001800
001800
001800
001800
001800
001800
001800
FFFFFF
001800
001800
001800
001800
001800
001800
001800
001800
001800
001800
001800
001800
ENDCHAR
STARTCHAR 254A
ENCODING 9828
SWIDTH 2400 0
DWIDTH 24 0
BBX 24 24 0 -5
BITMAP
001800
001800
001800
001800
001800
001800
001800
001800
001800
001800
001800
FFFFFF
001800
001800
001800
001800
001800
001800
001800
001800
001800
001800
001800
001800
ENDCHAR
STARTCHAR 3395
ENCODING 10017
SWIDTH 2400 0
DWIDTH 24 0
BBX 19 20 2 -2
BITMAP
0001C0
000360
000220
042620
0C2420
082440
082840
084840
104840
104880
10C880
308900
208A20
208C20
211C20
610460
530640
5E0380
400000
800000
ENDCHAR
STARTCHAR 3396
ENCODING 10018
SWIDTH 2400 0
DWIDTH 24 0
BBX 18 18 3 0
BITMAP
000300
000580
000880
000880
001080
BF1080
D12180
912100
912100
912300
912200
912600
912C40
9138C0
917080
915080
911980
910F00
ENDCHAR
STARTCHAR 3397
ENCODING 10019
SWIDTH 2400 0
DWIDTH 24 0
BBX 18 18 3 0
BITMAP
010300
010680
010C80
010880
3D1880
671080
433080
C13100
813100
812100
812200
812600
813C40
8138C0
417080
431080
631980
3D0F00
ENDCHAR
STARTCHAR 2113
ENCODING 10020
SWIDTH 2400 0
DWIDTH 24 0
BBX 8 18 7 0
BITMAP
06
0B
11
31
21
23
42
42
42
44
44
48
59
71
E1
A1
32
1C
ENDCHAR
STARTCHAR 3398
ENCODING 10021
SWIDTH 2400 0
DWIDTH 24 0
BBX 18 18 3 0
BITMAP
C00380
C005C0
C008C0
C018C0
C110C0
C31080
C22180
C42180
C82180
D02300
F02300
F02600
D02C40
C83840
C47040
C65080
C31980
C10F00
ENDCHAR
STARTCHAR 33C4
ENCODING 10022
SWIDTH 2400 0
DWIDTH 24 0
BBX 18 15 3 0
BITMAP
1E0F00
331980
613080
41A0C0
C06000
C06000
C06000
C06000
C06000
C06040
C0E040
40B0C0
61B080
331980
1E0F00
ENDCHAR
STARTCHAR 33A3
ENCODING 10023
SWIDTH 2400 0
DWIDTH 24 0
BBX 19 18 2 0
BITMAP
000040
0000A0
000020
000060
0000A0
BE7EA0
D25240
D25200
D25200
D25200
D25200
D25200
D25200
D25200
D25200
D25200
D25200
D25200
ENDCHAR
STARTCHAR 33A4
ENCODING 10024
SWIDTH 2400 0
DWIDTH 24 0
BBX 20 18 2 0
BITMAP
000020
000050
000010
000020
100050
7CFE70
4E9220
C69200
869200
849200
809200
809200
809200
849200
849200
C49200
6C9200
389200
ENDCHAR
STARTCHAR 33A5
ENCODING 10025
SWIDTH 2400 0
DWIDTH 24 0
BBX 20 18 2 0
BITMAP
000060
000060
000020
000060
000090
DE7CF0
E34E00
C18600
C18600
C18600
C18600
C18600
C18600
C18600
C18600
C18600
C18600
C18600
ENDCHAR
STARTCHAR 33A6
ENCODING 10026
SWIDTH 2400 0
DWIDTH 24 0
BBX 20 18 2 0
BITMAP
C00060
C00050
C00020
C00060
C00090
C4EE70
CCFE00
C89200
D89200
D09200
F09200
F09200
D09200
D89200
C89200
CC9200
C49200
C69200
ENDCHAR
STARTCHAR 3399
ENCODING 10027
SWIDTH 2400 0
DWIDTH 24 0
BBX 18 18 3 0
BITMAP
060000
1F0000
100000
100000
100000
FF5FC0
106640
104440
104440
104440
104440
104440
104440
104440
104440
104440
104440
104440
ENDCHAR
STARTCHAR 339A
ENCODING 10028
SWIDTH 2400 0
DWIDTH 24 0
BBX 18 14 3 0
BITMAP
B80000
E65FC0
C26440
826440
826440
826440
826440
8264C0
8264C0
8264C0
8264C0
8264C0
8264C0
826440
ENDCHAR
STARTCHAR 339B
ENCODING 10029
SWIDTH 2400 0
DWIDTH 24 0
BBX 19 15 2 -2
BITMAP
084FE0
084920
084920
188920
108920
108920
118920
210920
210920
210920
630920
770920
5F0920
C00000
800000
ENDCHAR
STARTCHAR 339C
ENCODING 10030
SWIDTH 2400 0
DWIDTH 24 0
BBX 18 14 3 0
BITMAP
002000
BF3FC0
D12440
D12440
D12440
D12440
D12440
D12440
D12440
D12440
D12440
D12440
D12440
D12440
ENDCHAR
STARTCHAR 339D
ENCODING 10031
SWIDTH 2400 0
DWIDTH 24 0
BBX 19 13 2 0
BITMAP
3E3FE0
662260
632260
C32260
C02260
C02260
C02260
C02260
C1A260
C1A260
61A260
632260
3E2220
ENDCHAR
STARTCHAR 339E
ENCODING 10032
SWIDTH 2400 0
DWIDTH 24 0
BBX 19 18 2 0
BITMAP
C00000
C00000
C00000
C00000
C00000
C35FC0
C26260
C46260
CC6260
C86260
D06260
D06260
D86220
CC6220
C46220
C66260
C36260
C16260
ENDCHAR
STARTCHAR 339F
ENCODING 10033
SWIDTH 2400 0
DWIDTH 24 0
BBX 20 18 2 0
BITMAP
000060
000060
000020
000040
005040
FE7F70
924900
924900
924900
924900
924900
924900
924900
924900
924900
924900
924900
924900
ENDCHAR
STARTCHAR 33A0
ENCODING 10034
SWIDTH 2400 0
DWIDTH 24 0
BBX 20 18 2 0
BITMAP
000060
000050
000030
000060
000040
7CBF70
6CDB00
46DB00
C6DB00
C6DB00
C0DB00
C0DB00
C0DB00
C6DB00
C6DB00
66DB00
6CDB00
3CDB00
ENDCHAR
STARTCHAR 33A1
ENCODING 10035
SWIDTH 2400 0
DWIDTH 24 0
BBX 20 18 2 0
BITMAP
000060
0000D0
000020
000040
000040
DE7C70
E3C600
C18600
C18600
C18600
C18600
C18600
C18600
C18600
C18600
C18600
C18600
C18600
ENDCHAR
STARTCHAR 33A2
ENCODING 10036
SWIDTH 2400 0
DWIDTH 24 0
BBX 20 18 2 0
BITMAP
C00060
C00050
C00020
C00060
C00040
C4B770
CCD900
C89100
D89100
D09100
F09100
E09100
F09100
D09100
C89100
CC9100
C49100
C69100
ENDCHAR
STARTCHAR 33CA
ENCODING 10037
SWIDTH 2400 0
DWIDTH 24 0
BBX 18 18 3 0
BITMAP
800000
800000
800000
800000
880000
BE1F00
C33080
8120C0
8100C0
8101C0
810FC0
811840
813040
833040
833040
833040
8330C0
831F40
ENDCHAR
STARTCHAR 338D
ENCODING 10038
SWIDTH 2400 0
DWIDTH 24 0
BBX 20 17 2 -2
BITMAP
000020
0007E0
084840
08D040
189060
108840
108F80
119000
311800
210FC0
231860
233030
623030
761020
5A0FC0
400000
C00000
ENDCHAR
STARTCHAR 338E
ENCODING 10039
SWIDTH 2400 0
DWIDTH 24 0
BBX 18 15 3 0
BITMAP
000040
000EC0
BE1F80
D23080
922080
922080
921100
922E00
922000
921F00
9221C0
924040
924040
926040
921F80
ENDCHAR
STARTCHAR 338F
ENCODING 10040
SWIDTH 2400 0
DWIDTH 24 0
BBX 18 18 3 0
BITMAP
C00000
C00000
C00000
C000C0
C01F80
C22100
C46080
CC6080
D82180
F03F00
E04000
F03000
D03F00
D86180
CC40C0
C44040
C660C0
C33F00
ENDCHAR
STARTCHAR 33CF
ENCODING 10041
SWIDTH 2400 0
DWIDTH 24 0
BBX 18 18 3 0
BITMAP
C01000
C01800
C01800
C01800
C01800
C11800
C37F80
C61800
CC1800
D81800
D01800
F01800
D81800
C81800
CC1800
C61840
C30CC0
C10700
ENDCHAR
STARTCHAR 3388
ENCODING 10042
SWIDTH 2400 0
DWIDTH 24 0
BBX 19 18 2 0
BITMAP
000020
000020
000020
000020
000020
3C3E20
666220
624320
C20320
C20720
C03F20
C07120
C06120
C24120
C24120
624120
666320
1C3F20
ENDCHAR
STARTCHAR 3389
ENCODING 10043
SWIDTH 2400 0
DWIDTH 24 0
BBX 18 18 3 0
BITMAP
C000C0
C000C0
C000C0
C000C0
C800C0
C99CC0
D262C0
D262C0
F442C0
E446C0
E41AC0
E412C0
E422C0
F462C0
D462C0
D662C0
DAD6C0
C99EC0
ENDCHAR
STARTCHAR 33C8
ENCODING 10044
SWIDTH 2400 0
DWIDTH 24 0
BBX 18 18 3 0
BITMAP
013F00
012080
012040
012040
012040
3F2040
632040
412080
813F00
812080
812040
812040
812040
812040
812040
412040
632080
1D3F00
ENDCHAR
STARTCHAR 33A7
ENCODING 10045
SWIDTH 2400 0
DWIDTH 24 0
BBX 18 19 3 -2
BITMAP
BF8040
C88080
888100
888200
888400
888800
889000
002000
004000
008000
011F00
023080
042000
083000
101F80
2000C0
602040
C030C0
001F80
ENDCHAR
STARTCHAR 33A8
ENCODING 10046
SWIDTH 2400 0
DWIDTH 24 0
BBX 19 20 2 -2
BITMAP
800000
FBC020
8CC040
88C080
88C100
88C200
88C400
88C860
001020
002060
004040
008060
011E00
023100
042000
081E00
100180
202080
403080
001F00
ENDCHAR
STARTCHAR 33B0
ENCODING 10047
SWIDTH 2400 0
DWIDTH 24 0
BBX 18 15 3 -2
BITMAP
9C0F00
E63180
C220C0
812000
813000
811C00
810780
8101C0
810040
C22040
C62040
BC3080
801F00
800000
800000
ENDCHAR
STARTCHAR 33B1
ENCODING 10048
SWIDTH 2400 0
DWIDTH 24 0
BBX 18 14 3 0
BITMAP
1C0000
FF0F00
C33180
8320C0
832000
833000
831C00
810700
8101C0
810040
812040
812040
813080
811F00
ENDCHAR
STARTCHAR 33B2
ENCODING 10049
SWIDTH 2400 0
DWIDTH 24 0
BBX 20 15 2 -2
BITMAP
0847C0
104860
10D820
109800
108C00
208700
2181C0
210060
210030
611830
621830
760C20
5B07C0
C00000
800000
ENDCHAR
STARTCHAR 33B3
ENCODING 10050
SWIDTH 2400 0
DWIDTH 24 0
BBX 19 13 2 0
BITMAP
BB8780
ED9860
C99060
C99000
C99800
C98F00
C983C0
C98060
C98020
C99020
C99020
C99860
C98780
ENDCHAR
STARTCHAR 33B4
ENCODING 10051
SWIDTH 2400 0
DWIDTH 24 0
BBX 18 21 3 -3
BITMAP
004040
004040
006040
0020C0
982080
BC2080
C22080
833080
811180
811100
811100
811900
811900
810B00
C20A00
E60A00
BC0E00
800600
800000
800000
800000
ENDCHAR
STARTCHAR 33B5
ENCODING 10052
SWIDTH 2400 0
DWIDTH 24 0
BBX 18 18 3 0
BITMAP
004040
004040
006040
0020C0
1C2080
F72080
C12080
813080
811180
811100
819100
819900
818900
818B00
818A00
818A00
818E00
818600
ENDCHAR
STARTCHAR 33B6
ENCODING 10053
SWIDTH 2400 0
DWIDTH 24 0
BBX 20 20 2 -2
BITMAP
003010
001020
001020
001020
001820
085860
184840
108840
108840
108C40
1084C0
210480
210480
210480
230680
620380
760300
5A0300
400000
C00000
ENDCHAR
STARTCHAR 33B7
ENCODING 10054
SWIDTH 2400 0
DWIDTH 24 0
BBX 19 18 2 0
BITMAP
002020
003020
003020
001060
801040
FF9040
C89840
C89840
C888C0
C88880
C88880
C88C80
C88480
C88580
C88500
C88700
C88300
C88300
ENDCHAR
STARTCHAR 33B8
ENCODING 10055
SWIDTH 2400 0
DWIDTH 24 0
BBX 19 18 2 0
BITMAP
C02020
C02020
C03020
C01060
C01040
C19040
C31840
C61840
CC08C0
C80880
D00880
D00C80
D80480
CC0580
C60500
C30500
C18700
C08300
ENDCHAR
STARTCHAR 33B9
ENCODING 10056
SWIDTH 2400 0
DWIDTH 24 0
BBX 18 18 3 0
BITMAP
C34040
C36040
C32040
C32040
E520C0
A53080
A53080
A51080
A51080
A51180
A51900
A90900
A90900
B90900
990B00
990E00
990600
910600
ENDCHAR
STARTCHAR 3380
ENCODING 10057
SWIDTH 2400 0
DWIDTH 24 0
BBX 18 21 3 -3
BITMAP
000600
000E00
000E00
000A00
000B00
BC0900
E61900
C31100
811100
811180
811080
813080
813F80
812080
C220C0
C62040
BC6040
800040
800000
800000
800000
ENDCHAR
STARTCHAR 3381
ENCODING 10058
SWIDTH 2400 0
DWIDTH 24 0
BBX 18 18 3 0
BITMAP
000600
000600
000A00
000A00
1C0B00
E60900
821900
821100
821100
821180
821080
823080
823F80
822080
8220C0
822040
826040
824040
ENDCHAR
STARTCHAR 3382
ENCODING 10059
SWIDTH 2400 0
DWIDTH 24 0
BBX 20 20 2 -2
BITMAP
000300
000300
000380
000280
000680
082480
0864C0
1844C0
104440
104C40
10C840
308860
208FE0
208820
219820
611020
531030
4D1000
400000
C00000
ENDCHAR
STARTCHAR 3383
ENCODING 10060
SWIDTH 2400 0
DWIDTH 24 0
BBX 19 18 2 0
BITMAP
000300
000300
000700
000580
000580
BF8480
EC8480
C88C80
C888C0
C888C0
C88840
C88840
C89FC0
C89060
C89020
C89020
C8B020
C88020
ENDCHAR
STARTCHAR 3384
ENCODING 10061
SWIDTH 2400 0
DWIDTH 24 0
BBX 18 18 3 0
BITMAP
C00600
C00E00
C00A00
C00A00
C00B00
C20B00
C41900
CC1100
D81100
F01180
E01180
F03080
D03F80
D82080
CC20C0
C420C0
C26040
C34040
ENDCHAR
STARTCHAR 33BA
ENCODING 10062
SWIDTH 2400 0
DWIDTH 24 0
BBX 18 21 3 -3
BITMAP
00CC40
00CC40
00CC40
00CC40
00CC40
9CCE40
A6CEC0
C2DEC0
81DAC0
81DA80
815280
815380
815380
815380
C35180
C25180
BC5180
887180
800000
800000
800000
ENDCHAR
STARTCHAR 33BB
ENCODING 10063
SWIDTH 2400 0
DWIDTH 24 0
BBX 19 18 2 0
BITMAP
006620
006620
006620
006620
4E6720
F3E760
C1E760
C1ED60
C1ED40
C1ED40
C1A940
C1A9C0
C1A9C0
C1A8C0
C1A8C0
C1A8C0
C1B8C0
C190C0
ENDCHAR
STARTCHAR 33BC
ENCODING 10064
SWIDTH 2400 0
DWIDTH 24 0
BBX 20 20 2 -2
BITMAP
003310
003310
003310
003310
003310
21B330
2133B0
2136B0
2136B0
2136A0
2114A0
6114A0
4314A0
4214A0
4214A0
621460
671C60
5B1C60
400000
800000
ENDCHAR
STARTCHAR 33BD
ENCODING 10065
SWIDTH 2400 0
DWIDTH 24 0
BBX 19 18 2 0
BITMAP
006620
006620
006620
006620
006620
BF6660
C96760
C96D60
C96D60
C96D40
C92940
C92940
C92940
C92940
C92940
C928C0
C938C0
C930C0
ENDCHAR
STARTCHAR 33BE
ENCODING 10066
SWIDTH 2400 0
DWIDTH 24 0
BBX 18 18 3 0
BITMAP
C11840
C11840
C11840
C11840
C19840
C59440
CC9480
C8B480
D8B480
D0B480
E0B480
E0E480
D0E280
D86280
C86280
C46280
C66380
C26300
ENDCHAR
STARTCHAR 33BF
ENCODING 10067
SWIDTH 2400 0
DWIDTH 24 0
BBX 18 18 3 0
BITMAP
C34640
C34640
C34640
C54640
C56640
E56E40
E52E80
E52E80
E92E80
A92E80
A92E80
A93F80
A93F80
A91F80
B91B80
B11B80
B11B00
911B00
ENDCHAR
STARTCHAR 3390
ENCODING 10068
SWIDTH 2400 0
DWIDTH 24 0
BBX 19 18 2 0
BITMAP
C08000
C08000
C08000
C08000
C08000
C09FE0
C08040
C080C0
FF8080
C08100
C08100
C08200
C08600
C08400
C08800
C09800
C09000
009FE0
ENDCHAR
STARTCHAR 3391
ENCODING 10069
SWIDTH 2400 0
DWIDTH 24 0
BBX 20 18 2 0
BITMAP
810800
810800
810800
810800
810800
8D0BF0
890820
910860
91F840
A10840
A108C0
B10880
910880
910900
890900
890A00
850A00
850BE0
ENDCHAR
STARTCHAR 3392
ENCODING 10070
SWIDTH 2400 0
DWIDTH 24 0
BBX 20 18 2 0
BITMAP
C64400
C64400
C64400
C64400
C64400
C645F0
AE4420
AE4420
AE7C20
AE4440
AA4440
AA4480
AA4480
AA4480
AA4500
AA4500
9A4500
9A45F0
ENDCHAR
STARTCHAR 3393
ENCODING 10071
SWIDTH 2400 0
DWIDTH 24 0
BBX 20 18 2 0
BITMAP
388800
648800
428800
428800
828800
8089F0
808830
808820
80F820
8E8840
828840
828840
828880
828880
828880
428900
668900
3A89F0
ENDCHAR
STARTCHAR 3394
ENCODING 10072
SWIDTH 2400 0
DWIDTH 24 0
BBX 20 18 2 0
BITMAP
FE8800
108800
108800
108800
108800
1089F0
108820
108820
10F860
108840
108840
108880
108880
108880
108900
108900
108900
108BE0
ENDCHAR
STARTCHAR 2126
ENCODING 10073
SWIDTH 2400 0
DWIDTH 24 0
BBX 14 17 5 0
BITMAP
1FC0
3060
6030
4010
8008
8008
8008
8008
8008
4010
6030
3060
0CC0
0480
0480
0480
FCFC
ENDCHAR
STARTCHAR 33C0
ENCODING 10074
SWIDTH 2400 0
DWIDTH 24 0
BBX 19 18 3 0
BITMAP
801E00
803380
8061C0
8040C0
808060
848060
8C8060
888060
908060
B08060
A040C0
A060C0
B03180
903B00
881A00
8C1A00
861A00
82FBC0
ENDCHAR
STARTCHAR 33C1
ENCODING 10075
SWIDTH 2400 0
DWIDTH 24 0
BBX 19 18 3 0
BITMAP
C61F00
C63180
C660C0
C660C0
C6C060
C6C060
AEC060
AEC060
AEC060
AEE060
AE60C0
AA7180
AA3B80
AA1A00
AA1A00
AA1A00
9A1A00
9AFBC0
ENDCHAR
STARTCHAR 338A
ENCODING 10076
SWIDTH 2400 0
DWIDTH 24 0
BBX 18 21 3 -3
BITMAP
003FC0
002000
002000
002000
982000
BE2000
C22000
833FC0
812000
812000
812000
812000
812000
812000
C22000
E62000
DC2000
C02000
C00000
C00000
C00000
ENDCHAR
STARTCHAR 338B
ENCODING 10077
SWIDTH 2400 0
DWIDTH 24 0
BBX 18 18 3 0
BITMAP
003FC0
002000
002000
002000
1E2000
FF2000
C32000
833F80
832000
832000
832000
812000
812000
812000
812000
812000
812000
812000
ENDCHAR
STARTCHAR 338C
ENCODING 10078
SWIDTH 2400 0
DWIDTH 24 0
BBX 20 20 2 -2
BITMAP
000FF0
000800
000800
000800
000800
084800
184800
104FE0
108800
108800
308800
208800
210800
210800
610800
630800
670800
5D0800
C00000
800000
ENDCHAR
STARTCHAR 33D6
ENCODING 10079
SWIDTH 2400 0
DWIDTH 24 0
BBX 18 18 3 0
BITMAP
000040
000040
000040
000040
000040
B73840
DB6440
93C440
93C240
93C240
93C240
93C240
93C240
93C240
93C240
93C440
936440
933840
ENDCHAR
STARTCHAR 33C5
ENCODING 10080
SWIDTH 2400 0
DWIDTH 24 0
BBX 18 18 3 0
BITMAP
000040
000040
000040
000040
000040
3E0FC0
6318C0
619040
C1B040
C03040
C03040
C03040
C03040
C0B040
C09040
609040
3188C0
1E0740
ENDCHAR
STARTCHAR 33AD
ENCODING 10081
SWIDTH 2400 0
DWIDTH 24 0
BBX 18 18 3 0
BITMAP
0000C0
0000C0
0000C0
0000C0
0002C0
DBC7C0
E464C0
C46840
C46840
C0E840
C3E840
C62840
C62840
CC2840
CC2840
C62840
C664C0
C3E7C0
ENDCHAR
STARTCHAR 33AE
ENCODING 10082
SWIDTH 2400 0
DWIDTH 24 0
BBX 18 20 3 -2
BITMAP
000400
000400
000400
000400
FF3C00
C94400
834400
8D4400
914400
897CC0
8E9580
000600
001C00
003380
00C240
018600
060380
0C0040
300640
6003C0
ENDCHAR
STARTCHAR 33AF
ENCODING 10083
SWIDTH 2400 0
DWIDTH 24 0
BBX 20 20 2 -2
BITMAP
000400
000400
000400
821400
EF2C00
894400
874400
894400
914460
8BBCA0
840350
000620
000870
003380
004480
018600
020180
0C0480
180480
200300
ENDCHAR
STARTCHAR 33DB
ENCODING 10084
SWIDTH 2400 0
DWIDTH 24 0
BBX 17 13 3 0
BITMAP
3C2780
432C00
833800
803000
C03000
703000
1E3000
033000
013000
813000
813000
C33000
3C3000
ENDCHAR
STARTCHAR 33A9
ENCODING 10085
SWIDTH 2400 0
DWIDTH 24 0
BBX 18 18 3 0
BITMAP
FC0000
C30000
C10000
C08000
C08000
C08F80
C098C0
C1B040
C10040
FE00C0
F80FC0
C010C0
C020C0
C040C0
C040C0
C040C0
C021C0
C01E40
ENDCHAR
STARTCHAR 33AA
ENCODING 10086
SWIDTH 2400 0
DWIDTH 24 0
BBX 18 18 3 0
BITMAP
81E000
813000
811000
811000
811000
891380
911440
911440
A11040
A130C0
A1E1C0
A10240
B10440
910440
910440
990440
8906C0
890340
ENDCHAR
STARTCHAR 33AB
ENCODING 10087
SWIDTH 2400 0
DWIDTH 24 0
BBX 19 18 2 0
BITMAP
C67800
C64C00
C64400
C64400
C64440
C645E0
AE4520
AE4420
AE4420
AE4860
AA70A0
AA4120
AA4120
AA4120
AA4120
AA4120
9A4120
9A40E0
ENDCHAR
STARTCHAR 33AC
ENCODING 10088
SWIDTH 2400 0
DWIDTH 24 0
BBX 19 18 2 0
BITMAP
38F000
249800
428800
428800
828BC0
808A20
808C20
808C20
808820
8E98E0
82F1E0
828320
828220
828220
828220
468220
6E8160
3A81A0
ENDCHAR
STARTCHAR 33DD
ENCODING 10089
SWIDTH 2400 0
DWIDTH 24 0
BBX 19 18 2 0
BITMAP
CE4800
CE4800
CA4800
CA4800
CA4800
CA4FC0
CA8C40
CA8860
CA8820
DA8820
5A8820
538820
538820
738820
738820
738840
738CC0
730B80
ENDCHAR
STARTCHAR 33D0
ENCODING 10090
SWIDTH 2400 0
DWIDTH 24 0
BBX 16 18 4 0
BITMAP
C000
C000
C000
C000
C000
C5EE
C631
C421
C421
C421
C421
C421
C421
C421
C421
C421
C421
C421
ENDCHAR
STARTCHAR 33D3
ENCODING 10091
SWIDTH 2400 0
DWIDTH 24 0
BBX 14 18 5 0
BITMAP
C000
C000
C000
C000
C000
C40C
C208
C310
C110
C0A0
C0E0
C040
C0A0
C0A0
C110
C118
C208
C604
ENDCHAR
STARTCHAR 33C3
ENCODING 10092
SWIDTH 2400 0
DWIDTH 24 0
BBX 18 20 3 -2
BITMAP
FC0000
820000
810000
810000
810000
811F40
8130C0
823040
FE6040
836040
836040
816040
816040
813040
8130C0
831F40
860040
FC0040
000040
000040
ENDCHAR
STARTCHAR 33C9
ENCODING 10093
SWIDTH 2400 0
DWIDTH 24 0
BBX 19 21 2 -3
BITMAP
1E0000
710000
608000
C08000
C08000
C01020
C01820
C00860
C00840
C78840
C08CC0
C08480
C08480
C08580
408700
618300
318300
1E8200
000200
000600
001C00
ENDCHAR
STARTCHAR 33DC
ENCODING 10094
SWIDTH 2400 0
DWIDTH 24 0
BBX 18 18 3 0
BITMAP
3E0000
430000
C18000
818000
800000
C01040
401040
6010C0
181880
060880
030880
018980
008D00
808500
808500
808700
410600
3E0200
ENDCHAR
STARTCHAR 33C6
ENCODING 10095
SWIDTH 2400 0
DWIDTH 24 0
BBX 20 20 2 -3
BITMAP
708000
908000
910000
810000
810000
820000
928000
D68000
648000
048000
0891E0
08B240
08A260
10A3C0
1093C0
209200
208BE0
200410
400630
0003E0
ENDCHAR
STARTCHAR 00C6
ENCODING 10273
SWIDTH 2400 0
DWIDTH 24 0
BBX 19 16 2 0
BITMAP
007FC0
00FFE0
01C000
014000
034000
024000
044000
047FC0
087FC0
0CC000
1FC000
304000
204000
604000
406000
807FE0
ENDCHAR
STARTCHAR 00D0
ENCODING 10274
SWIDTH 2400 0
DWIDTH 24 0
BBX 15 16 4 0
BITMAP
0F80
1FF0
1808
1804
1806
1802
1802
FF02
3C02
1802
1802
1802
1804
180C
1C78
1FE0
ENDCHAR
STARTCHAR 00AA
ENCODING 10275
SWIDTH 2400 0
DWIDTH 24 0
BBX 11 15 7 0
BITMAP
3F00
4180
4080
4080
0780
3980
6180
C180
C180
C380
FDC0
38E0
0000
0000
FFC0
ENDCHAR
STARTCHAR 0126
ENCODING 10276
SWIDTH 2400 0
DWIDTH 24 0
BBX 17 16 3 0
BITMAP
180400
180400
FFFF80
FFFF80
180400
180400
180400
1FFC00
180400
180400
180400
180400
180400
180400
180400
180400
ENDCHAR
STARTCHAR 0132
ENCODING 10278
SWIDTH 2400 0
DWIDTH 24 0
BBX 11 15 6 0
BITMAP
C020
C020
C020
C020
C020
C020
C020
C020
C020
D820
D820
D820
D820
CC40
C780
ENDCHAR
STARTCHAR 013F
ENCODING 10280
SWIDTH 2400 0
DWIDTH 24 0
BBX 10 15 7 0
BITMAP
C000
C000
C000
C000
C000
C000
C600
C600
C000
C000
C000
C000
C000
E000
FFC0
ENDCHAR
STARTCHAR 0141
ENCODING 10281
SWIDTH 2400 0
DWIDTH 24 0
BBX 14 15 5 0
BITMAP
1800
1880
1900
1A00
1E00
1C00
1800
1800
3800
5800
D800
9800
1800
1C00
1FFC
ENDCHAR
STARTCHAR 00D8
ENCODING 10282
SWIDTH 2400 0
DWIDTH 24 0
BBX 15 18 4 -1
BITMAP
0002
07C4
1C74
1018
3018
202C
604C
6084
4084
4104
6204
640C
280C
3808
1018
3C70
47C0
8000
ENDCHAR
STARTCHAR 0152
ENCODING 10283
SWIDTH 2400 0
DWIDTH 24 0
BBX 20 16 2 0
BITMAP
0F9FF0
38FFF0
306000
606000
606000
C06000
C06000
C07FE0
C07FC0
C06000
C06000
E06000
606000
706000
387000
1FFFF0
ENDCHAR
STARTCHAR 00BA
ENCODING 10284
SWIDTH 2400 0
DWIDTH 24 0
BBX 10 15 7 0
BITMAP
3F00
6180
E180
C0C0
C0C0
C0C0
C0C0
C0C0
C1C0
6180
3F00
0C00
0000
0000
FFC0
ENDCHAR
STARTCHAR 00DE
ENCODING 10285
SWIDTH 2400 0
DWIDTH 24 0
BBX 11 15 7 1
BITMAP
C000
C000
C000
C000
FF80
F3C0
C0E0
C060
C060
C060
C0C0
FF80
C000
C000
C000
ENDCHAR
STARTCHAR 0166
ENCODING 10286
SWIDTH 2400 0
DWIDTH 24 0
BBX 12 15 6 1
BITMAP
FFF0
0700
0600
0600
0600
0600
0600
0600
7FE0
0600
0600
0600
0600
0600
0600
ENDCHAR
STARTCHAR 014A
ENCODING 10287
SWIDTH 2400 0
DWIDTH 24 0
BBX 11 18 6 -1
BITMAP
C000
DFC0
F0C0
E060
C060
C060
C060
C060
C060
C060
C060
C060
C060
C060
C060
C0C0
C7C0
0400
ENDCHAR
STARTCHAR 3260
ENCODING 10289
SWIDTH 2400 0
DWIDTH 24 0
BBX 19 20 2 -3
BITMAP
03F800
0E0600
180300
200080
6000C0
5FFE40
C00640
800620
800620
800620
800620
800420
800C20
400C40
400040
6000C0
200080
180300
0E0600
03F800
ENDCHAR
STARTCHAR 3261
ENCODING 10290
SWIDTH 2400 0
DWIDTH 24 0
BBX 19 20 2 -3
BITMAP
03F800
0E0600
180300
200080
6000C0
400040
CC0040
8C0020
8C0020
8C0020
8C0020
8C0020
8C0020
4C0040
4FFF40
6000C0
200080
180300
0E0600
03F800
ENDCHAR
STARTCHAR 3262
ENCODING 10291
SWIDTH 2400 0
DWIDTH 24 0
BBX 19 20 2 -3
BITMAP
03F800
0E0600
180300
200080
6000C0
4FFF40
CC0040
8C0020
8C0020
8C0020
8C0020
8C0020
8C0020
4C0040
4FFF40
6000C0
200080
180300
0E0600
03F800
ENDCHAR
STARTCHAR 3263
ENCODING 10292
SWIDTH 2400 0
DWIDTH 24 0
BBX 19 20 2 -3
BITMAP
03F800
0E0600
180300
200080
6000C0
4FFE40
C00640
800620
800620
87FE20
860020
860020
860020
460040
47FF40
6000C0
200080
180300
0E0600
03F800
ENDCHAR
STARTCHAR 3264
ENCODING 10293
SWIDTH 2400 0
DWIDTH 24 0
BBX 19 20 2 -3
BITMAP
03F800
0E0600
180300
200080
6000C0
4FFF40
CC0340
8C0320
8C0320
8C0320
8C0320
8C0320
8C0320
4C0340
4FFF40
6000C0
200080
180300
0E0600
03F800
ENDCHAR
STARTCHAR 3265
ENCODING 10294
SWIDTH 2400 0
DWIDTH 24 0
BBX 19 20 2 -3
BITMAP
03F800
0E0600
180300
200080
6000C0
4C0340
CC0340
8C0320
8FFF20
8C0320
8C0320
8C0320
8C0320
4C0340
4FFF40
6000C0
200080
180300
0E0600
03F800
ENDCHAR
STARTCHAR 3266
ENCODING 10295
SWIDTH 2400 0
DWIDTH 24 0
BBX 19 20 2 -3
BITMAP
03F800
0E0600
180300
200080
6060C0
406040
C06040
806020
806020
80F020
819820
830C20
860620
5C03C0
5000C0
6000C0
200080
180300
0E0600
03F800
ENDCHAR
STARTCHAR 3267
ENCODING 10296
SWIDTH 2400 0
DWIDTH 24 0
BBX 19 20 2 -3
BITMAP
03F800
0E0600
180300
200080
61F8C0
430C40
C60640
8C0320
8C0320
8C0320
8C0320
8C0320
860620
430C40
41F840
6000C0
200080
180300
0E0600
03F800
ENDCHAR
STARTCHAR 3268
ENCODING 10297
SWIDTH 2400 0
DWIDTH 24 0
BBX 19 20 2 -3
BITMAP
03F800
0E0600
180300
200080
6000C0
4FFF40
C04040
806020
80E020
80B020
819820
830C20
860620
5C0340
400040
6000C0
200080
180300
0E0600
03F800
ENDCHAR
STARTCHAR 3269
ENCODING 10298
SWIDTH 2400 0
DWIDTH 24 0
BBX 19 20 2 -3
BITMAP
03F800
0E0600
180300
200080
63F8C0
400040
C00040
8FFF20
804020
806020
80B020
819020
830C20
4E0740
580140
6000C0
200080
180300
0E0600
03F800
ENDCHAR
STARTCHAR 326A
ENCODING 10299
SWIDTH 2400 0
DWIDTH 24 0
BBX 19 20 2 -3
BITMAP
03F800
0E0600
180300
200080
6000C0
4FFF40
C00340
800320
800320
803B20
8FC320
800220
800620
400440
400040
6000C0
200080
180300
0E0600
03F800
ENDCHAR
STARTCHAR 326B
ENCODING 10300
SWIDTH 2400 0
DWIDTH 24 0
BBX 19 20 2 -3
BITMAP
03F800
0E0600
180300
200080
6000C0
4FFE40
CC0040
8C0020
8C0020
8FFE20
8C0020
8C0020
8C0020
4C0040
4FFF40
6000C0
200080
180300
0E0600
03F800
ENDCHAR
STARTCHAR 326C
ENCODING 10301
SWIDTH 2400 0
DWIDTH 24 0
BBX 19 20 2 -3
BITMAP
03F800
0E0600
180300
200080
6000C0
4FFE40
C00040
800020
820820
820820
830820
830820
810820
411840
4FFF40
6000C0
200080
180300
0E0600
03F800
ENDCHAR
STARTCHAR 326D
ENCODING 10302
SWIDTH 2400 0
DWIDTH 24 0
BBX 19 20 2 -3
BITMAP
03F800
0E0600
180300
200080
61F8C0
400040
C00040
9FFF20
800020
81F020
860C20
8C0620
8C0620
4C0640
4C0640
660CC0
21F080
180300
0E0600
03F800
ENDCHAR
STARTCHAR 326E
ENCODING 10303
SWIDTH 2400 0
DWIDTH 24 0
BBX 19 20 2 -3
BITMAP
03F800
0E0600
180300
200C80
600CC0
4FCC40
C04C40
80CC20
808C20
808C20
810FA0
830C20
860C20
5C0C40
400C40
600CC0
200C80
180300
0E0600
03F800
ENDCHAR
STARTCHAR 326F
ENCODING 10304
SWIDTH 2400 0
DWIDTH 24 0
BBX 19 20 2 -3
BITMAP
03F800
0E0600
180300
200C80
600CC0
580C40
D80C40
980C20
980C20
980C20
980FA0
980C20
982C20
5FEC40
400C40
600CC0
200C80
180300
0E0600
03F800
ENDCHAR
STARTCHAR 3270
ENCODING 10305
SWIDTH 2400 0
DWIDTH 24 0
BBX 19 20 2 -3
BITMAP
03F800
0E0600
180300
200C80
600CC0
5FEC40
D80C40
980C20
980C20
980C20
980FA0
980C20
986C20
5FEC40
400C40
600CC0
200C80
180300
0E0600
03F800
ENDCHAR
STARTCHAR 3271
ENCODING 10306
SWIDTH 2400 0
DWIDTH 24 0
BBX 19 20 2 -3
BITMAP
03F800
0E0600
180300
200C80
600CC0
4FEC40
C06C40
806C20
806C20
8FEC20
8C0FA0
8C0C20
8C0C20
4FFC40
400C40
600CC0
200C80
180300
0E0600
03F800
ENDCHAR
STARTCHAR 3272
ENCODING 10307
SWIDTH 2400 0
DWIDTH 24 0
BBX 19 20 2 -3
BITMAP
03F800
0E0600
180300
200C80
600CC0
5FCC40
D84C40
984C20
984C20
984C20
984FA0
984C20
984C20
5FCC40
400C40
600CC0
200C80
180300
0E0600
03F800
ENDCHAR
STARTCHAR 3273
ENCODING 10308
SWIDTH 2400 0
DWIDTH 24 0
BBX 19 20 2 -3
BITMAP
03F800
0E0600
180300
200C80
600CC0
400C40
D86C40
986C20
986C20
9FEC20
986FA0
986C20
986C20
586C40
5FEC40
600CC0
200C80
180300
0E0600
03F800
ENDCHAR
STARTCHAR 3274
ENCODING 10309
SWIDTH 2400 0
DWIDTH 24 0
BBX 19 20 2 -3
BITMAP
03F800
0E0600
180300
200C80
600CC0
430C40
C30C40
830C20
830C20
878C20
878FA0
8CCC20
986C20
703C40
400C40
600CC0
200C80
180300
0E0600
03F800
ENDCHAR
STARTCHAR 3275
ENCODING 10310
SWIDTH 2400 0
DWIDTH 24 0
BBX 19 20 2 -3
BITMAP
03F800
0E0600
180300
200C80
600CC0
478C40
CCCC40
986C20
986C20
986C20
986FA0
986C20
986C20
4CCC40
478C40
600CC0
200C80
180300
0E0600
03F800
ENDCHAR
STARTCHAR 3276
ENCODING 10311
SWIDTH 2400 0
DWIDTH 24 0
BBX 19 20 2 -3
BITMAP
03F800
0E0600
180300
200C80
600CC0
5FEC40
C30C40
830C20
830C20
878C20
848FA0
8CCC20
884C20
502C40
400C40
600CC0
200C80
180300
0E0600
03F800
ENDCHAR
STARTCHAR 3277
ENCODING 10312
SWIDTH 2400 0
DWIDTH 24 0
BBX 19 20 2 -3
BITMAP
03F800
0E0600
180300
27CC80
600CC0
400C40
CFEC40
810C20
810C20
810C20
838FA0
828C20
84CC20
4C6C40
400C40
600CC0
200C80
180300
0E0600
03F800
ENDCHAR
STARTCHAR 3278
ENCODING 10313
SWIDTH 2400 0
DWIDTH 24 0
BBX 19 20 2 -3
BITMAP
03F800
0E0600
180300
200C80
600CC0
4FCC40
C04C40
804C20
81CC20
9FCC20
80CFA0
808C20
818C20
430C40
460C40
680CC0
200C80
180300
0E0600
03F800
ENDCHAR
STARTCHAR 3279
ENCODING 10314
SWIDTH 2400 0
DWIDTH 24 0
BBX 19 20 2 -3
BITMAP
03F800
0E0600
180300
200C80
600CC0
5FEC40
D80C40
980C20
980C20
9FCC20
980FA0
980C20
980C20
582C40
5FCC40
600CC0
200C80
180300
0E0600
03F800
ENDCHAR
STARTCHAR 327A
ENCODING 10315
SWIDTH 2400 0
DWIDTH 24 0
BBX 19 20 2 -3
BITMAP
03F800
0E0600
180300
200C80
600CC0
5FEC40
C00C40
840C20
84CC20
84CC20
84CFA0
84CC20
87FC20
5FEC40
400C40
600CC0
200C80
180300
0E0600
03F800
ENDCHAR
STARTCHAR 327B
ENCODING 10316
SWIDTH 2400 0
DWIDTH 24 0
BBX 19 20 2 -3
BITMAP
03F800
0E0600
180300
200C80
678CC0
400C40
C00C40
9FEC20
800C20
878C20
8CCFA0
884C20
884C20
4CCC40
478C40
600CC0
200C80
180300
0E0600
03F800
ENDCHAR
STARTCHAR 24D0
ENCODING 10317
SWIDTH 2400 0
DWIDTH 24 0
BBX 19 20 2 -3
BITMAP
03F800
0E0600
180300
200080
6000C0
40F840
C10C40
830420
800C20
81FC20
83CC20
830C20
830C20
431C40
41F740
6000C0
200080
180300
0E0600
03F800
ENDCHAR
STARTCHAR 24D1
ENCODING 10318
SWIDTH 2400 0
DWIDTH 24 0
BBX 19 20 2 -3
BITMAP
03F800
0E0600
180300
260080
6600C0
460040
C60040
86F020
871820
860C20
860C20
860C20
860C20
460C40
460C40
6718C0
26F080
180300
0E0600
03F800
ENDCHAR
STARTCHAR 24D2
ENCODING 10319
SWIDTH 2400 0
DWIDTH 24 0
BBX 19 20 2 -3
BITMAP
03F800
0E0600
180300
200080
6000C0
40F040
C11840
820820
860820
860020
860020
860820
820820
431840
40F040
6000C0
200080
180300
0E0600
03F800
ENDCHAR
STARTCHAR 24D3
ENCODING 10320
SWIDTH 2400 0
DWIDTH 24 0
BBX 19 20 2 -3
BITMAP
03F800
0E0600
180F00
200C80
600CC0
400C40
C1EC40
831C20
831C20
860C20
860C20
860C20
860C20
460C40
431C40
631CC0
21EC80
180300
0E0600
03F800
ENDCHAR
STARTCHAR 24D4
ENCODING 10321
SWIDTH 2400 0
DWIDTH 24 0
BBX 19 20 2 -3
BITMAP
03F800
0E0600
180300
200080
6000C0
40F040
C31840
820820
860C20
87FC20
860020
860020
820C20
410840
40F040
6000C0
200080
180300
0E0600
03F800
ENDCHAR
STARTCHAR 24D5
ENCODING 10322
SWIDTH 2400 0
DWIDTH 24 0
BBX 19 20 2 -3
BITMAP
03F800
0E0600
180300
201880
6078C0
406040
C06040
81F820
806020
806020
806020
806020
806020
406040
406040
6060C0
206080
180300
0E0600
03F800
ENDCHAR
STARTCHAR 24D6
ENCODING 10323
SWIDTH 2400 0
DWIDTH 24 0
BBX 19 20 2 -3
BITMAP
03F800
0E0600
180300
21EC80
631CC0
471C40
C60C40
860C20
860C20
860C20
860C20
861C20
831C20
41EC40
420840
6210C0
21E080
180300
0E0600
03F800
ENDCHAR
STARTCHAR 24D7
ENCODING 10324
SWIDTH 2400 0
DWIDTH 24 0
BBX 19 20 2 -3
BITMAP
03F800
0E0600
1A0300
220080
6200C0
420040
C27040
829820
830820
820820
820820
820820
820820
430840
430840
6308C0
230880
180300
0E0600
03F800
ENDCHAR
STARTCHAR 24D8
ENCODING 10325
SWIDTH 2400 0
DWIDTH 24 0
BBX 19 20 2 -3
BITMAP
03F800
0E0600
180300
206080
6000C0
400040
C00040
806020
806020
806020
806020
806020
806020
406040
406040
6060C0
206080
180300
0E0600
03F800
ENDCHAR
STARTCHAR 24D9
ENCODING 10326
SWIDTH 2400 0
DWIDTH 24 0
BBX 19 20 2 -3
BITMAP
03F800
0E0600
186300
200080
6000C0
406040
C06040
806020
806020
806020
806020
806020
806020
406040
406040
6060C0
206080
19E300
0F8600
03F800
ENDCHAR
STARTCHAR 24DA
ENCODING 10327
SWIDTH 2400 0
DWIDTH 24 0
BBX 19 20 2 -3
BITMAP
03F800
0E0600
190300
210080
6100C0
410040
C10440
810820
811020
812020
81C020
81A020
813020
411040
410840
6108C0
210480
180300
0E0600
03F800
ENDCHAR
STARTCHAR 24DB
ENCODING 10328
SWIDTH 2400 0
DWIDTH 24 0
BBX 19 20 2 -3
BITMAP
03F800
0E0600
180300
206080
6060C0
406040
C06040
806020
806020
806020
806020
806020
806020
406040
406040
6060C0
206080
180300
0E0600
03F800
ENDCHAR
STARTCHAR 24DC
ENCODING 10329
SWIDTH 2400 0
DWIDTH 24 0
BBX 19 20 2 -3
BITMAP
03F800
0E0600
180300
200080
7800C0
5BDE40
DC6340
984120
984120
984120
984120
984120
984120
584140
584140
6000C0
200080
180300
0E0600
03F800
ENDCHAR
STARTCHAR 24DD
ENCODING 10330
SWIDTH 2400 0
DWIDTH 24 0
BBX 19 20 2 -3
BITMAP
03F800
0E0600
180300
200080
6200C0
42F840
C39C40
830C20
830C20
830C20
830C20
830C20
830C20
430C40
430C40
630CC0
200080
180300
0E0600
03F800
ENDCHAR
STARTCHAR 24DE
ENCODING 10331
SWIDTH 2400 0
DWIDTH 24 0
BBX 19 20 2 -3
BITMAP
03F800
0E0600
180300
200080
6000C0
41F040
C31840
820820
860C20
860C20
860C20
860C20
820820
431840
41F040
6000C0
200080
180300
0E0600
03F800
ENDCHAR
STARTCHAR 24DF
ENCODING 10332
SWIDTH 2400 0
DWIDTH 24 0
BBX 19 20 2 -3
BITMAP
03F800
0E0600
180300
26F080
6718C0
471840
C60C40
860C20
860C20
860C20
860C20
871820
871820
46F040
460040
6600C0
260080
180300
0E0600
03F800
ENDCHAR
STARTCHAR 24E0
ENCODING 10333
SWIDTH 2400 0
DWIDTH 24 0
BBX 19 20 2 -3
BITMAP
03F800
0E0600
180300
21F680
630EC0
420E40
C60640
860620
860620
860620
860E20
831E20
81E620
400640
400640
6006C0
200680
180300
0E0600
03F800
ENDCHAR
STARTCHAR 24E1
ENCODING 10334
SWIDTH 2400 0
DWIDTH 24 0
BBX 19 20 2 -3
BITMAP
03F800
0E0600
180300
200080
6000C0
413040
C17040
818020
818020
818020
818020
818020
818020
418040
418040
6180C0
200080
180300
0E0600
03F800
ENDCHAR
STARTCHAR 24E2
ENCODING 10335
SWIDTH 2400 0
DWIDTH 24 0
BBX 19 20 2 -3
BITMAP
03F800
0E0600
180300
200080
60F0C0
411840
C10840
830020
81E020
80F820
801820
820820
830820
411840
41F040
6000C0
200080
180300
0E0600
03F800
ENDCHAR
STARTCHAR 24E3
ENCODING 10336
SWIDTH 2400 0
DWIDTH 24 0
BBX 19 20 2 -3
BITMAP
03F800
0E0600
180300
206080
6060C0
406040
C1FC40
806020
806020
806020
806020
806020
806020
406040
407040
6038C0
200080
180300
0E0600
03F800
ENDCHAR
STARTCHAR 24E4
ENCODING 10337
SWIDTH 2400 0
DWIDTH 24 0
BBX 19 20 2 -3
BITMAP
03F800
0E0600
180300
200080
6000C0
430C40
C30C40
830C20
830C20
830C20
830C20
830C20
830C20
431C40
41EC40
60CCC0
200080
180300
0E0600
03F800
ENDCHAR
STARTCHAR 24E5
ENCODING 10338
SWIDTH 2400 0
DWIDTH 24 0
BBX 19 20 2 -3
BITMAP
03F800
0E0600
180300
200080
6000C0
420840
C20840
830820
811820
811020
819020
80B020
80A020
40E040
406040
6040C0
200080
180300
0E0600
03F800
ENDCHAR
STARTCHAR 24E6
ENCODING 10339
SWIDTH 2400 0
DWIDTH 24 0
BBX 19 20 2 -3
BITMAP
03F800
0E0600
180300
200080
6000C0
484140
C86140
88E220
8CA220
84B220
849620
859420
871420
431C40
430840
6308C0
200080
180300
0E0600
03F800
ENDCHAR
STARTCHAR 24E7
ENCODING 10340
SWIDTH 2400 0
DWIDTH 24 0
BBX 19 20 2 -3
BITMAP
03F800
0E0600
180300
200080
6208C0
430840
C11040
80B020
80E020
806020
80E020
80B020
819020
411840
420840
6204C0
200080
180300
0E0600
03F800
ENDCHAR
STARTCHAR 24E8
ENCODING 10341
SWIDTH 2400 0
DWIDTH 24 0
BBX 19 20 2 -3
BITMAP
03F800
0E0600
180300
220880
6208C0
430840
C11840
811020
819020
80B020
80A020
80E020
806020
404040
404040
6040C0
238080
180300
0E0600
03F800
ENDCHAR
STARTCHAR 24E9
ENCODING 10342
SWIDTH 2400 0
DWIDTH 24 0
BBX 19 20 2 -3
BITMAP
03F800
0E0600
180300
200080
6000C0
43FC40
C01840
801020
802020
806020
804020
808020
810020
430040
43FC40
6000C0
200080
180300
0E0600
03F800
ENDCHAR
STARTCHAR 2460
ENCODING 10343
SWIDTH 2400 0
DWIDTH 24 0
BBX 19 20 2 -3
BITMAP
03F800
0E0600
180300
203080
6030C0
407040
C3F040
803020
803020
803020
803020
803020
803020
403040
403040
6030C0
200080
180300
0E0600
03F800
ENDCHAR
STARTCHAR 2461
ENCODING 10344
SWIDTH 2400 0
DWIDTH 24 0
BBX 19 20 2 -3
BITMAP
03F800
0E0600
180300
20F080
6198C0
430C40
C30C40
830C20
800C20
801820
803020
80E020
818020
430040
420040
6600C0
27FC80
180300
0E0600
03F800
ENDCHAR
STARTCHAR 2462
ENCODING 10345
SWIDTH 2400 0
DWIDTH 24 0
BBX 19 20 2 -3
BITMAP
03F800
0E0600
180300
21F080
6318C0
460C40
C60C40
860C20
801C20
80F820
801C20
800C20
860C20
460C40
460C40
6318C0
21F080
180300
0E0600
03F800
ENDCHAR
STARTCHAR 2463
ENCODING 10346
SWIDTH 2400 0
DWIDTH 24 0
BBX 19 20 2 -3
BITMAP
03F800
0E0600
180300
202080
6060C0
40E040
C0A040
812020
812020
822020
862020
842020
8FFC20
402040
402040
6020C0
200080
180300
0E0600
03F800
ENDCHAR
STARTCHAR 2464
ENCODING 10347
SWIDTH 2400 0
DWIDTH 24 0
BBX 19 20 2 -3
BITMAP
03F800
0E0600
180300
23FC80
6200C0
420040
C20040
820020
82E020
831820
820820
800C20
800C20
440C40
460C40
6218C0
21E080
180300
0E0600
03F800
ENDCHAR
STARTCHAR 2465
ENCODING 10348
SWIDTH 2400 0
DWIDTH 24 0
BBX 19 20 2 -3
BITMAP
03F800
0E0600
180300
20F080
6188C0
430C40
C20C40
860020
86F020
870820
860420
860420
860420
460440
420C40
6308C0
20F080
180300
0E0600
03F800
ENDCHAR
STARTCHAR 2466
ENCODING 10349
SWIDTH 2400 0
DWIDTH 24 0
BBX 19 20 2 -3
BITMAP
03F800
0E0600
180300
23FE80
600CC0
400840
C01040
803020
802020
806020
804020
804020
80C020
408040
408040
6080C0
208080
180300
0E0600
03F800
ENDCHAR
STARTCHAR 2467
ENCODING 10350
SWIDTH 2400 0
DWIDTH 24 0
BBX 19 20 2 -3
BITMAP
03F800
0E0600
180300
20F080
6198C0
430C40
C30C40
830C20
839820
81F820
811820
820C20
860C20
460C40
460C40
6318C0
21E080
180300
0E0600
03F800
ENDCHAR
STARTCHAR 2468
ENCODING 10351
SWIDTH 2400 0
DWIDTH 24 0
BBX 19 20 2 -3
BITMAP
03F800
0E0600
180300
20F080
6198C0
430840
C30C40
830C20
830C20
830C20
819420
80F420
800420
420440
430840
6118C0
20F080
180300
0E0600
03F800
ENDCHAR
STARTCHAR 2469
ENCODING 10352
SWIDTH 2400 0
DWIDTH 24 0
BBX 19 20 2 -3
BITMAP
03F800
0E0600
180300
200080
600EC0
461B40
C631C0
BE31A0
8631A0
8631A0
8631A0
8631A0
8631A0
463140
461B40
660EC0
200080
180300
0E0600
03F800
ENDCHAR
STARTCHAR 246A
ENCODING 10353
SWIDTH 2400 0
DWIDTH 24 0
BBX 19 20 2 -3
BITMAP
03F800
0E0600
180300
200080
6000C0
460640
C60640
BE3E20
860620
860620
860620
860620
860620
460640
460640
6606C0
200080
180300
0E0600
03F800
ENDCHAR
STARTCHAR 246B
ENCODING 10354
SWIDTH 2400 0
DWIDTH 24 0
BBX 19 20 2 -3
BITMAP
03F800
0E0600
180300
200080
6000C0
461E40
C63340
BE21A0
8621A0
860120
860220
860420
860820
461040
462040
667FC0
200080
180300
0E0600
03F800
ENDCHAR
STARTCHAR 246C
ENCODING 10355
SWIDTH 2400 0
DWIDTH 24 0
BBX 19 20 2 -3
BITMAP
03F800
0E0600
180300
200080
600CC0
463F40
C62340
BE2120
860320
860C20
860320
8601A0
8641A0
4661C0
462340
663EC0
200080
180300
0E0600
03F800
ENDCHAR
STARTCHAR 246D
ENCODING 10356
SWIDTH 2400 0
DWIDTH 24 0
BBX 19 20 2 -3
BITMAP
03F800
0E0600
180300
200080
6000C0
460640
C60E40
BE0E20
861620
863620
862620
866620
867FA0
460640
460640
6606C0
200080
180300
0E0600
03F800
ENDCHAR
STARTCHAR 246E
ENCODING 10357
SWIDTH 2400 0
DWIDTH 24 0
BBX 19 20 2 -3
BITMAP
03F800
0E0600
180300
200080
607FC0
466040
C64040
BE5820
866E20
864320
860320
860320
864320
466640
463C40
6600C0
200080
180300
0E0600
03F800
ENDCHAR
STARTCHAR 00BD
ENCODING 10358
SWIDTH 2400 0
DWIDTH 24 0
BBX 17 16 3 0
BITMAP
181000
181000
F82000
382000
184000
184000
189F00
18B180
193180
193180
1A0300
020600
040800
041000
083000
083F80
ENDCHAR
STARTCHAR 2153
ENCODING 10359
SWIDTH 2400 0
DWIDTH 24 0
BBX 17 16 3 0
BITMAP
101000
101000
F02000
302000
104000
104000
108F00
109180
111080
110180
120700
020300
040080
041080
081980
080F00
ENDCHAR
STARTCHAR 2154
ENCODING 10360
SWIDTH 2400 0
DWIDTH 24 0
BBX 17 16 3 0
BITMAP
7C0800
CE0800
861000
861000
0C2000
182000
304F00
405180
C09080
FE8180
010700
010300
020080
021080
041980
040F00
ENDCHAR
STARTCHAR 00BC
ENCODING 10361
SWIDTH 2400 0
DWIDTH 24 0
BBX 18 16 3 0
BITMAP
181000
181000
F82000
182000
184300
184700
188700
188B00
191B00
191300
1A2300
026300
047FC0
040300
080300
080300
ENDCHAR
STARTCHAR 00BE
ENCODING 10362
SWIDTH 2400 0
DWIDTH 24 0
BBX 17 16 4 0
BITMAP
781000
CC1000
842000
0C2000
384600
0C4E00
048E00
849600
CD3600
792600
024600
02C600
04FF80
040600
080600
080600
ENDCHAR
STARTCHAR 215B
ENCODING 10363
SWIDTH 2400 0
DWIDTH 24 0
BBX 17 16 3 0
BITMAP
181000
181000
F82000
382000
184000
184000
188F00
189880
191880
191880
1A0F00
021F00
041080
041080
081980
080F00
ENDCHAR
STARTCHAR 215C
ENCODING 10364
SWIDTH 2400 0
DWIDTH 24 0
BBX 17 16 3 0
BITMAP
3C0800
641800
461000
043000
182000
1C6000
064F00
C2D880
469880
7D9880
010F00
031F00
021080
061080
041980
0C0F00
ENDCHAR
STARTCHAR 215D
ENCODING 10365
SWIDTH 2400 0
DWIDTH 24 0
BBX 17 16 3 0
BITMAP
3F0800
201000
601000
5C2000
662000
034000
034F00
C39880
C79880
7F1880
010F00
021F00
021080
041080
041980
080F00
ENDCHAR
STARTCHAR 215E
ENCODING 10366
SWIDTH 2400 0
DWIDTH 24 0
BBX 16 16 4 0
BITMAP
FE20
0420
0C40
0840
1880
1080
311E
2131
2231
2231
241E
043E
0821
0821
1033
101E
ENDCHAR
STARTCHAR 00E6
ENCODING 10529
SWIDTH 2400 0
DWIDTH 24 0
BBX 16 12 4 0
BITMAP
3C7C
42C6
8382
8103
0303
3FFF
E100
8100
8301
8383
C4C6
787C
ENDCHAR
STARTCHAR 0111
ENCODING 10530
SWIDTH 2400 0
DWIDTH 24 0
BBX 13 16 6 0
BITMAP
00C0
00C0
0FF8
00C0
1CC0
7EC0
61C0
C0C0
C0C0
C0C0
C0C0
C0C0
C0C0
61C0
73C0
3CC0
ENDCHAR
STARTCHAR 00F0
ENCODING 10531
SWIDTH 2400 0
DWIDTH 24 0
BBX 9 17 7 0
BITMAP
0200
6600
1800
1800
6400
4600
0200
0B00
7F00
4380
8180
8180
8180
8180
8100
4300
3E00
ENDCHAR
STARTCHAR 0127
ENCODING 10532
SWIDTH 2400 0
DWIDTH 24 0
BBX 11 16 6 0
BITMAP
1000
1000
FF00
3000
1000
1380
1EC0
1820
1020
1020
1020
1020
1820
1820
1820
1820
ENDCHAR
STARTCHAR 0131
ENCODING 10533
SWIDTH 2400 0
DWIDTH 24 0
BBX 2 11 11 0
BITMAP
C0
C0
C0
C0
C0
C0
C0
C0
C0
C0
C0
ENDCHAR
STARTCHAR 0133
ENCODING 10534
SWIDTH 2400 0
DWIDTH 24 0
BBX 8 19 8 -3
BITMAP
83
C3
00
00
00
C3
C3
C3
C3
C3
C3
C3
C3
C3
C3
C3
03
1F
08
ENDCHAR
STARTCHAR 0138
ENCODING 10535
SWIDTH 2400 0
DWIDTH 24 0
BBX 9 11 7 0
BITMAP
C100
C200
CC00
D800
FC00
E400
C600
C200
C100
C180
C080
ENDCHAR
STARTCHAR 0140
ENCODING 10536
SWIDTH 2400 0
DWIDTH 24 0
BBX 6 16 9 0
BITMAP
C0
C0
C0
C0
C0
C0
C0
CC
CC
CC
C0
C0
C0
C0
C0
C0
ENDCHAR
STARTCHAR 0142
ENCODING 10537
SWIDTH 2400 0
DWIDTH 24 0
BBX 10 16 7 0
BITMAP
0C00
0C00
0C00
0C40
0C80
0D00
0E00
0C00
0C00
1C00
2C00
4C00
CC00
0C00
0C00
0C00
ENDCHAR
STARTCHAR 00F8
ENCODING 10538
SWIDTH 2400 0
DWIDTH 24 0
BBX 13 13 6 0
BITMAP
0008
1FD0
3060
2060
4090
4110
4610
4C10
5810
7010
6020
D040
0F80
ENDCHAR
STARTCHAR 0153
ENCODING 10539
SWIDTH 2400 0
DWIDTH 24 0
BBX 18 12 3 0
BITMAP
1C1E00
7B3F00
614080
E0C080
C04080
C040C0
C07FC0
C08000
C04080
60C080
712380
3E1F00
ENDCHAR
STARTCHAR 00DF
ENCODING 10540
SWIDTH 2400 0
DWIDTH 24 0
BBX 10 17 7 0
BITMAP
0400
3F00
6180
E080
C080
C080
C100
CE00
C780
C0C0
C040
C040
C040
C040
C040
C180
CF00
ENDCHAR
STARTCHAR 00FE
ENCODING 10541
SWIDTH 2400 0
DWIDTH 24 0
BBX 10 18 7 -2
BITMAP
8000
8000
8000
8000
8E00
BF80
E180
C0C0
C0C0
C0C0
C0C0
C0C0
C0C0
E180
B380
9E00
8000
8000
ENDCHAR
STARTCHAR 0167
ENCODING 10542
SWIDTH 2400 0
DWIDTH 24 0
BBX 6 15 9 0
BITMAP
30
30
30
FC
7C
30
FC
FC
30
30
30
30
30
3C
04
ENDCHAR
STARTCHAR 014B
ENCODING 10543
SWIDTH 2400 0
DWIDTH 24 0
BBX 9 15 7 -3
BITMAP
8E00
F300
E180
C180
C180
C180
C180
C180
C180
C180
C180
C180
0180
0380
0F00
ENDCHAR
STARTCHAR 0149
ENCODING 10544
SWIDTH 2400 0
DWIDTH 24 0
BBX 13 14 5 0
BITMAP
6000
6000
68E0
CFF0
8E18
0C18
0C18
0C18
0C18
0C18
0C18
0C18
0C18
0C18
ENDCHAR
STARTCHAR 3200
ENCODING 10545
SWIDTH 2400 0
DWIDTH 24 0
BBX 20 19 2 -2
BITMAP
080100
080100
100080
200040
200040
67FF60
400320
C00330
C00330
C00330
C00230
C00230
C00630
400620
600060
200040
300080
100080
080100
ENDCHAR
STARTCHAR 3201
ENCODING 10546
SWIDTH 2400 0
DWIDTH 24 0
BBX 20 19 2 -2
BITMAP
080100
080100
100080
200040
200040
600060
4C0020
CC0030
CC0030
CC0030
CC0030
CC0030
CC0030
4C0020
6FFF60
200040
300080
100080
080100
ENDCHAR
STARTCHAR 3202
ENCODING 10547
SWIDTH 2400 0
DWIDTH 24 0
BBX 20 19 2 -2
BITMAP
080000
100100
100080
200040
600040
6FFE60
CC0020
CC0030
CC0030
CC0030
CC0030
CC0030
CC0030
6C0020
6FFF60
200040
100080
180080
080100
ENDCHAR
STARTCHAR 3203
ENCODING 10548
SWIDTH 2400 0
DWIDTH 24 0
BBX 20 19 2 -2
BITMAP
080100
080180
1000C0
200040
200060
6FFE60
400630
C00630
C00630
CFFE30
CC0030
CC0030
CC0030
4C0020
6FFE60
200040
300080
100080
080100
ENDCHAR
STARTCHAR 3204
ENCODING 10549
SWIDTH 2400 0
DWIDTH 24 0
BBX 20 19 2 -2
BITMAP
080100
080100
100080
200040
200040
6FFF60
4C0320
CC0330
CC0330
CC0330
CC0330
CC0330
CC0330
4FFF20
600060
200040
300080
100080
080100
ENDCHAR
STARTCHAR 3205
ENCODING 10550
SWIDTH 2400 0
DWIDTH 24 0
BBX 20 19 2 -2
BITMAP
080100
080100
100080
200040
200040
6C0360
4C0320
CC0330
CC0330
CFFF30
CC0330
CC0330
CC0330
4C0320
6FFF60
200040
300080
100080
080100
ENDCHAR
STARTCHAR 3206
ENCODING 10551
SWIDTH 2400 0
DWIDTH 24 0
BBX 20 19 2 -2
BITMAP
080100
080100
100080
200040
206040
606060
406020
C06030
C06030
C0F030
C09030
C19830
C30C30
4E0720
7801E0
200040
300080
100080
080100
ENDCHAR
STARTCHAR 3207
ENCODING 10552
SWIDTH 2400 0
DWIDTH 24 0
BBX 20 19 2 -2
BITMAP
080100
180180
100080
200040
21F840
630C60
460620
CC0330
CC0330
CC0330
CC0330
CC0330
C60630
430C20
61F860
200040
300080
100080
080100
ENDCHAR
STARTCHAR 3208
ENCODING 10553
SWIDTH 2400 0
DWIDTH 24 0
BBX 20 19 2 -2
BITMAP
080100
080100
100080
200040
200040
6FFF60
406020
C06030
C0F030
C09030
C19830
C30C30
C60630
5C01A0
600060
200040
300080
100080
080100
ENDCHAR
STARTCHAR 3209
ENCODING 10554
SWIDTH 2400 0
DWIDTH 24 0
BBX 20 19 2 -2
BITMAP
080100
080100
100080
200040
23F840
600060
400020
CFFF30
C04030
C06030
C0A030
C1B030
C31830
4E0E20
6C0360
200040
300080
100080
080100
ENDCHAR
STARTCHAR 320A
ENCODING 10555
SWIDTH 2400 0
DWIDTH 24 0
BBX 20 19 2 -2
BITMAP
080100
080100
100080
200040
200040
6FFF60
400320
C00330
C00330
C0FB30
CFC330
C00230
C00630
400420
600060
200040
300080
100080
080100
ENDCHAR
STARTCHAR 320B
ENCODING 10556
SWIDTH 2400 0
DWIDTH 24 0
BBX 20 19 2 -2
BITMAP
080100
080100
100080
200040
200040
6FFE60
4C0020
CC0030
CC0030
CFFE30
CC0030
CC0030
CC0030
4C0020
6FFF60
200040
300080
100080
080100
ENDCHAR
STARTCHAR 320C
ENCODING 10557
SWIDTH 2400 0
DWIDTH 24 0
BBX 20 19 2 -2
BITMAP
080100
080100
100080
200040
200040
6FFE60
400020
C00030
C20830
C20830
C30830
C30830
C10830
411820
6FFF60
200040
300080
100080
080100
ENDCHAR
STARTCHAR 320D
ENCODING 10558
SWIDTH 2400 0
DWIDTH 24 0
BBX 20 19 2 -2
BITMAP
080100
080100
100080
200040
23F840
600060
4FFF20
C00030
C00030
C1F030
C30830
C20430
C20430
420420
630860
21F040
300080
100080
080100
ENDCHAR
STARTCHAR 320E
ENCODING 10559
SWIDTH 2400 0
DWIDTH 24 0
BBX 20 20 2 -3
BITMAP
080000
080100
100080
200CC0
200C40
6FCC60
404C60
C0CC30
C08C30
C08C30
C10FB0
C30C30
C60C30
5C0C20
600C60
200C40
100C40
100080
080100
000200
ENDCHAR
STARTCHAR 320F
ENCODING 10560
SWIDTH 2400 0
DWIDTH 24 0
BBX 20 20 2 -3
BITMAP
080000
080100
100080
200CC0
200C40
780C60
580C60
D80C30
D80C30
D80C30
D80FB0
D80C30
D82C30
5FEC20
600C60
200C40
100C40
100080
080100
000200
ENDCHAR
STARTCHAR 3210
ENCODING 10561
SWIDTH 2400 0
DWIDTH 24 0
BBX 20 20 2 -3
BITMAP
080000
080100
100080
200CC0
200C40
7FCC60
580C60
D80C30
D80C30
D80C30
D80FB0
D80C30
DDEC30
5F8C20
600C60
200C40
300C40
100080
080100
000200
ENDCHAR
STARTCHAR 3211
ENCODING 10562
SWIDTH 2400 0
DWIDTH 24 0
BBX 20 19 2 -2
BITMAP
080100
080100
100080
200C40
200C40
7FEC60
406C20
C06C30
C06C30
CFEC30
CC0FB0
CC0C30
CC0C30
CC0C20
6FFC60
600C40
200C80
100080
180100
ENDCHAR
STARTCHAR 3212
ENCODING 10563
SWIDTH 2400 0
DWIDTH 24 0
BBX 20 20 2 -3
BITMAP
080000
080100
100080
200CC0
200C40
7FCC60
584C60
D84C30
D84C30
D84C30
D84FB0
D84C30
D84C30
5FCC20
600C60
200C40
100C40
100080
080100
000200
ENDCHAR
STARTCHAR 3213
ENCODING 10564
SWIDTH 2400 0
DWIDTH 24 0
BBX 20 20 2 -3
BITMAP
080000
080100
100080
200CC0
200C40
600C60
586C60
D86C30
D86C30
DFEC30
D86FB0
D86C30
D86C30
586C20
7FEC60
200C40
300C40
100080
080100
000200
ENDCHAR
STARTCHAR 3214
ENCODING 10565
SWIDTH 2400 0
DWIDTH 24 0
BBX 20 20 2 -3
BITMAP
080000
080100
100080
200CC0
200C40
630C60
430C60
C30C30
C30C30
C30C30
C78FB0
C48C30
C8CC30
586C20
702C60
200C40
100C40
100080
080100
000200
ENDCHAR
STARTCHAR 3215
ENCODING 10566
SWIDTH 2400 0
DWIDTH 24 0
BBX 20 20 2 -3
BITMAP
080000
080100
100080
200CC0
200C40
678C60
4CCC60
D86C30
D86C30
D86C30
D86FB0
D86C30
D86C30
4CCC20
678C60
200C40
300C40
100080
080100
000200
ENDCHAR
STARTCHAR 3216
ENCODING 10567
SWIDTH 2400 0
DWIDTH 24 0
BBX 20 20 2 -3
BITMAP
080000
080100
100080
200CC0
200C40
7FEC60
430C60
C30C30
C30C30
C78C30
C48FB0
CCCC30
C84C30
502C20
600C60
200C40
100C40
100080
080100
000200
ENDCHAR
STARTCHAR 3217
ENCODING 10568
SWIDTH 2400 0
DWIDTH 24 0
BBX 20 20 2 -3
BITMAP
080000
080100
100080
200CC0
27CC40
600C60
400C60
CFEC30
C10C30
C10C30
C38FB0
C28C30
C6CC30
4C6C20
682C60
200C40
300C40
100080
080100
000200
ENDCHAR
STARTCHAR 3218
ENCODING 10569
SWIDTH 2400 0
DWIDTH 24 0
BBX 20 20 2 -3
BITMAP
080000
080100
100080
200CC0
200C40
6FCC60
404C60
C04C30
CFCC30
DECC30
C08FB0
C18C30
C10C30
460C20
6C0C60
200C40
300C40
100080
080100
000200
ENDCHAR
STARTCHAR 3219
ENCODING 10570
SWIDTH 2400 0
DWIDTH 24 0
BBX 20 20 2 -3
BITMAP
080000
080100
100080
200CC0
200C40
7FEC60
580C60
D80C30
D80C30
DFCC30
D80FB0
D80C30
D80C30
582C20
7FCC60
200C40
300C40
100080
080100
000200
ENDCHAR
STARTCHAR 321A
ENCODING 10571
SWIDTH 2400 0
DWIDTH 24 0
BBX 20 20 2 -3
BITMAP
080000
080100
100080
200CC0
200C40
7FEC60
400C60
C40C30
C4CC30
C4CC30
C4CFB0
C4CC30
C7FC30
5FCC20
600C60
200C40
300C40
100080
080100
000200
ENDCHAR
STARTCHAR 321B
ENCODING 10572
SWIDTH 2400 0
DWIDTH 24 0
BBX 20 20 2 -3
BITMAP
080000
080100
100080
200CC0
278C40
600C60
400C60
DFEC30
C00C30
C78C30
C8CFB0
C84C30
C84C30
4CCC20
678C60
200C40
300C40
100080
080100
000200
ENDCHAR
STARTCHAR 249C
ENCODING 10573
SWIDTH 2400 0
DWIDTH 24 0
BBX 20 19 2 -2
BITMAP
080100
080100
100080
200040
200040
60F860
410C20
C30430
C00C30
C1FC30
C3CC30
C30C30
C30C30
431C20
61F760
200040
300080
100080
080100
ENDCHAR
STARTCHAR 249D
ENCODING 10574
SWIDTH 2400 0
DWIDTH 24 0
BBX 20 19 2 -2
BITMAP
080100
080100
100080
230040
230040
630060
430020
C37830
C38C30
C30630
C30630
C30630
C30630
430620
630E60
238C40
337880
100080
080100
ENDCHAR
STARTCHAR 249E
ENCODING 10575
SWIDTH 2400 0
DWIDTH 24 0
BBX 20 19 2 -2
BITMAP
080100
080100
100080
200040
200040
60F060
411820
C20830
C60830
C60030
C60030
C60830
C20830
431820
60F060
200040
300080
100080
080100
ENDCHAR
STARTCHAR 249F
ENCODING 10576
SWIDTH 2400 0
DWIDTH 24 0
BBX 20 19 2 -2
BITMAP
080100
100100
100C80
200C40
200C40
600C60
41EC20
C23C30
C21C30
C40C30
C40C30
C40C30
C40C30
440C20
621C60
223C40
31EC80
100080
080100
ENDCHAR
STARTCHAR 24A0
ENCODING 10577
SWIDTH 2400 0
DWIDTH 24 0
BBX 20 19 2 -2
BITMAP
080100
080100
100080
200040
200040
60F060
411820
C20830
C60C30
C7FC30
C60030
C60030
C60C30
431C20
61F060
200040
300080
100080
080100
ENDCHAR
STARTCHAR 24A1
ENCODING 10578
SWIDTH 2400 0
DWIDTH 24 0
BBX 20 19 2 -2
BITMAP
080100
080100
100080
201840
207840
606060
406020
C1F830
C06030
C06030
C06030
C06030
C06030
406020
606060
206040
306080
100080
080100
ENDCHAR
STARTCHAR 24A2
ENCODING 10579
SWIDTH 2400 0
DWIDTH 24 0
BBX 20 19 2 -2
BITMAP
080100
080100
100080
21EC40
231C40
671C60
460C20
C60C30
C60C30
C60C30
C60C30
C61C30
C31C30
41EC20
620860
221840
31E080
100080
080100
ENDCHAR
STARTCHAR 24A3
ENCODING 10580
SWIDTH 2400 0
DWIDTH 24 0
BBX 20 19 2 -2
BITMAP
080100
080100
120080
220040
220040
620060
42F020
C3D830
C30C30
C30C30
C30C30
C30C30
C30C30
430C20
630C60
230C40
330C80
100080
080100
ENDCHAR
STARTCHAR 24A4
ENCODING 10581
SWIDTH 2400 0
DWIDTH 24 0
BBX 20 19 2 -2
BITMAP
080100
080100
100080
206040
206040
600060
400020
C06030
C06030
C06030
C06030
C06030
C06030
406020
606060
206040
306080
100080
080100
ENDCHAR
STARTCHAR 24A5
ENCODING 10582
SWIDTH 2400 0
DWIDTH 24 0
BBX 20 19 2 -2
BITMAP
080100
080100
106080
200040
200040
606060
406020
C06030
C06030
C06030
C06030
C06030
C06030
406020
606060
206040
306080
11E080
098100
ENDCHAR
STARTCHAR 24A6
ENCODING 10583
SWIDTH 2400 0
DWIDTH 24 0
BBX 20 19 2 -2
BITMAP
080100
080100
130080
230040
230040
630060
430420
C31830
C33030
C36030
C3C030
C3A030
C33030
431020
630860
230840
330480
100080
080100
ENDCHAR
STARTCHAR 24A7
ENCODING 10584
SWIDTH 2400 0
DWIDTH 24 0
BBX 20 19 2 -2
BITMAP
080100
080100
100080
206040
206040
606060
406020
C06030
C06030
C06030
C06030
C06030
C06030
406020
606060
206040
306080
100080
080100
ENDCHAR
STARTCHAR 24A8
ENCODING 10585
SWIDTH 2400 0
DWIDTH 24 0
BBX 20 19 2 -2
BITMAP
080100
080100
100080
200040
390040
7FCF60
5C73A0
D841B0
D841B0
D841B0
D841B0
D841B0
D841B0
5841A0
7841E0
200040
300080
100080
080100
ENDCHAR
STARTCHAR 24A9
ENCODING 10586
SWIDTH 2400 0
DWIDTH 24 0
BBX 20 19 2 -2
BITMAP
080100
080100
100080
200040
220040
62F860
439C20
C30C30
C30C30
C30C30
C30C30
C30C30
C30C30
430C20
630C60
230C40
300080
100080
080100
ENDCHAR
STARTCHAR 24AA
ENCODING 10587
SWIDTH 2400 0
DWIDTH 24 0
BBX 20 19 2 -2
BITMAP
080100
080100
100080
200040
200040
61F060
431820
C21830
C60C30
C60C30
C60C30
C60C30
C20830
431820
61F060
200040
300080
100080
080100
ENDCHAR
STARTCHAR 24AB
ENCODING 10588
SWIDTH 2400 0
DWIDTH 24 0
BBX 20 19 2 -2
BITMAP
080100
080100
100080
237840
238C40
638C60
430620
C30630
C30630
C30630
C30630
C38C30
C38C30
437820
630060
230040
330080
100080
080100
ENDCHAR
STARTCHAR 24AC
ENCODING 10589
SWIDTH 2400 0
DWIDTH 24 0
BBX 20 19 2 -2
BITMAP
080100
080100
100080
21EC40
221C40
641C60
440C20
C40C30
C40C30
C40C30
C41C30
C21C30
C1EC30
400C20
600C60
200C40
300C80
100080
080100
ENDCHAR
STARTCHAR 24AD
ENCODING 10590
SWIDTH 2400 0
DWIDTH 24 0
BBX 20 19 2 -2
BITMAP
080100
080100
100080
200040
200040
619860
41F020
C1C030
C18030
C18030
C18030
C18030
C18030
418020
618060
218040
300080
100080
080100
ENDCHAR
STARTCHAR 24AE
ENCODING 10591
SWIDTH 2400 0
DWIDTH 24 0
BBX 20 19 2 -2
BITMAP
080100
080100
100080
200040
20F040
611860
410820
C30030
C1E030
C0F830
C01830
C20830
C30830
411820
61F060
200040
300080
100080
080100
ENDCHAR
STARTCHAR 24AF
ENCODING 10592
SWIDTH 2400 0
DWIDTH 24 0
BBX 20 19 2 -2
BITMAP
080100
080100
100080
204040
204040
604060
41F820
C04030
C04030
C04030
C04030
C04030
C04030
404020
606060
203040
300080
100080
080100
ENDCHAR
STARTCHAR 24B0
ENCODING 10593
SWIDTH 2400 0
DWIDTH 24 0
BBX 20 19 2 -2
BITMAP
080100
080100
100080
200040
200040
630C60
430C20
C30C30
C30C30
C30C30
C30C30
C30C30
C30C30
431C20
61FC60
20EC40
300080
100080
080100
ENDCHAR
STARTCHAR 24B1
ENCODING 10594
SWIDTH 2400 0
DWIDTH 24 0
BBX 20 19 2 -2
BITMAP
080100
080100
100080
200040
200040
620860
420820
C30830
C11830
C11030
C19030
C0B030
C0A030
40E020
606060
204040
300080
100080
080100
ENDCHAR
STARTCHAR 24B2
ENCODING 10595
SWIDTH 2400 0
DWIDTH 24 0
BBX 20 19 2 -2
BITMAP
080100
080100
100080
200040
200040
684160
486120
C8E230
CCA230
C4B230
C49630
C59430
C71430
431C20
630860
230840
300880
100080
080100
ENDCHAR
STARTCHAR 24B3
ENCODING 10596
SWIDTH 2400 0
DWIDTH 24 0
BBX 20 19 2 -2
BITMAP
080100
080100
100080
200040
220840
620860
411020
C1B030
C0A030
C04030
C0E030
C0A030
C11030
411820
620860
200040
300080
100080
080100
ENDCHAR
STARTCHAR 24B4
ENCODING 10597
SWIDTH 2400 0
DWIDTH 24 0
BBX 20 19 2 -2
BITMAP
080100
080100
100080
220040
220840
630860
410820
C11030
C19030
C09030
C0A030
C0E030
C06030
406020
604060
204040
338080
110080
080100
ENDCHAR
STARTCHAR 24B5
ENCODING 10598
SWIDTH 2400 0
DWIDTH 24 0
BBX 20 19 2 -2
BITMAP
080100
080100
100080
200040
200040
63FC60
401820
C01030
C02030
C06030
C04030
C08030
C10030
430020
63FC60
200040
300080
100080
080100
ENDCHAR
STARTCHAR 2474
ENCODING 10599
SWIDTH 2400 0
DWIDTH 24 0
BBX 20 19 2 -2
BITMAP
080100
080100
100080
203040
203040
607060
43F020
C03030
C03030
C03030
C03030
C03030
C03030
403020
603060
203040
300080
100080
080100
ENDCHAR
STARTCHAR 2475
ENCODING 10600
SWIDTH 2400 0
DWIDTH 24 0
BBX 20 19 2 -2
BITMAP
080100
080100
100080
20F040
219840
630C60
430C20
C30C30
C01830
C03830
C06030
C0C030
C30030
420020
660060
27FC40
300080
100080
080100
ENDCHAR
STARTCHAR 2476
ENCODING 10601
SWIDTH 2400 0
DWIDTH 24 0
BBX 20 19 2 -2
BITMAP
080100
080100
100080
20F040
219840
630C60
430C20
C30C30
C01C30
C0F830
C01C30
C00C30
C60430
460420
660460
230840
31F080
100080
080100
ENDCHAR
STARTCHAR 2477
ENCODING 10602
SWIDTH 2400 0
DWIDTH 24 0
BBX 20 19 2 -2
BITMAP
080100
080100
100080
203040
207040
60F060
40B020
C13030
C13030
C23030
C63030
C43030
CFFC30
403020
603060
203040
300080
100080
080100
ENDCHAR
STARTCHAR 2478
ENCODING 10603
SWIDTH 2400 0
DWIDTH 24 0
BBX 20 19 2 -2
BITMAP
080100
080100
100080
23FC40
220040
620060
420020
C20030
C2E030
C31830
C20830
C00C30
C00C30
440C20
660860
221040
31E080
100080
080100
ENDCHAR
STARTCHAR 2479
ENCODING 10604
SWIDTH 2400 0
DWIDTH 24 0
BBX 20 19 2 -2
BITMAP
080100
080100
100080
20F040
218840
630C60
420820
C60030
C6F030
C71830
C60C30
C60C30
C60C30
460C20
620C60
231840
30F080
100080
080100
ENDCHAR
STARTCHAR 247A
ENCODING 10605
SWIDTH 2400 0
DWIDTH 24 0
BBX 20 19 2 -2
BITMAP
080100
080100
100080
200040
23FE40
600C60
400820
C01030
C03030
C02030
C06030
C04030
C04030
40C020
608060
208040
308080
100080
080100
ENDCHAR
STARTCHAR 247B
ENCODING 10606
SWIDTH 2400 0
DWIDTH 24 0
BBX 20 19 2 -2
BITMAP
080100
080100
100080
20F040
219840
630C60
430C20
C30C30
C19830
C1F830
C11830
C20C30
C60C30
460C20
660C60
231840
31E080
100080
080100
ENDCHAR
STARTCHAR 247C
ENCODING 10607
SWIDTH 2400 0
DWIDTH 24 0
BBX 20 19 2 -2
BITMAP
080100
080100
100080
20F040
218840
630860
430420
C30430
C30430
C30430
C18C30
C0F430
C00430
420420
630860
211840
30F080
100080
080100
ENDCHAR
STARTCHAR 247D
ENCODING 10608
SWIDTH 2400 0
DWIDTH 24 0
BBX 20 19 2 -2
BITMAP
080100
080100
100C80
261E40
263A40
7E3160
463120
C63130
C63130
C63130
C63130
C63130
C63130
463120
663160
263240
361A80
160C80
080100
ENDCHAR
STARTCHAR 247E
ENCODING 10609
SWIDTH 2400 0
DWIDTH 24 0
BBX 20 19 2 -2
BITMAP
080100
080100
100080
260440
260440
7E1C60
460420
C60430
C60430
C60430
C60430
C60430
C60430
460420
660460
260440
360480
160480
080100
ENDCHAR
STARTCHAR 247F
ENCODING 10610
SWIDTH 2400 0
DWIDTH 24 0
BBX 20 19 2 -2
BITMAP
080100
080100
100080
261E40
262340
7E2360
462320
C60730
C60630
C60C30
C61830
C61030
C62030
462020
664060
264040
364080
167C80
080100
ENDCHAR
STARTCHAR 2480
ENCODING 10611
SWIDTH 2400 0
DWIDTH 24 0
BBX 20 19 2 -2
BITMAP
080100
080100
103880
263C40
266640
7E4660
460620
C60630
C61C30
C63C30
C60630
C60230
C60230
466220
666260
266240
367480
161880
080100
ENDCHAR
STARTCHAR 2481
ENCODING 10612
SWIDTH 2400 0
DWIDTH 24 0
BBX 20 19 2 -2
BITMAP
080100
080100
100080
260E40
260E40
7E1660
461620
C61630
C62630
C62630
C62630
C64630
C64630
46FFA0
660660
260640
360680
160680
080100
ENDCHAR
STARTCHAR 2482
ENCODING 10613
SWIDTH 2400 0
DWIDTH 24 0
BBX 20 19 2 -2
BITMAP
080100
080100
107E80
266040
266040
7E6060
466020
C66030
C67E30
C66130
C66130
C64130
C60130
460120
660160
266160
3622C0
163C80
080100
ENDCHAR
STARTCHAR 00B9
ENCODING 10614
SWIDTH 2400 0
DWIDTH 24 0
BBX 5 10 8 8
BITMAP
18
18
F8
18
18
18
18
18
18
18
ENDCHAR
STARTCHAR 00B2
ENCODING 10615
SWIDTH 2400 0
DWIDTH 24 0
BBX 7 10 8 8
BITMAP
3C
66
66
06
0E
1C
78
60
C0
FE
ENDCHAR
STARTCHAR 00B3
ENCODING 10616
SWIDTH 2400 0
DWIDTH 24 0
BBX 7 10 8 8
BITMAP
78
44
44
04
18
0C
06
C6
C4
7C
ENDCHAR
STARTCHAR 2074
ENCODING 10617
SWIDTH 2400 0
DWIDTH 24 0
BBX 9 10 7 8
BITMAP
0E00
0E00
1600
2600
2600
4600
FF80
0600
0600
0600
ENDCHAR
STARTCHAR 207F
ENCODING 10618
SWIDTH 2400 0
DWIDTH 24 0
BBX 6 8 9 10
BITMAP
10
FC
CC
CC
CC
CC
CC
CC
ENDCHAR
STARTCHAR 2081
ENCODING 10619
SWIDTH 2400 0
DWIDTH 24 0
BBX 5 10 8 -3
BITMAP
18
18
F8
18
18
18
18
18
18
18
ENDCHAR
STARTCHAR 2082
ENCODING 10620
SWIDTH 2400 0
DWIDTH 24 0
BBX 7 10 8 -2
BITMAP
38
7E
C6
C6
06
18
30
40
C0
FE
ENDCHAR
STARTCHAR 2083
ENCODING 10621
SWIDTH 2400 0
DWIDTH 24 0
BBX 7 10 8 -3
BITMAP
7C
C6
C2
06
1C
0E
02
C2
C2
7C
ENDCHAR
STARTCHAR 2084
ENCODING 10622
SWIDTH 2400 0
DWIDTH 24 0
BBX 9 10 7 -3
BITMAP
0E00
0E00
1600
3600
2600
6600
FF80
0600
0600
0600
ENDCHAR
STARTCHAR 3041
ENCODING 10785
SWIDTH 2400 0
DWIDTH 24 0
BBX 11 13 6 -2
BITMAP
0800
0800
0980
7E00
0900
0900
1FC0
2A20
4A20
8C20
8820
B840
4180
ENDCHAR
STARTCHAR 3042
ENCODING 10786
SWIDTH 2400 0
DWIDTH 24 0
BBX 16 19 4 -2
BITMAP
0200
0200
0200
0270
7F80
0400
0420
0420
07F8
0C66
1442
24C1
4481
8581
8701
8601
8E02
7904
0038
ENDCHAR
STARTCHAR 3043
ENCODING 10787
SWIDTH 2400 0
DWIDTH 24 0
BBX 12 10 6 -2
BITMAP
8000
8080
8040
8040
8020
8020
4010
4C00
4800
3000
ENDCHAR
STARTCHAR 3044
ENCODING 10788
SWIDTH 2400 0
DWIDTH 24 0
BBX 16 14 4 1
BITMAP
C000
C000
C018
C008
C004
C004
C002
4002
6001
6001
2081
3100
1300
1E00
ENDCHAR
STARTCHAR 3045
ENCODING 10789
SWIDTH 2400 0
DWIDTH 24 0
BBX 7 14 8 -2
BITMAP
20
18
04
00
1C
66
82
02
02
02
02
04
0C
18
ENDCHAR
STARTCHAR 3046
ENCODING 10790
SWIDTH 2400 0
DWIDTH 24 0
BBX 10 20 6 -3
BITMAP
3000
1C00
0700
0000
0000
0000
1F80
60C0
C040
0040
0040
0040
0040
0040
0080
0080
0180
0300
0600
0400
ENDCHAR
STARTCHAR 3047
ENCODING 10791
SWIDTH 2400 0
DWIDTH 24 0
BBX 11 12 7 -2
BITMAP
0C00
0300
0000
1E00
6400
0C00
0800
1C00
2400
2200
4200
83E0
ENDCHAR
STARTCHAR 3048
ENCODING 10792
SWIDTH 2400 0
DWIDTH 24 0
BBX 15 18 5 -2
BITMAP
0E00
03C0
0040
0000
0080
0F80
7980
0100
0200
0600
0400
0F00
1980
3080
2080
4080
80CE
003C
ENDCHAR
STARTCHAR 3049
ENCODING 10793
SWIDTH 2400 0
DWIDTH 24 0
BBX 12 13 6 -2
BITMAP
1000
1000
10C0
1E20
7010
1000
1780
1840
7020
5020
9040
5040
3380
ENDCHAR
STARTCHAR 304A
ENCODING 10794
SWIDTH 2400 0
DWIDTH 24 0
BBX 16 19 4 -2
BITMAP
0800
0800
0800
080C
0B86
FE03
0801
0800
0800
0BF8
0C04
1802
2802
6802
C802
C806
6C1C
3C70
0800
ENDCHAR
STARTCHAR 304B
ENCODING 10795
SWIDTH 2400 0
DWIDTH 24 0
BBX 18 17 3 -1
BITMAP
060000
060000
040000
040400
04C600
3FE300
EC2180
082080
0820C0
082040
102000
102000
204000
204000
404000
C0C000
878000
ENDCHAR
STARTCHAR 304C
ENCODING 10796
SWIDTH 2400 0
DWIDTH 24 0
BBX 18 18 3 -1
BITMAP
000080
060240
060100
040080
040400
05C200
7FE300
EC2180
082080
0820C0
082040
102000
102000
204000
204000
404000
C0C000
878000
ENDCHAR
STARTCHAR 304D
ENCODING 10797
SWIDTH 2400 0
DWIDTH 24 0
BBX 12 19 6 -2
BITMAP
0800
0800
0CC0
0700
FC00
0230
03E0
0F00
F100
0080
00C0
3F40
C0E0
8020
8000
8000
C000
7F80
0600
ENDCHAR
STARTCHAR 304E
ENCODING 10798
SWIDTH 2400 0
DWIDTH 24 0
BBX 15 19 6 -2
BITMAP
080C
0816
0CC8
0708
FC04
0230
03E0
0F00
F100
0080
00C0
3F40
C0E0
8020
8000
8000
C000
7F80
0600
ENDCHAR
STARTCHAR 304F
ENCODING 10799
SWIDTH 2400 0
DWIDTH 24 0
BBX 7 20 8 -3
BITMAP
02
06
0C
08
10
30
60
40
80
80
80
40
60
30
10
18
0C
04
06
02
ENDCHAR
STARTCHAR 3050
ENCODING 10800
SWIDTH 2400 0
DWIDTH 24 0
BBX 12 20 8 -3
BITMAP
0400
0400
0C00
1840
1020
2090
6040
4040
8000
8000
8000
C000
6000
2000
1000
1800
0800
0C00
0600
0200
ENDCHAR
STARTCHAR 3051
ENCODING 10801
SWIDTH 2400 0
DWIDTH 24 0
BBX 16 19 5 -2
BITMAP
0020
2010
2010
6010
4017
47FC
C010
C010
8010
8010
8010
8010
8010
A030
A020
C020
4060
40C0
0080
ENDCHAR
STARTCHAR 3052
ENCODING 10802
SWIDTH 2400 0
DWIDTH 24 0
BBX 16 20 5 -2
BITMAP
0002
0021
4014
4012
4010
C017
87FC
8010
8010
8010
8010
8010
8010
8010
A030
A020
C020
4040
40C0
0080
ENDCHAR
STARTCHAR 3053
ENCODING 10803
SWIDTH 2400 0
DWIDTH 24 0
BBX 13 15 5 0
BITMAP
6000
3FE0
0000
0000
0000
0000
0000
0000
0000
0000
0000
8000
C000
3EF8
07E0
ENDCHAR
STARTCHAR 3054
ENCODING 10804
SWIDTH 2400 0
DWIDTH 24 0
BBX 17 15 5 0
BITMAP
600000
3FE200
000100
000C80
000600
000200
000000
000000
000000
000000
000000
800000
E00000
3EF800
07E000
ENDCHAR
STARTCHAR 3055
ENCODING 10805
SWIDTH 2400 0
DWIDTH 24 0
BBX 13 17 5 -1
BITMAP
0600
0200
0318
01F0
7F80
0080
00C0
0040
0060
3FB0
6070
4018
4000
C000
4000
7000
1FC0
ENDCHAR
STARTCHAR 3056
ENCODING 10806
SWIDTH 2400 0
DWIDTH 24 0
BBX 15 18 6 -1
BITMAP
0006
041A
0404
0670
0FC0
FF00
0100
0080
0080
0040
7FE0
C0F0
8030
8000
8000
8000
6000
1F80
ENDCHAR
STARTCHAR 3057
ENCODING 10807
SWIDTH 2400 0
DWIDTH 24 0
BBX 13 17 6 -1
BITMAP
6000
6000
4000
4000
4000
4000
C000
C000
C000
C000
C000
C008
C018
C010
4030
60E0
3F80
ENDCHAR
STARTCHAR 3058
ENCODING 10808
SWIDTH 2400 0
DWIDTH 24 0
BBX 13 17 6 -1
BITMAP
6000
6060
4130
4080
4040
4000
C000
C000
C000
C000
C000
C008
C018
C010
4030
60E0
3F80
ENDCHAR
STARTCHAR 3059
ENCODING 10809
SWIDTH 2400 0
DWIDTH 24 0
BBX 18 20 3 -3
BITMAP
004000
004000
004000
00FFC0
FFE000
E04000
004000
03C000
044000
084000
086000
086000
0C4000
07C000
004000
00C000
008000
018000
030000
060000
ENDCHAR
STARTCHAR 305A
ENCODING 10810
SWIDTH 2400 0
DWIDTH 24 0
BBX 18 21 3 -3
BITMAP
000180
004600
004300
004000
00FFC0
FFE000
004000
004000
03C000
044000
084000
086000
086000
0C4000
07C000
004000
00C000
008000
018000
030000
060000
ENDCHAR
STARTCHAR 305B
ENCODING 10811
SWIDTH 2400 0
DWIDTH 24 0
BBX 18 17 3 -1
BITMAP
0C0800
0C0800
0C0800
0C0800
040800
0FFFC0
FC0800
040800
040800
080800
081000
087000
080000
080000
080000
040000
03FC00
ENDCHAR
STARTCHAR 305C
ENCODING 10812
SWIDTH 2400 0
DWIDTH 24 0
BBX 20 18 2 -1
BITMAP
000040
060420
060490
060440
060400
060400
0FFFE0
FE0400
060400
060400
040400
040800
043800
040000
040000
040000
060000
01FE00
ENDCHAR
STARTCHAR 305D
ENCODING 10813
SWIDTH 2400 0
DWIDTH 24 0
BBX 16 18 4 -2
BITMAP
1010
1820
0C20
0440
00C0
0080
01FF
0FB0
F8C0
8180
0100
0200
0200
0200
0200
0100
0180
0078
ENDCHAR
STARTCHAR 305E
ENCODING 10814
SWIDTH 2400 0
DWIDTH 24 0
BBX 17 18 4 -2
BITMAP
101100
182480
0C2200
044100
00C000
008000
01FF00
0FB000
F8C000
808000
010000
020000
020000
020000
020000
010000
018000
007800
ENDCHAR
STARTCHAR 305F
ENCODING 10815
SWIDTH 2400 0
DWIDTH 24 0
BBX 16 17 4 -1
BITMAP
0800
0800
0800
0800
1F00
F800
08FE
1800
1000
1000
1000
3000
2000
2000
6100
41E0
C03F
ENDCHAR
STARTCHAR 3060
ENCODING 10816
SWIDTH 2400 0
DWIDTH 24 0
BBX 17 17 4 -1
BITMAP
080000
080180
080480
080200
1F0100
F80000
08FE00
180000
100000
100000
100000
300000
200000
200000
610000
41E000
C03F00
ENDCHAR
STARTCHAR 3061
ENCODING 10817
SWIDTH 2400 0
DWIDTH 24 0
BBX 15 17 4 -1
BITMAP
0C00
0C00
0C20
EFE0
7E00
0C00
0C00
0C00
18F8
1B04
1C02
1802
1002
0002
0004
000C
03F0
ENDCHAR
STARTCHAR 3062
ENCODING 10818
SWIDTH 2400 0
DWIDTH 24 0
BBX 17 17 4 -1
BITMAP
080200
080100
082480
EFE200
7E0000
080000
080000
080000
10F800
170400
1C0200
180200
100200
000200
000400
000C00
03F000
ENDCHAR
STARTCHAR 3063
ENCODING 10819
SWIDTH 2400 0
DWIDTH 24 0
BBX 11 10 6 -3
BITMAP
0F80
7040
8020
0020
0020
0020
0040
00C0
0300
0400
ENDCHAR
STARTCHAR 3064
ENCODING 10820
SWIDTH 2400 0
DWIDTH 24 0
BBX 15 13 4 0
BITMAP
07F8
780C
C006
0002
0002
0002
0002
0002
0006
0004
0018
0070
0380
ENDCHAR
STARTCHAR 3065
ENCODING 10821
SWIDTH 2400 0
DWIDTH 24 0
BBX 18 17 4 0
BITMAP
000100
000080
000240
000100
07F000
7C1C00
C00600
000200
000200
000200
000200
000200
000200
000400
000800
007000
03C000
ENDCHAR
STARTCHAR 3066
ENCODING 10822
SWIDTH 2400 0
DWIDTH 24 0
BBX 16 16 4 -1
BITMAP
003F
1FE0
F8C0
0080
0100
0100
0200
0200
0200
0200
0200
0200
0100
0100
00C0
007C
ENDCHAR
STARTCHAR 3067
ENCODING 10823
SWIDTH 2400 0
DWIDTH 24 0
BBX 17 16 4 -1
BITMAP
003F00
1FE000
F8C000
008100
010480
010200
020100
020000
020000
020000
020000
020000
010000
010000
00C000
007C00
ENDCHAR
STARTCHAR 3068
ENCODING 10824
SWIDTH 2400 0
DWIDTH 24 0
BBX 11 17 6 -1
BITMAP
2000
3000
1000
1020
10E0
1B80
0E00
1800
3000
6000
C000
8000
8000
8000
C000
6020
3FE0
ENDCHAR
STARTCHAR 3069
ENCODING 10825
SWIDTH 2400 0
DWIDTH 24 0
BBX 15 17 6 -1
BITMAP
2004
3012
1008
1020
10C0
1B80
0E00
1800
3000
6000
C000
8000
8000
8000
C000
6020
3FE0
ENDCHAR
STARTCHAR 306A
ENCODING 10826
SWIDTH 2400 0
DWIDTH 24 0
BBX 16 19 4 -2
BITMAP
0400
0C00
0C00
0988
FF0C
0806
1803
1020
1020
2020
2020
4020
C020
8020
03F0
043C
0426
0420
03C0
ENDCHAR
STARTCHAR 306B
ENCODING 10827
SWIDTH 2400 0
DWIDTH 24 0
BBX 15 16 5 -1
BITMAP
4000
47FC
4000
4000
C000
8000
8000
8000
8000
8000
8000
A400
C300
C1FE
4000
4000
ENDCHAR
STARTCHAR 306C
ENCODING 10828
SWIDTH 2400 0
DWIDTH 24 0
BBX 18 17 3 -1
BITMAP
008000
008000
008000
20F000
23FC00
3C8200
188100
318100
390100
490100
4F0100
460100
863900
8D6700
584380
3064C0
003800
ENDCHAR
STARTCHAR 306D
ENCODING 10829
SWIDTH 2400 0
DWIDTH 24 0
BBX 18 19 3 -2
BITMAP
0C0000
0C0000
0C0000
080000
0E0800
3C7E00
EC8200
0B0100
0E0100
1C0100
180100
380100
280100
683E00
C84380
0842C0
084440
083800
080000
ENDCHAR
STARTCHAR 306E
ENCODING 10830
SWIDTH 2400 0
DWIDTH 24 0
BBX 17 15 3 -1
BITMAP
07F800
0CC600
10C300
208100
608080
418080
418080
810080
830080
820180
460100
440300
2C0600
180C00
001000
ENDCHAR
STARTCHAR 306F
ENCODING 10831
SWIDTH 2400 0
DWIDTH 24 0
BBX 16 19 4 -2
BITMAP
0020
0030
4030
4030
4033
C7FE
8010
8010
8010
8010
8010
8010
8070
A3FC
A216
E213
C220
41C0
4000
ENDCHAR
STARTCHAR 3070
ENCODING 10832
SWIDTH 2400 0
DWIDTH 24 0
BBX 17 19 4 -2
BITMAP
001100
001480
201300
201100
601180
63FF00
401800
C01800
C00800
C00800
C00800
C01000
C07000
D1FC00
D21600
621300
623000
61E000
200000
ENDCHAR
STARTCHAR 3071
ENCODING 10833
SWIDTH 2400 0
DWIDTH 24 0
BBX 17 20 4 -2
BITMAP
000300
001480
001480
201480
201300
601300
63FE00
401000
C01000
C01000
C01000
C01000
C01000
C0F000
D3FC00
D21600
621100
622000
61C000
200000
ENDCHAR
STARTCHAR 3072
ENCODING 10834
SWIDTH 2400 0
DWIDTH 24 0
BBX 17 17 3 -1
BITMAP
000800
0E0800
FC0C00
080C00
180E00
100B00
100980
200880
200800
200800
400800
400800
401000
201000
202000
184000
0F8000
ENDCHAR
STARTCHAR 3073
ENCODING 10835
SWIDTH 2400 0
DWIDTH 24 0
BBX 19 18 3 -1
BITMAP
000080
000840
0E0920
FC0C80
080C80
180E00
100B00
100980
200880
200800
200800
400800
400800
401000
201000
202000
184000
0F8000
ENDCHAR
STARTCHAR 3074
ENCODING 10836
SWIDTH 2400 0
DWIDTH 24 0
BBX 19 18 3 -1
BITMAP
0000C0
000920
0E0920
FC0D20
080CC0
180E00
100B00
100980
200880
200800
200800
400800
400800
401000
201000
202000
184000
0F8000
ENDCHAR
STARTCHAR 3075
ENCODING 10837
SWIDTH 2400 0
DWIDTH 24 0
BBX 17 17 3 -1
BITMAP
030000
018000
006000
000000
000000
000000
030000
010000
010000
018400
008200
004100
806180
882080
902000
63E000
008000
ENDCHAR
STARTCHAR 3076
ENCODING 10838
SWIDTH 2400 0
DWIDTH 24 0
BBX 17 17 3 -1
BITMAP
030000
018000
006200
000100
000480
000200
030000
010000
010000
018400
008200
004100
806180
882080
902000
63E000
008000
ENDCHAR
STARTCHAR 3077
ENCODING 10839
SWIDTH 2400 0
DWIDTH 24 0
BBX 17 17 3 -1
BITMAP
030000
018000
006300
000480
000480
000480
030300
010000
010000
018400
008200
004100
806180
882080
902000
63E000
008000
ENDCHAR
STARTCHAR 3078
ENCODING 10840
SWIDTH 2400 0
DWIDTH 24 0
BBX 18 8 3 3
BITMAP
070000
188000
304000
603000
C01800
800C00
000300
0001C0
ENDCHAR
STARTCHAR 3079
ENCODING 10841
SWIDTH 2400 0
DWIDTH 24 0
BBX 18 10 3 3
BITMAP
000200
000900
070400
188200
304000
603000
C01800
800C00
000300
0001C0
ENDCHAR
STARTCHAR 307A
ENCODING 10842
SWIDTH 2400 0
DWIDTH 24 0
BBX 18 10 3 3
BITMAP
000E00
000900
070900
188600
304000
603000
C01800
800C00
000300
0001C0
ENDCHAR
STARTCHAR 307B
ENCODING 10843
SWIDTH 2400 0
DWIDTH 24 0
BBX 16 18 4 -2
BITMAP
0003
47FE
4030
4030
C030
8036
87FE
8030
8030
8030
8030
8030
A1F0
A21C
C217
C211
41E0
4000
ENDCHAR
STARTCHAR 307C
ENCODING 10844
SWIDTH 2400 0
DWIDTH 24 0
BBX 19 18 3 -2
BITMAP
000300
43FE80
401040
401120
801080
801100
83FE00
801000
801800
801800
801800
801800
A1F800
C21E00
C21980
C21880
41F000
400000
ENDCHAR
STARTCHAR 307D
ENCODING 10845
SWIDTH 2400 0
DWIDTH 24 0
BBX 19 18 3 -2
BITMAP
400300
43FE00
4010C0
401120
801120
8010C0
83FF00
801000
801800
801800
801800
801800
A1F800
C21E00
C21980
C21880
41F000
400000
ENDCHAR
STARTCHAR 307E
ENCODING 10846
SWIDTH 2400 0
DWIDTH 24 0
BBX 11 18 6 -1
BITMAP
0400
0400
0400
84E0
FF80
0400
0400
0440
FF80
0400
0400
0400
0400
7E00
C580
8460
8400
7800
ENDCHAR
STARTCHAR 307F
ENCODING 10847
SWIDTH 2400 0
DWIDTH 24 0
BBX 17 16 3 -1
BITMAP
07C000
0C4000
00C000
008000
018400
010400
030400
0FC400
3A3C00
640E00
440B80
481880
981000
702000
206000
00C000
ENDCHAR
STARTCHAR 3080
ENCODING 10848
SWIDTH 2400 0
DWIDTH 24 0
BBX 16 18 4 -1
BITMAP
0800
0800
0800
8B80
7E04
0802
0801
3800
7800
8800
8800
8800
8804
9804
7804
1804
0C08
07F0
ENDCHAR
STARTCHAR 3081
ENCODING 10849
SWIDTH 2400 0
DWIDTH 24 0
BBX 17 17 3 -1
BITMAP
002000
006000
204000
204000
21F000
174C00
1C8200
388300
688180
6D0180
C50180
C60180
C60100
CB0300
510600
600C00
003000
ENDCHAR
STARTCHAR 3082
ENCODING 10850
SWIDTH 2400 0
DWIDTH 24 0
BBX 13 18 5 -1
BITMAP
0400
0800
0800
0800
6800
3F80
1800
1000
1020
D020
7F90
1010
1018
1008
1010
1010
0820
07C0
ENDCHAR
STARTCHAR 3083
ENCODING 10851
SWIDTH 2400 0
DWIDTH 24 0
BBX 12 12 6 -2
BITMAP
0400
4200
40E0
2730
3810
7010
9020
13C0
0800
0800
0400
0400
ENDCHAR
STARTCHAR 3084
ENCODING 10852
SWIDTH 2400 0
DWIDTH 24 0
BBX 17 18 3 -2
BITMAP
010000
008000
204000
300E00
107B00
118080
0E0080
180080
6C0080
C40300
067E00
020000
030000
010000
010000
018000
008000
008000
ENDCHAR
STARTCHAR 3085
ENCODING 10853
SWIDTH 2400 0
DWIDTH 24 0
BBX 11 13 6 -2
BITMAP
0200
0100
8100
87C0
8920
9120
A120
C120
CA20
C660
43C0
4200
0400
ENDCHAR
STARTCHAR 3086
ENCODING 10854
SWIDTH 2400 0
DWIDTH 24 0
BBX 16 18 4 -1
BITMAP
0080
00C0
4040
C040
80F8
8346
8C42
8842
9043
A043
E042
C042
C246
C384
81F8
C080
4100
0300
ENDCHAR
STARTCHAR 3087
ENCODING 10855
SWIDTH 2400 0
DWIDTH 24 0
BBX 9 13 7 -2
BITMAP
0800
0800
0800
0880
0F00
0800
0800
0800
0800
7800
8F00
8980
F000
ENDCHAR
STARTCHAR 3088
ENCODING 10856
SWIDTH 2400 0
DWIDTH 24 0
BBX 12 18 5 -1
BITMAP
0200
0200
0200
0200
0230
03E0
0200
0200
0200
0200
0200
0200
3E00
4380
82E0
8230
C600
7800
ENDCHAR
STARTCHAR 3089
ENCODING 10857
SWIDTH 2400 0
DWIDTH 24 0
BBX 12 18 6 -2
BITMAP
3800
0C00
0400
C000
C000
C000
8000
8000
87C0
9860
E020
C030
8010
0030
0020
0060
0180
1E00
ENDCHAR
STARTCHAR 308A
ENCODING 10858
SWIDTH 2400 0
DWIDTH 24 0
BBX 9 20 7 -3
BITMAP
4100
4180
C080
8080
8080
8080
8080
8080
A080
A080
C080
C080
C080
4080
0100
0100
0300
0200
0400
0400
ENDCHAR
STARTCHAR 308B
ENCODING 10859
SWIDTH 2400 0
DWIDTH 24 0
BBX 13 18 5 -2
BITMAP
0180
7F80
0100
0300
0600
0C00
0800
1FE0
3010
6018
C008
8008
0E08
1308
1190
10B0
0CE0
0300
ENDCHAR
STARTCHAR 308C
ENCODING 10860
SWIDTH 2400 0
DWIDTH 24 0
BBX 18 20 3 -3
BITMAP
080000
080000
080000
080000
0C1800
0E6C00
7C8C00
CD0C00
0E0C00
0C0C00
180C00
180C00
280C00
6808C0
480880
880980
080B00
080400
080000
080000
ENDCHAR
STARTCHAR 308D
ENCODING 10861
SWIDTH 2400 0
DWIDTH 24 0
BBX 15 18 3 -2
BITMAP
01E0
1FC0
00C0
0180
0100
0200
0400
0DF0
1E1C
180C
2006
4006
8006
0006
000C
0018
0070
01C0
ENDCHAR
STARTCHAR 308E
ENCODING 10862
SWIDTH 2400 0
DWIDTH 24 0
BBX 12 13 6 -3
BITMAP
1000
1000
1800
38C0
D720
1810
3010
3010
5010
9010
1060
1180
1000
ENDCHAR
STARTCHAR 308F
ENCODING 10863
SWIDTH 2400 0
DWIDTH 24 0
BBX 17 19 3 -2
BITMAP
040000
040000
040000
040000
060000
0E0000
767E00
058300
0E0180
0C0080
180080
380080
280080
680180
C80100
880600
080C00
083000
080000
ENDCHAR
STARTCHAR 3090
ENCODING 10864
SWIDTH 2400 0
DWIDTH 24 0
BBX 15 17 4 -1
BITMAP
0180
1F80
1080
0180
0100
0100
07F0
1E0C
3204
6606
4402
8402
8882
8B62
9A14
B31C
61F8
ENDCHAR
STARTCHAR 3091
ENCODING 10865
SWIDTH 2400 0
DWIDTH 24 0
BBX 16 18 4 -2
BITMAP
0060
0FE0
0840
0080
0180
03F8
070C
0C04
1B04
2484
0298
03F0
0C00
3078
78C6
4702
8303
0301
ENDCHAR
STARTCHAR 3092
ENCODING 10866
SWIDTH 2400 0
DWIDTH 24 0
BBX 14 19 4 -2
BITMAP
0400
0400
0400
7FC0
7E00
0800
1000
1600
3984
6098
40F0
8380
8680
0880
0880
1080
0800
0E70
03C0
ENDCHAR
STARTCHAR 3093
ENCODING 10867
SWIDTH 2400 0
DWIDTH 24 0
BBX 16 17 4 -1
BITMAP
0100
0300
0200
0600
0400
0C00
0800
1800
1000
3F80
3880
3080
60C1
4043
C042
C064
8038
ENDCHAR
STARTCHAR 30A1
ENCODING 11041
SWIDTH 2400 0
DWIDTH 24 0
BBX 11 11 6 -2
BITMAP
FFE0
0020
0440
0480
0500
0400
0400
0800
0800
1000
2000
ENDCHAR
STARTCHAR 30A2
ENCODING 11042
SWIDTH 2400 0
DWIDTH 24 0
BBX 15 15 4 -1
BITMAP
FFFE
0006
0204
0208
0210
0260
0200
0200
0200
0200
0400
0C00
0800
3000
6000
ENDCHAR
STARTCHAR 30A3
ENCODING 11043
SWIDTH 2400 0
DWIDTH 24 0
BBX 9 13 6 -2
BITMAP
0080
0080
0100
0200
0C00
1C00
6400
8400
0400
0400
0400
0400
0400
ENDCHAR
STARTCHAR 30A4
ENCODING 11044
SWIDTH 2400 0
DWIDTH 24 0
BBX 14 17 4 -1
BITMAP
000C
0018
0030
0060
00C0
0380
0780
1980
E180
0180
0180
0180
0180
0180
0180
0180
0180
ENDCHAR
STARTCHAR 30A5
ENCODING 11045
SWIDTH 2400 0
DWIDTH 24 0
BBX 9 12 7 -2
BITMAP
0800
0800
FF80
8080
8080
8080
8080
0100
0100
0200
0400
0800
ENDCHAR
STARTCHAR 30A6
ENCODING 11046
SWIDTH 2400 0
DWIDTH 24 0
BBX 14 17 5 -1
BITMAP
0300
0300
0300
FFFC
C00C
C00C
C00C
C00C
C008
C018
0010
0030
0020
0040
0080
0100
0600
ENDCHAR
STARTCHAR 30A7
ENCODING 11047
SWIDTH 2400 0
DWIDTH 24 0
BBX 12 8 5 -2
BITMAP
3FE0
0200
0200
0200
0200
0200
0200
FFF0
ENDCHAR
STARTCHAR 30A8
ENCODING 11048
SWIDTH 2400 0
DWIDTH 24 0
BBX 18 11 3 2
BITMAP
3FFF00
00C000
00C000
00C000
00C000
00C000
00C000
00C000
00C000
00C000
FFFFC0
ENDCHAR
STARTCHAR 30A9
ENCODING 11049
SWIDTH 2400 0
DWIDTH 24 0
BBX 11 12 7 -2
BITMAP
0200
0200
0200
FFE0
0600
0600
0A00
1200
2200
C200
0200
1E00
ENDCHAR
STARTCHAR 30AA
ENCODING 11050
SWIDTH 2400 0
DWIDTH 24 0
BBX 15 17 4 -1
BITMAP
0040
0040
0040
0040
FFFE
00C0
01C0
0140
0240
0640
0C40
1840
3040
E040
8040
0040
0780
ENDCHAR
STARTCHAR 30AB
ENCODING 11051
SWIDTH 2400 0
DWIDTH 24 0
BBX 13 17 5 -1
BITMAP
0200
0200
0200
0200
0200
FFF8
0208
0208
0208
0408
0408
0C08
0808
1810
3010
E030
81E0
ENDCHAR
STARTCHAR 30AC
ENCODING 11052
SWIDTH 2400 0
DWIDTH 24 0
BBX 17 18 5 -1
BITMAP
000200
020100
020480
020200
020000
020000
FFF800
020800
020800
020800
040800
040800
0C0800
080800
181000
301000
E03000
81E000
ENDCHAR
STARTCHAR 30AD
ENCODING 11053
SWIDTH 2400 0
DWIDTH 24 0
BBX 15 19 4 -2
BITMAP
0200
0200
0200
0200
033C
3FE0
6100
0100
0100
010E
07FC
FF80
0180
0080
0080
0080
0080
0080
00C0
ENDCHAR
STARTCHAR 30AE
ENCODING 11054
SWIDTH 2400 0
DWIDTH 24 0
BBX 17 20 4 -2
BITMAP
000100
020080
020200
020100
020000
033C00
3FE000
610000
010000
010000
010E00
07FC00
FF8000
018000
008000
008000
008000
008000
008000
00C000
ENDCHAR
STARTCHAR 30AF
ENCODING 11055
SWIDTH 2400 0
DWIDTH 24 0
BBX 13 19 4 -3
BITMAP
0100
0100
0200
0600
07F8
0810
1810
3030
6020
8060
0040
0080
0180
0300
0600
0C00
3000
E000
8000
ENDCHAR
STARTCHAR 30B0
ENCODING 11056
SWIDTH 2400 0
DWIDTH 24 0
BBX 17 19 5 -2
BITMAP
010200
030100
020480
060200
0FF000
081000
181000
303000
C02000
806000
004000
008000
010000
030000
060000
080000
300000
E00000
800000
ENDCHAR
STARTCHAR 30B1
ENCODING 11057
SWIDTH 2400 0
DWIDTH 24 0
BBX 17 18 3 -2
BITMAP
020000
020000
020000
060000
040000
0FFF80
083000
102000
202000
402000
806000
004000
004000
008000
018000
030000
060000
040000
ENDCHAR
STARTCHAR 30B2
ENCODING 11058
SWIDTH 2400 0
DWIDTH 24 0
BBX 19 19 3 -2
BITMAP
000080
020040
020120
020080
060000
040000
0FFF80
083000
102000
202000
402000
806000
004000
004000
008000
018000
030000
060000
040000
ENDCHAR
STARTCHAR 30B3
ENCODING 11059
SWIDTH 2400 0
DWIDTH 24 0
BBX 13 13 4 0
BITMAP
FFF8
0018
0018
0018
0018
0018
0018
0018
0018
0018
FFF8
0018
0018
ENDCHAR
STARTCHAR 30B4
ENCODING 11060
SWIDTH 2400 0
DWIDTH 24 0
BBX 17 18 5 0
BITMAP
000200
000100
000480
000200
000000
FFF000
001000
001000
001000
001000
001000
001000
001000
001000
001000
FFF000
001000
001000
ENDCHAR
STARTCHAR 30B5
ENCODING 11061
SWIDTH 2400 0
DWIDTH 24 0
BBX 19 18 2 -2
BITMAP
060C00
060C00
060C00
060C00
060C00
FFFFE0
060400
060400
060400
060400
060800
060800
000800
001800
003000
002000
00C000
008000
ENDCHAR
STARTCHAR 30B6
ENCODING 11062
SWIDTH 2400 0
DWIDTH 24 0
BBX 19 19 2 -2
BITMAP
000040
060D20
060C80
060C40
060400
060400
FFFFE0
060400
060400
060400
060400
060800
060800
000800
001800
003000
002000
00C000
008000
ENDCHAR
STARTCHAR 30B7
ENCODING 11063
SWIDTH 2400 0
DWIDTH 24 0
BBX 16 15 4 0
BITMAP
1800
0C00
0200
0000
C000
6001
1802
0806
000C
0018
0020
00C0
0380
0E00
3800
ENDCHAR
STARTCHAR 30B8
ENCODING 11064
SWIDTH 2400 0
DWIDTH 24 0
BBX 16 15 4 0
BITMAP
1806
0C10
0208
0000
C000
6001
1802
0806
000C
0018
0020
00C0
0380
0E00
3800
ENDCHAR
STARTCHAR 30B9
ENCODING 11065
SWIDTH 2400 0
DWIDTH 24 0
BBX 15 14 4 0
BITMAP
7FF0
0010
0010
0020
0020
0040
00C0
01E0
0130
0618
0C0C
1804
6002
C000
ENDCHAR
STARTCHAR 30BA
ENCODING 11066
SWIDTH 2400 0
DWIDTH 24 0
BBX 18 18 4 0
BITMAP
000100
000080
000240
000100
7FF000
001000
001000
002000
002000
004000
00C000
00E000
013000
021800
0C0C00
180400
600200
800000
ENDCHAR
STARTCHAR 30BB
ENCODING 11067
SWIDTH 2400 0
DWIDTH 24 0
BBX 16 16 2 0
BITMAP
0600
0600
0600
0600
061F
07F3
7F02
C602
0604
060C
0618
0600
0600
0600
0301
01FF
ENDCHAR
STARTCHAR 30BC
ENCODING 11068
SWIDTH 2400 0
DWIDTH 24 0
BBX 19 17 2 0
BITMAP
000040
060120
060080
060040
060000
061F00
07F300
7F0200
C60200
060400
060C00
061800
060000
060000
060000
030100
01FF00
ENDCHAR
STARTCHAR 30BD
ENCODING 11069
SWIDTH 2400 0
DWIDTH 24 0
BBX 13 16 5 -1
BITMAP
8008
C008
4008
6010
2010
3010
0020
0020
0060
0040
0080
0180
0300
0600
0C00
1800
ENDCHAR
STARTCHAR 30BE
ENCODING 11070
SWIDTH 2400 0
DWIDTH 24 0
BBX 17 19 5 -1
BITMAP
000100
000480
000200
800800
800800
401800
601000
201000
301000
002000
002000
004000
004000
008000
018000
030000
060000
0C0000
180000
ENDCHAR
STARTCHAR 30BF
ENCODING 11071
SWIDTH 2400 0
DWIDTH 24 0
BBX 13 18 5 -2
BITMAP
0200
0200
0600
0FF8
0810
1010
2030
C420
8260
01C0
00C0
0180
0100
0200
0400
1800
3000
C000
ENDCHAR
STARTCHAR 30C0
ENCODING 11072
SWIDTH 2400 0
DWIDTH 24 0
BBX 16 18 5 -2
BITMAP
0205
0202
0600
0FF8
0810
1010
2030
C420
8260
01C0
00C0
0180
0100
0200
0400
1800
3000
C000
ENDCHAR
STARTCHAR 30C1
ENCODING 11073
SWIDTH 2400 0
DWIDTH 24 0
BBX 16 18 4 -2
BITMAP
0010
00F0
3F80
0080
0080
0080
0080
FFFF
0080
0080
0100
0100
0100
0200
0200
0400
1800
3000
ENDCHAR
STARTCHAR 30C2
ENCODING 11074
SWIDTH 2400 0
DWIDTH 24 0
BBX 18 18 4 -2
BITMAP
001100
00F080
3F8240
008100
008000
008000
008000
FFFF00
008000
008000
010000
010000
010000
020000
020000
040000
180000
300000
ENDCHAR
STARTCHAR 30C3
ENCODING 11075
SWIDTH 2400 0
DWIDTH 24 0
BBX 10 11 7 -2
BITMAP
0840
8840
8840
4080
0080
0100
0100
0200
0400
0800
1000
ENDCHAR
STARTCHAR 30C4
ENCODING 11076
SWIDTH 2400 0
DWIDTH 24 0
BBX 15 17 4 -2
BITMAP
0202
C202
4106
6104
2104
2004
0008
0008
0010
0010
0020
0060
00C0
0180
0300
0E00
0800
ENDCHAR
STARTCHAR 30C5
ENCODING 11077
SWIDTH 2400 0
DWIDTH 24 0
BBX 18 20 4 -2
BITMAP
000080
000280
000140
020000
820000
430600
610400
210400
200400
000800
000800
001800
001000
002000
006000
00C000
018000
030000
0E0000
080000
ENDCHAR
STARTCHAR 30C6
ENCODING 11078
SWIDTH 2400 0
DWIDTH 24 0
BBX 17 17 3 -2
BITMAP
1FFC00
000000
000000
000000
000000
FFFF80
00C000
00C000
00C000
008000
018000
018000
010000
020000
040000
180000
100000
ENDCHAR
STARTCHAR 30C7
ENCODING 11079
SWIDTH 2400 0
DWIDTH 24 0
BBX 19 17 3 -2
BITMAP
1FFC40
000120
000080
000000
000000
FFFF80
00C000
00C000
00C000
008000
018000
018000
010000
020000
040000
180000
100000
ENDCHAR
STARTCHAR 30C8
ENCODING 11080
SWIDTH 2400 0
DWIDTH 24 0
BBX 7 17 9 -2
BITMAP
C0
C0
C0
C0
C0
F0
D8
CC
C6
C2
C0
C0
C0
C0
C0
C0
C0
ENDCHAR
STARTCHAR 30C9
ENCODING 11081
SWIDTH 2400 0
DWIDTH 24 0
BBX 10 18 9 -2
BITMAP
0080
C040
C200
C100
C000
C000
F000
D800
CC00
C600
C200
C000
C000
C000
C000
C000
C000
C000
ENDCHAR
STARTCHAR 30CA
ENCODING 11082
SWIDTH 2400 0
DWIDTH 24 0
BBX 17 19 4 -2
BITMAP
008000
00C000
00C000
00C000
00C000
008000
FFFF80
008000
008000
008000
008000
010000
010000
010000
020000
060000
0C0000
180000
100000
ENDCHAR
STARTCHAR 30CB
ENCODING 11083
SWIDTH 2400 0
DWIDTH 24 0
BBX 15 12 4 1
BITMAP
3FF8
0000
0000
0000
0000
0000
0000
0000
0000
0000
0000
FFFE
ENDCHAR
STARTCHAR 30CC
ENCODING 11084
SWIDTH 2400 0
DWIDTH 24 0
BBX 13 16 5 -1
BITMAP
7FF0
0030
0020
0020
1020
0C40
0740
0180
01C0
0170
0218
0400
0800
3000
E000
8000
ENDCHAR
STARTCHAR 30CD
ENCODING 11085
SWIDTH 2400 0
DWIDTH 24 0
BBX 16 18 3 -2
BITMAP
00C0
00C0
00C0
3FFC
001C
0018
0038
0070
00E0
03CC
0EC6
38C3
E0C1
00C0
00C0
00C0
00C0
00C0
ENDCHAR
STARTCHAR 30CE
ENCODING 11086
SWIDTH 2400 0
DWIDTH 24 0
BBX 12 17 5 -1
BITMAP
0010
0010
0030
0020
0060
0040
0040
0080
0080
0100
0300
0600
0400
0800
3000
6000
C000
ENDCHAR
STARTCHAR 30CF
ENCODING 11087
SWIDTH 2400 0
DWIDTH 24 0
BBX 17 12 3 1
BITMAP
041800
040800
040C00
040400
080600
080200
180300
100100
300100
600080
C00080
800000
ENDCHAR
STARTCHAR 30D0
ENCODING 11088
SWIDTH 2400 0
DWIDTH 24 0
BBX 18 15 3 1
BITMAP
000080
000040
000100
041880
040800
040C00
040400
080600
080200
180300
100100
300100
600080
C00080
800000
ENDCHAR
STARTCHAR 30D1
ENCODING 11089
SWIDTH 2400 0
DWIDTH 24 0
BBX 18 15 3 1
BITMAP
000180
000240
000240
041980
040800
040C00
040400
080600
080200
180300
100100
300100
600180
C00080
800000
ENDCHAR
STARTCHAR 30D2
ENCODING 11090
SWIDTH 2400 0
DWIDTH 24 0
BBX 12 16 6 0
BITMAP
C000
C000
C000
C000
C060
C180
DE00
F800
C000
C000
C000
C000
C000
C000
6000
3FF0
ENDCHAR
STARTCHAR 30D3
ENCODING 11091
SWIDTH 2400 0
DWIDTH 24 0
BBX 15 18 6 0
BITMAP
0004
0002
0008
C004
C000
C000
C060
C1C0
C700
FC00
C000
C000
C000
C000
C000
C000
6000
3FF0
ENDCHAR
STARTCHAR 30D4
ENCODING 11092
SWIDTH 2400 0
DWIDTH 24 0
BBX 15 18 6 0
BITMAP
000E
000A
0012
C00A
C004
C000
C060
C1C0
C700
FC00
C000
C000
C000
C000
C000
C000
6000
3FF0
ENDCHAR
STARTCHAR 30D5
ENCODING 11093
SWIDTH 2400 0
DWIDTH 24 0
BBX 14 16 4 -2
BITMAP
FFFC
0004
0004
000C
0008
0008
0018
0010
0020
0060
00C0
0180
0300
0600
1C00
1000
ENDCHAR
STARTCHAR 30D6
ENCODING 11094
SWIDTH 2400 0
DWIDTH 24 0
BBX 18 20 4 -2
BITMAP
000080
000240
000100
000000
FFFC00
000400
000400
000C00
000800
000800
001800
001000
002000
006000
00C000
018000
030000
060000
1C0000
100000
ENDCHAR
STARTCHAR 30D7
ENCODING 11095
SWIDTH 2400 0
DWIDTH 24 0
BBX 18 20 4 -2
BITMAP
000180
000240
000240
000180
FFFC00
000400
000400
000C00
000800
000800
001000
001000
002000
006000
00C000
018000
030000
060000
1C0000
100000
ENDCHAR
STARTCHAR 30D8
ENCODING 11096
SWIDTH 2400 0
DWIDTH 24 0
BBX 18 9 3 3
BITMAP
020000
070000
188000
304000
602000
C01800
800C00
000300
0001C0
ENDCHAR
STARTCHAR 30D9
ENCODING 11097
SWIDTH 2400 0
DWIDTH 24 0
BBX 18 12 3 3
BITMAP
000400
001200
000800
000400
070000
188000
304000
602000
C01800
800C00
000300
0001C0
ENDCHAR
STARTCHAR 30DA
ENCODING 11098
SWIDTH 2400 0
DWIDTH 24 0
BBX 18 12 3 3
BITMAP
000C00
001200
001200
000C00
070000
088000
304000
602000
C01800
800C00
000300
0001C0
ENDCHAR
STARTCHAR 30DB
ENCODING 11099
SWIDTH 2400 0
DWIDTH 24 0
BBX 17 17 3 -1
BITMAP
008000
008000
008000
008000
7FFF00
008000
008000
008000
088400
188600
108200
108100
208180
408080
808080
008000
0F8000
ENDCHAR
STARTCHAR 30DC
ENCODING 11100
SWIDTH 2400 0
DWIDTH 24 0
BBX 17 18 3 -1
BITMAP
000100
008500
008280
008000
008000
7FFF00
008000
008000
008000
088400
188600
108200
108100
208180
408080
808080
008000
0F8000
ENDCHAR
STARTCHAR 30DD
ENCODING 11101
SWIDTH 2400 0
DWIDTH 24 0
BBX 17 18 3 -1
BITMAP
000300
008480
008480
008300
008000
7FFF00
008000
008000
008000
088400
188600
108200
108100
208180
408080
808080
008000
0F8000
ENDCHAR
STARTCHAR 30DE
ENCODING 11102
SWIDTH 2400 0
DWIDTH 24 0
BBX 15 12 4 1
BITMAP
FFFE
0004
000C
0008
0018
0830
0460
02C0
0100
0080
00C0
0040
ENDCHAR
STARTCHAR 30DF
ENCODING 11103
SWIDTH 2400 0
DWIDTH 24 0
BBX 10 15 7 0
BITMAP
3000
1E00
0380
0000
0000
F000
1C00
0700
0100
0000
0000
7000
1E00
0380
00C0
ENDCHAR
STARTCHAR 30E0
ENCODING 11104
SWIDTH 2400 0
DWIDTH 24 0
BBX 15 16 4 0
BITMAP
0100
0100
0100
0100
0300
0200
0200
0600
0400
0410
0808
0808
1004
3FFE
F802
0002
ENDCHAR
STARTCHAR 30E1
ENCODING 11105
SWIDTH 2400 0
DWIDTH 24 0
BBX 13 16 4 -1
BITMAP
0018
0010
0010
0030
0820
0660
0340
0180
01C0
0320
0230
0410
1800
3000
E000
8000
ENDCHAR
STARTCHAR 30E2
ENCODING 11106
SWIDTH 2400 0
DWIDTH 24 0
BBX 16 15 4 -1
BITMAP
7FFC
0300
0300
0300
0300
0300
FFFF
0300
0300
0300
0300
0300
0300
0300
01FF
ENDCHAR
STARTCHAR 30E3
ENCODING 11107
SWIDTH 2400 0
DWIDTH 24 0
BBX 12 12 5 -2
BITMAP
0800
0800
04F0
0F10
F420
0440
0440
0400
0200
0200
0200
0200
ENDCHAR
STARTCHAR 30E4
ENCODING 11108
SWIDTH 2400 0
DWIDTH 24 0
BBX 15 18 4 -2
BITMAP
0800
0C00
0400
0400
043E
0FC2
FE04
0604
0608
0210
0230
0200
0200
0300
0300
0100
0100
0100
ENDCHAR
STARTCHAR 30E5
ENCODING 11109
SWIDTH 2400 0
DWIDTH 24 0
BBX 13 9 5 -2
BITMAP
1FC0
00C0
00C0
00C0
00C0
00C0
00C0
0080
FFF8
ENDCHAR
STARTCHAR 30E6
ENCODING 11110
SWIDTH 2400 0
DWIDTH 24 0
BBX 17 12 3 1
BITMAP
3FF000
001000
001000
001000
003000
003000
003000
003000
002000
002000
002000
FFFF80
ENDCHAR
STARTCHAR 30E7
ENCODING 11111
SWIDTH 2400 0
DWIDTH 24 0
BBX 9 11 7 -3
BITMAP
FF80
0080
0080
0080
7F80
0080
0080
0080
FF80
0080
0080
ENDCHAR
STARTCHAR 30E8
ENCODING 11112
SWIDTH 2400 0
DWIDTH 24 0
BBX 13 15 4 -1
BITMAP
FFF8
0018
0018
0018
0018
0018
FFF8
0018
0018
0018
0018
0018
FFF8
0018
0018
ENDCHAR
STARTCHAR 30E9
ENCODING 11113
SWIDTH 2400 0
DWIDTH 24 0
BBX 13 17 5 -2
BITMAP
7FF0
0000
0000
0000
0000
FFF8
0018
0010
0010
0020
0020
0040
0080
0180
0600
1C00
1000
ENDCHAR
STARTCHAR 30EA
ENCODING 11114
SWIDTH 2400 0
DWIDTH 24 0
BBX 9 18 7 -2
BITMAP
0080
C080
C080
C080
C080
C080
C080
C080
C080
C080
C180
0100
0100
0300
0200
0400
0C00
1800
ENDCHAR
STARTCHAR 30EB
ENCODING 11115
SWIDTH 2400 0
DWIDTH 24 0
BBX 17 15 4 0
BITMAP
198000
198000
198000
198000
198000
198000
198080
198180
118300
118200
318400
218800
61B000
41E000
818000
ENDCHAR
STARTCHAR 30EC
ENCODING 11116
SWIDTH 2400 0
DWIDTH 24 0
BBX 14 15 5 0
BITMAP
C000
C000
C000
C000
C000
C000
C004
C00C
C018
C030
C0C0
C180
C700
DC00
F000
ENDCHAR
STARTCHAR 30ED
ENCODING 11117
SWIDTH 2400 0
DWIDTH 24 0
BBX 12 14 6 -1
BITMAP
FFF0
C030
C030
C030
C030
C030
C030
C030
C030
C030
C030
FFF0
C030
C000
ENDCHAR
STARTCHAR 30EE
ENCODING 11118
SWIDTH 2400 0
DWIDTH 24 0
BBX 9 11 7 -2
BITMAP
FF80
8080
8080
8080
8080
8100
0100
0200
0200
0400
0800
ENDCHAR
STARTCHAR 30EF
ENCODING 11119
SWIDTH 2400 0
DWIDTH 24 0
BBX 13 16 5 -2
BITMAP
FFF8
C008
C008
C008
C008
C008
C010
0010
0010
0020
0020
0040
00C0
0180
0300
0600
ENDCHAR
STARTCHAR 30F0
ENCODING 11120
SWIDTH 2400 0
DWIDTH 24 0
BBX 18 18 3 -2
BITMAP
001000
001000
001000
001000
7FFF00
0C1000
0C1000
0C1000
0C1000
0C1000
0C1000
FFFFC0
001000
001000
001000
001000
001000
001000
ENDCHAR
STARTCHAR 30F1
ENCODING 11121
SWIDTH 2400 0
DWIDTH 24 0
BBX 18 13 2 1
BITMAP
1FFF00
000300
000200
000400
00CC00
00C000
00C000
00C000
00C000
00C000
00C000
00C000
FFFFC0
ENDCHAR
STARTCHAR 30F2
ENCODING 11122
SWIDTH 2400 0
DWIDTH 24 0
BBX 12 16 5 -1
BITMAP
FFF0
0010
0010
0010
0010
0010
FFE0
0020
0060
0040
0080
0180
0300
0600
1C00
7000
ENDCHAR
STARTCHAR 30F3
ENCODING 11123
SWIDTH 2400 0
DWIDTH 24 0
BBX 15 15 5 0
BITMAP
8000
6000
3000
1000
0002
0004
000C
0018
0030
0060
0180
0300
0C00
3000
C000
ENDCHAR
STARTCHAR 30F4
ENCODING 11124
SWIDTH 2400 0
DWIDTH 24 0
BBX 16 19 5 -1
BITMAP
0002
0001
0304
0302
0300
FFFC
C00C
C00C
C00C
C008
C018
0018
0010
0020
0060
00C0
0180
0300
0E00
ENDCHAR
STARTCHAR 30F5
ENCODING 11125
SWIDTH 2400 0
DWIDTH 24 0
BBX 9 11 7 -2
BITMAP
0800
0800
0800
FF80
0880
0880
0880
1080
1080
2100
4600
ENDCHAR
STARTCHAR 30F6
ENCODING 11126
SWIDTH 2400 0
DWIDTH 24 0
BBX 12 12 6 -2
BITMAP
0800
1000
1000
1FF0
2100
4100
8100
0200
0200
0200
0400
0800
ENDCHAR
STARTCHAR 0410
ENCODING 11297
SWIDTH 2400 0
DWIDTH 24 0
BBX 13 17 5 0
BITMAP
0300
0500
0500
0880
0880
0880
1840
1040
1040
3FE0
2020
2020
6010
4010
4010
C008
8008
ENDCHAR
STARTCHAR 0411
ENCODING 11298
SWIDTH 2400 0
DWIDTH 24 0
BBX 10 17 7 0
BITMAP
FF80
FF80
8000
8000
8000
8000
C000
FF00
8080
8040
8040
8040
8040
8040
8080
8180
FE00
ENDCHAR
STARTCHAR 0412
ENCODING 11299
SWIDTH 2400 0
DWIDTH 24 0
BBX 12 17 6 0
BITMAP
FF80
C1C0
8020
8020
8020
8020
8040
80C0
FF80
8060
8010
8010
8010
8010
8030
8060
FFC0
ENDCHAR
STARTCHAR 0413
ENCODING 11300
SWIDTH 2400 0
DWIDTH 24 0
BBX 9 17 8 0
BITMAP
FF80
8000
8000
8000
8000
8000
8000
8000
8000
8000
8000
8000
8000
8000
8000
8000
8000
ENDCHAR
STARTCHAR 0414
ENCODING 11301
SWIDTH 2400 0
DWIDTH 24 0
BBX 14 17 5 0
BITMAP
3FF0
2010
2010
2010
2010
2010
2010
2010
2010
2010
2010
FFFC
FFFC
8004
8004
8004
8004
ENDCHAR
STARTCHAR 0415
ENCODING 11302
SWIDTH 2400 0
DWIDTH 24 0
BBX 11 16 7 0
BITMAP
FFC0
8000
8000
8000
8000
8000
8000
FFC0
C000
8000
8000
8000
8000
8000
8000
FFE0
ENDCHAR
STARTCHAR 0401
ENCODING 11303
SWIDTH 2400 0
DWIDTH 24 0
BBX 11 18 7 0
BITMAP
6100
0100
0000
0000
FFC0
8000
8000
8000
8000
8000
FFC0
8000
8000
8000
8000
8000
8000
FFE0
ENDCHAR
STARTCHAR 0416
ENCODING 11304
SWIDTH 2400 0
DWIDTH 24 0
BBX 16 17 4 0
BITMAP
C103
6106
310C
310C
310C
310C
3118
1918
1FF8
2104
4102
4102
4102
4102
C102
C103
C103
ENDCHAR
STARTCHAR 0417
ENCODING 11305
SWIDTH 2400 0
DWIDTH 24 0
BBX 11 17 6 0
BITMAP
0F00
31C0
4060
8020
8020
8020
0040
0380
0F80
0040
0020
0020
8020
8020
C020
6040
3F80
ENDCHAR
STARTCHAR 0418
ENCODING 11306
SWIDTH 2400 0
DWIDTH 24 0
BBX 11 17 6 0
BITMAP
8060
8060
80E0
80A0
8120
8120
8220
8620
8420
8C20
8820
9820
9020
A020
E020
C020
C020
ENDCHAR
STARTCHAR 0419
ENCODING 11307
SWIDTH 2400 0
DWIDTH 24 0
BBX 11 17 6 0
BITMAP
1080
1080
0F00
8060
80E0
80A0
8120
8320
8220
8420
8C20
8820
9020
B020
A020
C020
C020
ENDCHAR
STARTCHAR 041A
ENCODING 11308
SWIDTH 2400 0
DWIDTH 24 0
BBX 10 17 7 0
BITMAP
80C0
8180
8200
8200
8200
8400
8400
8800
FC00
8200
8300
8100
8100
8100
8100
8100
8180
ENDCHAR
STARTCHAR 041B
ENCODING 11309
SWIDTH 2400 0
DWIDTH 24 0
BBX 12 17 5 0
BITMAP
1FF0
1010
1010
1010
1010
1010
1010
1010
1010
1010
1010
1010
1010
1010
1010
2010
E010
ENDCHAR
STARTCHAR 041C
ENCODING 11310
SWIDTH 2400 0
DWIDTH 24 0
BBX 14 17 5 0
BITMAP
C00C
E00C
A014
A014
B014
9024
9024
9864
8844
8844
8C84
8484
8484
8704
8304
8304
8204
ENDCHAR
STARTCHAR 041D
ENCODING 11311
SWIDTH 2400 0
DWIDTH 24 0
BBX 11 17 6 0
BITMAP
8020
8020
8020
8020
8020
8020
8020
C020
FFE0
8020
8020
8020
8020
8020
8020
8020
8020
ENDCHAR
STARTCHAR 041E
ENCODING 11312
SWIDTH 2400 0
DWIDTH 24 0
BBX 13 17 5 0
BITMAP
0700
18C0
2020
4010
4010
8018
8008
8008
8008
8008
8008
8008
4010
4010
6020
3060
0F80
ENDCHAR
STARTCHAR 041F
ENCODING 11313
SWIDTH 2400 0
DWIDTH 24 0
BBX 10 17 7 0
BITMAP
FFC0
C0C0
8040
8040
8040
8040
8040
8040
8040
8040
8040
8040
8040
8040
8040
8040
8040
ENDCHAR
STARTCHAR 0420
ENCODING 11314
SWIDTH 2400 0
DWIDTH 24 0
BBX 10 17 7 0
BITMAP
FE00
C380
80C0
8040
8040
8040
8040
8080
FF80
FC00
8000
8000
8000
8000
8000
8000
8000
ENDCHAR
STARTCHAR 0421
ENCODING 11315
SWIDTH 2400 0
DWIDTH 24 0
BBX 13 17 6 0
BITMAP
0F80
19C0
2020
4010
4010
8010
8000
8000
8000
8000
8000
8008
8008
4018
6010
3060
0FC0
ENDCHAR
STARTCHAR 0422
ENCODING 11316
SWIDTH 2400 0
DWIDTH 24 0
BBX 14 17 5 0
BITMAP
FFFC
0700
0200
0200
0200
0200
0200
0200
0200
0200
0200
0200
0200
0200
0200
0200
0200
ENDCHAR
STARTCHAR 0423
ENCODING 11317
SWIDTH 2400 0
DWIDTH 24 0
BBX 11 17 6 0
BITMAP
8020
C020
4060
4040
2040
2080
3080
1100
1900
0B00
0A00
0600
0400
0400
0800
1800
7000
ENDCHAR
STARTCHAR 0424
ENCODING 11318
SWIDTH 2400 0
DWIDTH 24 0
BBX 15 17 4 0
BITMAP
0100
0100
1FE0
3938
610C
4104
8102
8102
8102
8102
8102
4104
4104
3118
0FE0
0100
0100
ENDCHAR
STARTCHAR 0425
ENCODING 11319
SWIDTH 2400 0
DWIDTH 24 0
BBX 11 18 6 -1
BITMAP
4020
4060
20C0
3080
1180
1900
0B00
0E00
0600
0600
0E00
0B00
1180
3080
20C0
6040
4060
C000
ENDCHAR
STARTCHAR 0426
ENCODING 11320
SWIDTH 2400 0
DWIDTH 24 0
BBX 12 18 6 -1
BITMAP
8040
8040
8040
8040
8040
8040
8040
8040
8040
8040
8040
8040
8040
8040
FFF0
0010
0010
0010
ENDCHAR
STARTCHAR 0427
ENCODING 11321
SWIDTH 2400 0
DWIDTH 24 0
BBX 9 17 7 0
BITMAP
8080
8080
8080
8080
8080
8080
8080
8080
8180
4280
3C80
0080
0080
0080
0080
0080
0080
ENDCHAR
STARTCHAR 0428
ENCODING 11322
SWIDTH 2400 0
DWIDTH 24 0
BBX 14 17 5 0
BITMAP
8204
8204
8204
8204
8204
8204
8204
8204
8204
8204
8204
8204
8204
8204
8204
8204
FFFC
ENDCHAR
STARTCHAR 0429
ENCODING 11323
SWIDTH 2400 0
DWIDTH 24 0
BBX 16 18 4 -1
BITMAP
8204
8204
8204
8204
8204
8204
8204
8204
8204
8204
8204
8204
8204
8204
FFFF
0001
0001
0001
ENDCHAR
STARTCHAR 042A
ENCODING 11324
SWIDTH 2400 0
DWIDTH 24 0
BBX 14 16 5 0
BITMAP
F800
0800
0800
0800
0800
0800
0FE0
0818
0808
0804
0804
0804
0804
080C
0818
0FF0
ENDCHAR
STARTCHAR 042B
ENCODING 11325
SWIDTH 2400 0
DWIDTH 24 0
BBX 12 17 6 0
BITMAP
8010
8010
8010
8010
8010
8010
8010
FC10
8610
8310
8110
8110
8110
8110
8310
8610
FC10
ENDCHAR
STARTCHAR 042C
ENCODING 11326
SWIDTH 2400 0
DWIDTH 24 0
BBX 10 17 7 0
BITMAP
8000
8000
8000
8000
8000
8000
8000
FE00
8180
80C0
8040
8040
8040
8040
80C0
8180
FE00
ENDCHAR
STARTCHAR 042D
ENCODING 11327
SWIDTH 2400 0
DWIDTH 24 0
BBX 13 17 5 0
BITMAP
0F80
39E0
6030
4010
8010
0008
0008
0008
0FF8
0008
0008
8008
8010
C010
4030
3060
1F80
ENDCHAR
STARTCHAR 042E
ENCODING 11328
SWIDTH 2400 0
DWIDTH 24 0
BBX 18 17 3 0
BITMAP
803800
80C600
810100
820080
820080
840040
840040
840040
FC0040
840040
840040
840040
860080
820080
830100
818300
807C00
ENDCHAR
STARTCHAR 042F
ENCODING 11329
SWIDTH 2400 0
DWIDTH 24 0
BBX 12 17 5 0
BITMAP
1FF0
2010
4010
4010
4010
4010
4010
2010
1FF0
3010
2010
2010
6010
4010
4010
4010
C010
ENDCHAR
STARTCHAR 0430
ENCODING 11345
SWIDTH 2400 0
DWIDTH 24 0
BBX 10 13 7 0
BITMAP
3C00
4200
4100
0100
0100
0300
7D00
C100
8100
8100
8300
CD00
78C0
ENDCHAR
STARTCHAR 0431
ENCODING 11346
SWIDTH 2400 0
DWIDTH 24 0
BBX 11 18 7 0
BITMAP
0C20
1FE0
3000
6000
6000
C000
DF00
E080
E080
C040
C040
C040
C040
C040
4040
6080
3180
1E00
ENDCHAR
STARTCHAR 0432
ENCODING 11347
SWIDTH 2400 0
DWIDTH 24 0
BBX 7 13 8 0
BITMAP
FC
86
82
82
82
84
FC
86
82
82
82
86
FC
ENDCHAR
STARTCHAR 0433
ENCODING 11348
SWIDTH 2400 0
DWIDTH 24 0
BBX 7 13 8 0
BITMAP
FE
C0
C0
C0
C0
C0
C0
C0
C0
C0
C0
C0
C0
ENDCHAR
STARTCHAR 0434
ENCODING 11349
SWIDTH 2400 0
DWIDTH 24 0
BBX 12 14 6 -1
BITMAP
3FC0
2040
2040
2040
2040
2040
2040
2040
2040
4040
FFF0
8010
8010
8010
ENDCHAR
STARTCHAR 0435
ENCODING 11350
SWIDTH 2400 0
DWIDTH 24 0
BBX 9 13 7 0
BITMAP
1E00
6300
4180
8080
8080
8080
FF80
8000
8000
8080
4180
6100
3E00
ENDCHAR
STARTCHAR 0451
ENCODING 11351
SWIDTH 2400 0
DWIDTH 24 0
BBX 9 16 7 0
BITMAP
2300
0000
0000
1E00
6100
6100
C080
C080
C080
FF80
8000
8000
C000
4180
6300
1E00
ENDCHAR
STARTCHAR 0436
ENCODING 11352
SWIDTH 2400 0
DWIDTH 24 0
BBX 14 13 5 0
BITMAP
C20C
6210
2230
2230
2220
1220
1FE0
7238
6218
6218
6218
6218
4208
ENDCHAR
STARTCHAR 0437
ENCODING 11353
SWIDTH 2400 0
DWIDTH 24 0
BBX 8 13 8 0
BITMAP
3C
62
C1
81
01
02
1C
02
81
81
C1
62
3C
ENDCHAR
STARTCHAR 0438
ENCODING 11354
SWIDTH 2400 0
DWIDTH 24 0
BBX 8 13 8 -1
BITMAP
81
83
83
85
89
89
91
91
A1
C1
C1
81
80
ENDCHAR
STARTCHAR 0439
ENCODING 11355
SWIDTH 2400 0
DWIDTH 24 0
BBX 8 17 8 0
BITMAP
42
46
3C
00
81
83
83
87
85
89
99
91
B1
E1
C1
C1
81
ENDCHAR
STARTCHAR 043A
ENCODING 11356
SWIDTH 2400 0
DWIDTH 24 0
BBX 8 13 8 0
BITMAP
83
86
84
84
84
88
F8
86
82
82
82
82
82
ENDCHAR
STARTCHAR 043B
ENCODING 11357
SWIDTH 2400 0
DWIDTH 24 0
BBX 10 12 6 0
BITMAP
3FC0
2040
2040
2040
2040
2040
2040
2040
2040
2040
2040
C040
ENDCHAR
STARTCHAR 043C
ENCODING 11358
SWIDTH 2400 0
DWIDTH 24 0
BBX 11 13 6 0
BITMAP
C060
E0A0
A0A0
A0A0
B120
9120
9120
9A20
8A20
8A20
8E20
8420
8420
ENDCHAR
STARTCHAR 043D
ENCODING 11359
SWIDTH 2400 0
DWIDTH 24 0
BBX 8 13 8 0
BITMAP
80
81
81
81
81
81
FF
81
81
81
81
81
81
ENDCHAR
STARTCHAR 043E
ENCODING 11360
SWIDTH 2400 0
DWIDTH 24 0
BBX 9 13 7 0
BITMAP
1C00
6300
4100
8080
8080
8080
8080
8080
8080
8080
4100
6300
1C00
ENDCHAR
STARTCHAR 043F
ENCODING 11361
SWIDTH 2400 0
DWIDTH 24 0
BBX 8 13 8 0
BITMAP
FF
81
81
81
81
81
81
81
81
81
81
81
81
ENDCHAR
STARTCHAR 0440
ENCODING 11362
SWIDTH 2400 0
DWIDTH 24 0
BBX 10 14 7 -1
BITMAP
9E00
B180
E080
C040
C040
C040
C040
C040
C040
E080
B180
9E00
8000
8000
ENDCHAR
STARTCHAR 0441
ENCODING 11363
SWIDTH 2400 0
DWIDTH 24 0
BBX 9 13 7 0
BITMAP
1E00
6300
4180
8180
8000
8000
8000
8000
8000
8180
4100
6300
3E00
ENDCHAR
STARTCHAR 0442
ENCODING 11364
SWIDTH 2400 0
DWIDTH 24 0
BBX 9 13 7 0
BITMAP
FF80
0800
0800
0800
0800
0800
0800
0800
0800
0800
0800
0800
0800
ENDCHAR
STARTCHAR 0443
ENCODING 11365
SWIDTH 2400 0
DWIDTH 24 0
BBX 8 13 8 -1
BITMAP
81
82
C2
46
64
24
28
38
18
10
10
20
E0
ENDCHAR
STARTCHAR 0444
ENCODING 11366
SWIDTH 2400 0
DWIDTH 24 0
BBX 16 18 4 -1
BITMAP
0100
0100
0100
0100
3D3C
4342
C382
8101
8101
8101
8101
8101
C382
43C2
3D3C
0100
0100
0100
ENDCHAR
STARTCHAR 0445
ENCODING 11367
SWIDTH 2400 0
DWIDTH 24 0
BBX 9 13 7 0
BITMAP
4100
4100
2200
2200
1400
1C00
0800
1C00
3600
2200
4100
4100
8080
ENDCHAR
STARTCHAR 0446
ENCODING 11368
SWIDTH 2400 0
DWIDTH 24 0
BBX 10 14 7 -1
BITMAP
8100
8100
8100
8100
8100
8100
8100
8100
8100
8100
FFC0
0040
0040
0040
ENDCHAR
STARTCHAR 0447
ENCODING 11369
SWIDTH 2400 0
DWIDTH 24 0
BBX 7 13 8 0
BITMAP
82
82
82
82
82
82
82
C6
7A
02
02
02
02
ENDCHAR
STARTCHAR 0448
ENCODING 11370
SWIDTH 2400 0
DWIDTH 24 0
BBX 11 13 6 0
BITMAP
8420
8420
8420
8420
8420
8420
8420
8420
8420
8420
8420
8420
FFE0
ENDCHAR
STARTCHAR 0449
ENCODING 11371
SWIDTH 2400 0
DWIDTH 24 0
BBX 13 14 5 -1
BITMAP
8220
8220
8220
8220
8220
8220
8220
8220
8220
8220
FFF8
0008
0008
0008
ENDCHAR
STARTCHAR 044A
ENCODING 11372
SWIDTH 2400 0
DWIDTH 24 0
BBX 10 13 7 0
BITMAP
E000
E000
2000
2000
2000
3F00
2080
2040
2040
2040
2040
2080
3F00
ENDCHAR
STARTCHAR 044B
ENCODING 11373
SWIDTH 2400 0
DWIDTH 24 0
BBX 10 13 7 0
BITMAP
8040
8040
8040
8040
8040
F040
8840
8440
8440
8440
8440
8840
F040
ENDCHAR
STARTCHAR 044C
ENCODING 11374
SWIDTH 2400 0
DWIDTH 24 0
BBX 7 13 8 0
BITMAP
80
80
80
80
80
FC
84
82
82
82
82
84
F8
ENDCHAR
STARTCHAR 044D
ENCODING 11375
SWIDTH 2400 0
DWIDTH 24 0
BBX 9 13 7 0
BITMAP
3C00
6300
C100
8080
0080
0080
1F80
0080
0080
8080
C100
6300
3C00
ENDCHAR
STARTCHAR 044E
ENCODING 11376
SWIDTH 2400 0
DWIDTH 24 0
BBX 14 13 5 0
BITMAP
81E0
8210
8408
880C
8804
8804
F804
8804
8804
8C0C
8408
8210
81E0
ENDCHAR
STARTCHAR 044F
ENCODING 11377
SWIDTH 2400 0
DWIDTH 24 0
BBX 7 13 8 0
BITMAP
7E
C2
82
82
82
42
3E
42
82
82
82
82
82
ENDCHAR
STARTCHAR AC00
ENCODING 12321
SWIDTH 2400 0
DWIDTH 24 0
BBX 20 21 2 -3
BITMAP
000180
FFC180
006180
006180
006180
006180
006180
006180
0041F0
00C180
00C180
018180
010180
030180
0E0180
380180
F00180
000180
000180
000180
000180
ENDCHAR
STARTCHAR AC01
ENCODING 12322
SWIDTH 2400 0
DWIDTH 24 0
BBX 21 21 1 -3
BITMAP
0000C0
7FE0C0
0030C0
0030C0
0030C0
0020F8
0060C0
0060C0
00C0C0
0300C0
3E00C0
F000C0
000000
000000
3FFF80
0000C0
0000C0
0000C0
0000C0
0000C0
0000C0
ENDCHAR
STARTCHAR AC04
ENCODING 12323
SWIDTH 2400 0
DWIDTH 24 0
BBX 20 20 2 -2
BITMAP
000180
FFC180
006180
006180
006180
004180
0041F0
00C180
018180
030180
1E0180
F00180
000180
000180
600180
600000
600000
600000
600000
3FFFC0
ENDCHAR
STARTCHAR AC07
ENCODING 12324
SWIDTH 2400 0
DWIDTH 24 0
BBX 20 20 2 -2
BITMAP
000180
FFC180
006180
006180
006180
0041F0
00C180
018180
030180
1E0180
F00180
000180
000000
000000
3FFF80
600000
600000
600000
600000
3FFF80
ENDCHAR
STARTCHAR AC08
ENCODING 12325
SWIDTH 2400 0
DWIDTH 24 0
BBX 20 20 2 -2
BITMAP
000100
FFC180
006180
006180
004180
0041F0
00C180
018180
060180
7C0180
E00180
000000
7FFF00
000180
000180
000180
3FFF80
600000
600000
3FFF80
ENDCHAR
STARTCHAR AC09
ENCODING 12326
SWIDTH 2400 0
DWIDTH 24 0
BBX 20 21 2 -3
BITMAP
000180
FFC180
006180
006180
004180
0041F0
00C180
038180
0E0180
F80180
C00180
000100
FF0000
017F00
010180
010180
7F0180
C00180
C00180
FFC180
000180
ENDCHAR
STARTCHAR AC0A
ENCODING 12327
SWIDTH 2400 0
DWIDTH 24 0
BBX 20 21 2 -3
BITMAP
000180
FFC180
006180
006180
004180
0041F0
00C180
038180
060180
F80180
C00180
000100
000000
FF3F80
033180
033180
7E3180
C03180
C03180
C03180
FF3F80
ENDCHAR
STARTCHAR AC10
ENCODING 12328
SWIDTH 2400 0
DWIDTH 24 0
BBX 20 20 2 -2
BITMAP
000180
FFC180
006180
006180
006180
0041F0
00C180
018180
030180
1E0180
F00180
000100
000000
3FFF80
600180
600180
600180
600180
600180
3FFF00
ENDCHAR
STARTCHAR AC11
ENCODING 12329
SWIDTH 2400 0
DWIDTH 24 0
BBX 20 20 2 -2
BITMAP
000180
FFC180
006180
006180
004180
0041F0
00C180
038180
0E0180
F80180
C00180
000000
600180
600180
600180
7FFF80
600180
600180
600180
3FFF00
ENDCHAR
STARTCHAR AC12
ENCODING 12330
SWIDTH 2400 0
DWIDTH 24 0
BBX 21 21 1 -3
BITMAP
0000C0
7FE0C0
0030C0
0030C0
0020C0
0060F8
0040C0
0080C0
0300C0
FC00C0
0000C0
000080
618100
618100
618300
7F8380
618280
6186C0
618C40
619860
7F9020
ENDCHAR
STARTCHAR AC13
ENCODING 12331
SWIDTH 2400 0
DWIDTH 24 0
BBX 21 21 1 -3
BITMAP
0000C0
7FE0C0
0030C0
0030C0
0030C0
0020F8
0020C0
0060C0
01C0C0
0300C0
3E00C0
F000C0
0000C0
000000
003000
007000
00D800
018C00
070600
3C03E0
300060
ENDCHAR
STARTCHAR AC14
ENCODING 12332
SWIDTH 2400 0
DWIDTH 24 0
BBX 20 21 2 -3
BITMAP
000180
FFC180
006180
006180
006180
0041F0
00C180
018180
030180
1E0180
F00180
000180
000000
080200
080200
0C0600
1C0700
160D00
361980
E3B0E0
80A020
ENDCHAR
STARTCHAR AC15
ENCODING 12333
SWIDTH 2400 0
DWIDTH 24 0
BBX 20 21 2 -3
BITMAP
000180
FFC180
006180
006180
006180
0041F0
00C180
018180
030180
1E0180
F00180
000180
000180
0FF800
380E00
600300
C00180
C00180
E00380
700E00
0FF800
ENDCHAR
STARTCHAR AC16
ENCODING 12334
SWIDTH 2400 0
DWIDTH 24 0
BBX 21 21 1 -3
BITMAP
0000C0
7FE0C0
0030C0
0030C0
0030C0
0020F8
0060C0
00C0C0
0180C0
0F00C0
F800C0
0000C0
000000
3FFFC0
006000
007000
00D800
018C00
0E0700
3801C0
000040
ENDCHAR
STARTCHAR AC17
ENCODING 12335
SWIDTH 2400 0
DWIDTH 24 0
BBX 21 21 1 -3
BITMAP
0000C0
7FE0C0
0030C0
0030C0
0020C0
0020F8
0060C0
00C0C0
0380C0
1E00C0
F800C0
0000C0
000000
03FC00
000000
1FFFE0
007000
00F800
038E00
3E03E0
000040
ENDCHAR
STARTCHAR AC19
ENCODING 12336
SWIDTH 2400 0
DWIDTH 24 0
BBX 21 20 1 -2
BITMAP
0000C0
7FE0C0
0030C0
0030C0
0020C0
0020F8
0060C0
00C0C0
0380C0
1E00C0
F800C0
0000C0
000000
1FFFC0
300000
300000
3FFFC0
300000
300000
1FFFC0
ENDCHAR
STARTCHAR AC1A
ENCODING 12337
SWIDTH 2400 0
DWIDTH 24 0
BBX 20 21 2 -3
BITMAP
000180
FFE180
006180
006180
006180
0041F0
00C180
018180
070180
3C0180
E00180
000180
000000
3FFFC0
040600
040600
040600
040600
040600
040600
7FFFC0
ENDCHAR
STARTCHAR AC1B
ENCODING 12338
SWIDTH 2400 0
DWIDTH 24 0
BBX 21 21 1 -3
BITMAP
0000C0
7FE0C0
0030C0
0030C0
0020C0
0020F8
0060C0
00C0C0
0380C0
1E00C0
F800C0
0000C0
03FE00
000000
3FFFF0
000000
07FF00
1800C0
100040
1801C0
07FF00
ENDCHAR
STARTCHAR AC1C
ENCODING 12339
SWIDTH 2400 0
DWIDTH 24 0
BBX 20 21 2 -3
BITMAP
000C30
7F0C30
018C30
018C30
018C30
018C30
018C30
018C30
010FF0
010C30
030C30
020C30
060C30
0C0C30
180C30
300C30
E00C30
000C30
000C30
000C30
000C30
ENDCHAR
STARTCHAR AC1D
ENCODING 12340
SWIDTH 2400 0
DWIDTH 24 0
BBX 19 20 3 -3
BITMAP
FF1860
031860
031860
031860
031FE0
031860
021860
061860
0C1860
381860
E01860
001060
000000
3FFF80
0000C0
0000C0
0000C0
0000C0
0000C0
0000C0
ENDCHAR
STARTCHAR AC20
ENCODING 12341
SWIDTH 2400 0
DWIDTH 24 0
BBX 19 19 3 -2
BITMAP
FE18C0
0318C0
0318C0
0318C0
0318C0
0218C0
021FC0
0618C0
0C18C0
1818C0
F018C0
8018C0
0018C0
3018C0
3018C0
300000
300000
300000
1FFFE0
ENDCHAR
STARTCHAR AC24
ENCODING 12342
SWIDTH 2400 0
DWIDTH 24 0
BBX 18 19 3 -2
BITMAP
FF10C0
0310C0
0310C0
0310C0
031FC0
0310C0
0610C0
0610C0
1810C0
F010C0
800040
1FFF80
0000C0
0000C0
0000C0
1FFFC0
100000
100000
1FFFC0
ENDCHAR
STARTCHAR AC2C
ENCODING 12343
SWIDTH 2400 0
DWIDTH 24 0
BBX 19 19 3 -2
BITMAP
FF18C0
0318C0
0118C0
0118C0
011FC0
0318C0
0318C0
0618C0
0C18C0
7818C0
E018C0
000000
0FFFE0
180060
180060
180060
180060
180060
0FFFC0
ENDCHAR
STARTCHAR AC2D
ENCODING 12344
SWIDTH 2400 0
DWIDTH 24 0
BBX 20 19 2 -2
BITMAP
FF0C30
010C30
010C30
010C30
010FF0
030C30
030C30
060C30
1C0C30
F00C30
000030
180060
180060
180060
1FFFE0
180060
180060
180060
0FFFC0
ENDCHAR
STARTCHAR AC2F
ENCODING 12345
SWIDTH 2400 0
DWIDTH 24 0
BBX 19 20 3 -3
BITMAP
FF18C0
0318C0
0310C0
0310C0
031FC0
0310C0
0210C0
0610C0
0C10C0
3810C0
E010C0
0010C0
000000
006000
007000
00D000
019800
070E00
7C03C0
7000E0
ENDCHAR
STARTCHAR AC30
ENCODING 12346
SWIDTH 2400 0
DWIDTH 24 0
BBX 19 21 3 -3
BITMAP
0018C0
FF18C0
0318C0
0310C0
0310C0
031FC0
0310C0
0210C0
0610C0
0C10C0
7810C0
E010C0
000040
080200
180600
180600
1C0700
340F00
661980
C3B0E0
80A060
ENDCHAR
STARTCHAR AC31
ENCODING 12347
SWIDTH 2400 0
DWIDTH 24 0
BBX 19 20 3 -3
BITMAP
FF18C0
0118C0
0118C0
0118C0
0118C0
031FC0
0318C0
0618C0
0C18C0
3818C0
F018C0
0010C0
000000
03FE00
1C01C0
3000E0
300060
300060
1C01C0
07FE00
ENDCHAR
STARTCHAR AC38
ENCODING 12348
SWIDTH 2400 0
DWIDTH 24 0
BBX 21 21 2 -3
BITMAP
000180
FFC180
006180
006180
006180
006180
0061F8
006180
004180
00C180
008180
018180
030180
0601F8
0C0180
380180
E00180
000180
000180
000180
000180
ENDCHAR
STARTCHAR AC39
ENCODING 12349
SWIDTH 2400 0
DWIDTH 24 0
BBX 22 20 1 -3
BITMAP
7FE0C0
0030C0
0030C0
0030FC
0020C0
0020C0
0060C0
01C0F8
0300C0
3E00C0
F000C0
000000
000000
3FFF80
0000C0
0000C0
0000C0
0000C0
0000C0
0000C0
ENDCHAR
STARTCHAR AC3C
ENCODING 12350
SWIDTH 2400 0
DWIDTH 24 0
BBX 21 20 2 -2
BITMAP
0000C0
FFC0C0
0060C0
0060C0
0060F8
0040C0
0040C0
00C0C0
0180C0
0300C0
1E00F8
F000C0
0000C0
0000C0
6000C0
600000
600000
600000
600000
3FFFC0
ENDCHAR
STARTCHAR AC40
ENCODING 12351
SWIDTH 2400 0
DWIDTH 24 0
BBX 21 20 1 -2
BITMAP
000040
7FE080
003080
0030F8
002080
002080
006080
00C080
0380F8
1E0080
F80080
000000
000000
3FFF80
0000C0
0000C0
1FFFC0
300000
300000
1FFFC0
ENDCHAR
STARTCHAR AC4B
ENCODING 12352
SWIDTH 2400 0
DWIDTH 24 0
BBX 20 21 2 -3
BITMAP
000180
FFC180
006180
006180
0061F0
004180
004180
00C180
018180
0701F0
1C0180
F00180
000180
000180
006000
007000
00D000
018800
070600
7C03C0
7000E0
ENDCHAR
STARTCHAR AC4D
ENCODING 12353
SWIDTH 2400 0
DWIDTH 24 0
BBX 20 21 2 -3
BITMAP
000180
FFC180
006180
006180
0061F0
004180
00C180
018180
030180
0E01F0
F80180
E00180
000180
0FF800
380E00
600300
C00180
C00180
E00380
700E00
0FF800
ENDCHAR
STARTCHAR AC54
ENCODING 12354
SWIDTH 2400 0
DWIDTH 24 0
BBX 19 21 3 -3
BITMAP
000C60
FF0C60
030C60
030860
030860
030860
030FE0
030860
020860
020860
060860
060860
0C0860
180860
300FE0
600860
C00860
000860
000860
000860
000860
ENDCHAR
STARTCHAR AC58
ENCODING 12355
SWIDTH 2400 0
DWIDTH 24 0
BBX 19 20 3 -2
BITMAP
0000C0
FE18C0
0318C0
0318C0
0318C0
031FC0
0218C0
0618C0
0618C0
0C18C0
381FC0
F018C0
8018C0
0018C0
3018C0
300000
300000
300000
300000
1FFFE0
ENDCHAR
STARTCHAR AC5C
ENCODING 12356
SWIDTH 2400 0
DWIDTH 24 0
BBX 18 20 3 -2
BITMAP
0018C0
FE18C0
0318C0
031FC0
0310C0
0310C0
0210C0
0610C0
0C1FC0
1810C0
F010C0
801040
000000
3FFFC0
0000C0
0000C0
1FFFC0
100000
100000
1FFFC0
ENDCHAR
STARTCHAR AC70
ENCODING 12357
SWIDTH 2400 0
DWIDTH 24 0
BBX 18 21 3 -3
BITMAP
0000C0
FFC0C0
0060C0
0060C0
0060C0
0060C0
0060C0
0060C0
0040C0
00DFC0
0080C0
0180C0
0300C0
0600C0
0C00C0
3800C0
E000C0
0000C0
0000C0
0000C0
0000C0
ENDCHAR
STARTCHAR AC71
ENCODING 12358
SWIDTH 2400 0
DWIDTH 24 0
BBX 18 21 3 -3
BITMAP
000040
FFE0C0
0020C0
0020C0
0060C0
0060C0
0040C0
00DFC0
0180C0
0700C0
7C00C0
E000C0
0000C0
000000
3FFF80
0000C0
0000C0
0000C0
0000C0
0000C0
0000C0
ENDCHAR
STARTCHAR AC74
ENCODING 12359
SWIDTH 2400 0
DWIDTH 24 0
BBX 19 20 3 -2
BITMAP
0000C0
FFC0C0
0060C0
0060C0
0060C0
0060C0
0040C0
00DFC0
0180C0
0300C0
1E00C0
F800C0
0000C0
0000C0
3000C0
300000
300000
300000
300000
1FFFE0
ENDCHAR
STARTCHAR AC77
ENCODING 12360
SWIDTH 2400 0
DWIDTH 24 0
BBX 18 20 3 -2
BITMAP
0000C0
FFC0C0
0060C0
0060C0
0060C0
0040C0
00DFC0
0180C0
0300C0
0E00C0
7800C0
E000C0
000000
000000
1FFFC0
300000
300000
300000
300000
1FFFC0
ENDCHAR
STARTCHAR AC78
ENCODING 12361
SWIDTH 2400 0
DWIDTH 24 0
BBX 18 20 3 -2
BITMAP
000040
FFC0C0
0060C0
0060C0
0060C0
004FC0
00C0C0
0180C0
0700C0
1C00C0
F000C0
000000
000000
3FFFC0
0000C0
0000C0
1FFFC0
300000
300000
1FFFC0
ENDCHAR
STARTCHAR AC7A
ENCODING 12362
SWIDTH 2400 0
DWIDTH 24 0
BBX 19 21 3 -3
BITMAP
0000C0
FFE0C0
0060C0
0060C0
0060C0
004FC0
00C0C0
0180C0
0700C0
7C00C0
E000C0
000000
000000
7F1FE0
011860
011860
7F1860
401860
401860
401860
7F8FE0
ENDCHAR
STARTCHAR AC80
ENCODING 12363
SWIDTH 2400 0
DWIDTH 24 0
BBX 19 20 3 -2
BITMAP
0000C0
FFE0C0
0060C0
0060C0
0060C0
0060C0
005FC0
00C0C0
0380C0
1E00C0
F800C0
000000
000000
0FFFE0
180060
180060
180060
180060
180060
0FFFC0
ENDCHAR
STARTCHAR AC81
ENCODING 12364
SWIDTH 2400 0
DWIDTH 24 0
BBX 18 20 3 -2
BITMAP
0000C0
FFE0C0
0020C0
0020C0
0060C0
0060C0
005FC0
00C0C0
0180C0
0200C0
FC00C0
000000
3000C0
3000C0
3000C0
3FFFC0
3000C0
3000C0
3000C0
1FFF80
ENDCHAR
STARTCHAR AC83
ENCODING 12365
SWIDTH 2400 0
DWIDTH 24 0
BBX 19 21 2 -3
BITMAP
000060
7FE060
003060
003060
002060
002060
006FE0
004060
01C060
030060
1E0060
F00060
000060
000060
003000
003800
006800
00CC00
030700
3E01E0
380060
ENDCHAR
STARTCHAR AC84
ENCODING 12366
SWIDTH 2400 0
DWIDTH 24 0
BBX 20 21 2 -3
BITMAP
000060
7FE060
002060
002060
002060
006060
006FE0
00C060
018060
070060
7C0060
E00000
000000
040200
0C0300
0C0300
0E0300
1E0780
330CC0
61D860
C07030
ENDCHAR
STARTCHAR AC85
ENCODING 12367
SWIDTH 2400 0
DWIDTH 24 0
BBX 19 21 3 -3
BITMAP
000060
FFE060
006060
006060
006060
006060
004FE0
00C060
018060
070060
3C0060
F00060
000000
03FE00
1C0380
3000C0
600060
600060
7000E0
1C0380
07FC00
ENDCHAR
STARTCHAR AC86
ENCODING 12368
SWIDTH 2400 0
DWIDTH 24 0
BBX 18 21 3 -3
BITMAP
0000C0
FFE0C0
0060C0
0020C0
0060C0
0060C0
005FC0
00C0C0
0380C0
0E00C0
F800C0
C00040
000000
3FFFC0
006000
00E000
00F000
039C00
0E0700
3803C0
000040
ENDCHAR
STARTCHAR AC89
ENCODING 12369
SWIDTH 2400 0
DWIDTH 24 0
BBX 18 20 3 -2
BITMAP
0000C0
FFE0C0
0060C0
0060C0
0060C0
0040C0
00DFC0
0180C0
0300C0
0E00C0
F800C0
C00000
000000
1FFFC0
300000
300000
3FFFC0
300000
300000
1FFFC0
ENDCHAR
STARTCHAR AC8A
ENCODING 12370
SWIDTH 2400 0
DWIDTH 24 0
BBX 20 21 2 -3
BITMAP
000040
7FE060
003060
003060
002060
002060
006FE0
00C060
038060
0E0060
F80060
000000
000000
1FFFE0
020300
020300
020300
020300
020300
020300
3FFFF0
ENDCHAR
STARTCHAR AC8B
ENCODING 12371
SWIDTH 2400 0
DWIDTH 24 0
BBX 19 21 3 -3
BITMAP
0000C0
FFC0C0
0060C0
0060C0
0040C0
0040C0
00C0C0
019FC0
0300C0
0E00C0
F800C0
8000C0
07FC00
000000
7FFFE0
000000
0FFE00
300180
200080
300380
0FFE00
ENDCHAR
STARTCHAR AC8C
ENCODING 12372
SWIDTH 2400 0
DWIDTH 24 0
BBX 20 21 2 -3
BITMAP
000030
7F0630
018630
018630
018630
018630
018630
018630
010630
013E30
030630
030630
060630
0C0630
180630
300630
E00630
000630
000630
000630
000630
ENDCHAR
STARTCHAR AC90
ENCODING 12373
SWIDTH 2400 0
DWIDTH 24 0
BBX 19 20 3 -2
BITMAP
0000C0
FE18C0
0318C0
0318C0
0318C0
0318C0
0218C0
02F8C0
0618C0
0C18C0
1818C0
F018C0
8018C0
0018C0
3018C0
3000C0
300000
300000
300000
1FFFE0
ENDCHAR
STARTCHAR AC94
ENCODING 12374
SWIDTH 2400 0
DWIDTH 24 0
BBX 20 20 2 -2
BITMAP
000420
7F0460
018460
018460
018460
01FC60
010460
010460
030460
0E0460
780460
E00000
000000
0FFFE0
000020
000020
0FFFE0
0C0000
0C0000
0FFFF0
ENDCHAR
STARTCHAR AC9C
ENCODING 12375
SWIDTH 2400 0
DWIDTH 24 0
BBX 19 20 3 -2
BITMAP
000060
FF0C60
010C60
010C60
010C60
030C60
03FC60
030C60
060C60
0C0C60
380C60
E00C60
000000
0FFFC0
1800C0
1800C0
1800C0
1800C0
1800C0
0FFF80
ENDCHAR
STARTCHAR AC9D
ENCODING 12376
SWIDTH 2400 0
DWIDTH 24 0
BBX 19 21 3 -3
BITMAP
0000C0
FF0CC0
030CC0
030CC0
010CC0
030CC0
03FCC0
020CC0
060CC0
1C0CC0
F00CC0
800000
000000
180060
180060
1FFFE0
180060
180060
180060
180060
0FFFC0
ENDCHAR
STARTCHAR AC9F
ENCODING 12377
SWIDTH 2400 0
DWIDTH 24 0
BBX 19 21 3 -3
BITMAP
000CC0
FF0CC0
030CC0
030CC0
030CC0
030CC0
037CC0
020CC0
060CC0
0C0CC0
180CC0
F00CC0
C000C0
0000C0
006000
007000
00D000
018800
070E00
7C03C0
7000E0
ENDCHAR
STARTCHAR ACA0
ENCODING 12378
SWIDTH 2400 0
DWIDTH 24 0
BBX 20 21 2 -3
BITMAP
000060
FF0C60
030C60
030C60
030C60
030C60
037C60
020C60
060C60
0C0C60
380C60
E00C60
000060
040100
0C0300
0C0300
0E0380
1A0780
330CC0
61D870
405030
ENDCHAR
STARTCHAR ACA1
ENCODING 12379
SWIDTH 2400 0
DWIDTH 24 0
BBX 19 21 3 -3
BITMAP
000460
FF0C60
030C60
030C60
010C60
030C60
037C60
020C60
060C60
0C0C60
380C60
E00C60
000060
03FE00
0E0380
3800C0
300060
300060
1800C0
0E0380
03FE00
ENDCHAR
STARTCHAR ACA8
ENCODING 12380
SWIDTH 2400 0
DWIDTH 24 0
BBX 18 21 3 -3
BITMAP
0000C0
7FC0C0
0060C0
0060C0
0060C0
0060C0
005FC0
0040C0
0040C0
00C0C0
0080C0
0180C0
0300C0
061FC0
0C00C0
1800C0
E000C0
0000C0
0000C0
0000C0
0000C0
ENDCHAR
STARTCHAR ACA9
ENCODING 12381
SWIDTH 2400 0
DWIDTH 24 0
BBX 18 21 3 -3
BITMAP
0000C0
FFE0C0
0020C0
0020C0
006FC0
0060C0
0040C0
00C0C0
0180C0
070FC0
7C00C0
E000C0
0000C0
000000
3FFF80
0000C0
0000C0
0000C0
0000C0
0000C0
0000C0
ENDCHAR
STARTCHAR ACAA
ENCODING 12382
SWIDTH 2400 0
DWIDTH 24 0
BBX 18 21 3 -3
BITMAP
0000C0
FFE0C0
0020C0
0020C0
006FC0
0060C0
0040C0
00C0C0
038FC0
1E00C0
F800C0
0000C0
000000
000000
FFBFC0
0180C0
0180C0
0180C0
0180C0
0180C0
0180C0
ENDCHAR
STARTCHAR ACAC
ENCODING 12383
SWIDTH 2400 0
DWIDTH 24 0
BBX 19 20 3 -2
BITMAP
0000C0
FFC0C0
0060C0
0060C0
007FC0
0060C0
0040C0
00C0C0
0180C0
0300C0
1E0FC0
F800C0
0000C0
0000C0
3000C0
3000C0
300000
300000
300000
1FFFE0
ENDCHAR
STARTCHAR ACAF
ENCODING 12384
SWIDTH 2400 0
DWIDTH 24 0
BBX 18 20 3 -2
BITMAP
0000C0
FFC0C0
0060C0
0060C0
006FC0
0040C0
00C0C0
0180C0
0700C0
3C0FC0
F000C0
0000C0
000000
000000
1FFFC0
300000
300000
300000
300000
1FFFC0
ENDCHAR
STARTCHAR ACB0
ENCODING 12385
SWIDTH 2400 0
DWIDTH 24 0
BBX 18 20 3 -2
BITMAP
0000C0
FFC0C0
0060C0
006FC0
0060C0
0040C0
00C0C0
0180C0
030FC0
1C00C0
F000C0
000040
000000
1FFFC0
0000C0
0000C0
1FFFC0
100000
180000
1FFFC0
ENDCHAR
STARTCHAR ACB8
ENCODING 12386
SWIDTH 2400 0
DWIDTH 24 0
BBX 18 20 3 -2
BITMAP
0000C0
FFE0C0
0020C0
0020C0
006FC0
0060C0
0040C0
0080C0
0300C0
0E0FC0
F800C0
C000C0
000000
1FFFC0
3000C0
3000C0
3000C0
3000C0
3000C0
1FFF80
ENDCHAR
STARTCHAR ACB9
ENCODING 12387
SWIDTH 2400 0
DWIDTH 24 0
BBX 18 21 3 -3
BITMAP
0000C0
FFE0C0
0060C0
002FC0
0060C0
0060C0
0040C0
0180C0
030FC0
0E00C0
F800C0
C00000
1800C0
1800C0
1800C0
1FFFC0
1800C0
1800C0
1800C0
1800C0
0FFF80
ENDCHAR
STARTCHAR ACBB
ENCODING 12388
SWIDTH 2400 0
DWIDTH 24 0
BBX 20 21 2 -3
BITMAP
000060
7FE060
003060
003060
002FE0
002060
006060
00C060
018060
070FE0
3C0060
F00060
000060
000060
003000
003800
006800
00C400
038300
3E01E0
380070
ENDCHAR
STARTCHAR ACBC
ENCODING 12389
SWIDTH 2400 0
DWIDTH 24 0
BBX 20 21 2 -3
BITMAP
000060
7FE060
002060
002060
0027E0
006060
004060
00C060
038060
0607E0
7C0060
E00060
000000
0C0300
0C0300
0C0300
0E0780
1A0780
330CC0
61F870
004000
ENDCHAR
STARTCHAR ACBD
ENCODING 12390
SWIDTH 2400 0
DWIDTH 24 0
BBX 19 21 3 -3
BITMAP
0000C0
FFC0C0
0060C0
0060C0
006FC0
0040C0
00C0C0
0180C0
0300C0
0E0FC0
7800C0
E000C0
0000C0
07FE00
1C0380
3000C0
600060
600060
7000E0
1C0380
07FC00
ENDCHAR
STARTCHAR ACC1
ENCODING 12391
SWIDTH 2400 0
DWIDTH 24 0
BBX 18 21 3 -3
BITMAP
0000C0
FFC0C0
0060C0
006FC0
0060C0
0040C0
00C0C0
0180C0
030FC0
0E00C0
F800C0
C00000
000000
1FFFC0
300000
300000
3FFFC0
300000
300000
300000
1FFFC0
ENDCHAR
STARTCHAR ACC4
ENCODING 12392
SWIDTH 2400 0
DWIDTH 24 0
BBX 20 21 2 -3
BITMAP
000030
7F0630
018630
018630
018630
01BE30
018630
018630
010630
010630
030630
030630
067E30
0C0630
180630
300630
E00630
000630
000630
000630
000030
ENDCHAR
STARTCHAR ACC8
ENCODING 12393
SWIDTH 2400 0
DWIDTH 24 0
BBX 18 20 3 -2
BITMAP
0000C0
FE18C0
0318C0
0318C0
03F8C0
0318C0
0218C0
0218C0
0618C0
0CF8C0
1818C0
F018C0
8018C0
0018C0
3000C0
300000
300000
300000
300000
1FFFC0
ENDCHAR
STARTCHAR ACCC
ENCODING 12394
SWIDTH 2400 0
DWIDTH 24 0
BBX 19 19 2 -2
BITMAP
7F0640
018640
01BE40
018240
018240
010240
030240
063E40
1C0240
F00240
000200
1FFFC0
000060
000060
000060
0FFFE0
180000
180000
0FFFE0
ENDCHAR
STARTCHAR ACD5
ENCODING 12395
SWIDTH 2400 0
DWIDTH 24 0
BBX 19 21 3 -3
BITMAP
000060
FF0C60
030C60
037C60
030C60
030C60
030C60
060C60
0CFC60
380C60
E00C60
000000
180060
180060
180060
1FFFE0
180060
180060
180060
180060
0FFFC0
ENDCHAR
STARTCHAR ACD7
ENCODING 12396
SWIDTH 2400 0
DWIDTH 24 0
BBX 19 21 3 -3
BITMAP
0000C0
FF0CC0
030CC0
030CC0
037CC0
030CC0
030CC0
020CC0
060CC0
0C7CC0
380CC0
E00CC0
800CC0
0000C0
0060C0
007000
00D000
018800
070E00
7C03C0
7000E0
ENDCHAR
STARTCHAR ACE0
ENCODING 12397
SWIDTH 2400 0
DWIDTH 24 0
BBX 19 18 3 -1
BITMAP
7FFF80
000180
000180
000180
000180
000180
000180
000180
000180
018180
018180
018180
018100
018300
018300
018000
018000
FFFFE0
ENDCHAR
STARTCHAR ACE1
ENCODING 12398
SWIDTH 2400 0
DWIDTH 24 0
BBX 20 20 2 -3
BITMAP
3FFF80
0000C0
0000C0
0000C0
00C0C0
00C0C0
00C0C0
00C0C0
00C0C0
FFFFF0
000000
000000
000000
7FFF80
0000C0
0000C0
0000C0
0000C0
0000C0
0000C0
ENDCHAR
STARTCHAR ACE4
ENCODING 12399
SWIDTH 2400 0
DWIDTH 24 0
BBX 20 19 2 -2
BITMAP
3FFFC0
0000C0
0000C0
0000C0
00C0C0
00C0C0
00C0C0
00C0C0
00C0C0
00C0C0
FFFFF0
000000
000000
300000
300000
300000
300000
300000
1FFFE0
ENDCHAR
STARTCHAR ACE7
ENCODING 12400
SWIDTH 2400 0
DWIDTH 24 0
BBX 20 19 2 -2
BITMAP
3FFF80
0000C0
0000C0
0000C0
00C0C0
00C0C0
00C0C0
00C0C0
00C0C0
FFFFF0
000000
000000
1FFFC0
300000
300000
300000
300000
300000
1FFFE0
ENDCHAR
STARTCHAR ACE8
ENCODING 12401
SWIDTH 2400 0
DWIDTH 24 0
BBX 20 19 2 -2
BITMAP
3FFF80
0000C0
0000C0
0000C0
00C0C0
00C0C0
00C0C0
00C080
FFFFF0
000000
000000
3FFF80
0000C0
0000C0
0000C0
3FFF80
200000
200000
3FFFC0
ENDCHAR
STARTCHAR ACEA
ENCODING 12402
SWIDTH 2400 0
DWIDTH 24 0
BBX 20 20 2 -3
BITMAP
3FFFC0
0000C0
0000C0
00C0C0
00C0C0
00C0C0
00C0C0
00C0C0
FFFFF0
000000
000000
000000
3F9FE0
019860
019860
3F9860
601860
601860
601860
3FCFE0
ENDCHAR
STARTCHAR ACEC
ENCODING 12403
SWIDTH 2400 0
DWIDTH 24 0
BBX 20 20 2 -3
BITMAP
3FFFC0
0000C0
0000C0
00C0C0
00C0C0
00C0C0
00C0C0
00C0C0
FFFFF0
000000
000000
000000
3F8200
018300
018700
3F8700
300D80
3018C0
303060
3FA020
ENDCHAR
STARTCHAR ACEF
ENCODING 12404
SWIDTH 2400 0
DWIDTH 24 0
BBX 20 20 2 -3
BITMAP
3FFFC0
000040
000040
000040
00C040
00C040
00C040
00C0C0
FFFFF0
000000
000000
7F0F80
010000
013FE0
010000
7F1F80
603040
603060
7FB0C0
000F80
ENDCHAR
STARTCHAR ACF0
ENCODING 12405
SWIDTH 2400 0
DWIDTH 24 0
BBX 20 19 2 -2
BITMAP
3FFF80
0000C0
0000C0
0000C0
00C0C0
00C0C0
00C0C0
00C0C0
00C0C0
FFFFF0
000000
000000
1FFFC0
3000C0
3000C0
3000C0
3000C0
3000C0
1FFF80
ENDCHAR
STARTCHAR ACF1
ENCODING 12406
SWIDTH 2400 0
DWIDTH 24 0
BBX 20 19 2 -2
BITMAP
3FFFC0
0000C0
0000C0
00C0C0
00C0C0
00C0C0
00C0C0
00C0C0
FFFFF0
000000
000000
300080
300080
3000C0
3FFFC0
3000C0
3000C0
3000C0
1FFF80
ENDCHAR
STARTCHAR ACF3
ENCODING 12407
SWIDTH 2400 0
DWIDTH 24 0
BBX 20 20 2 -3
BITMAP
3FFFC0
0000C0
0000C0
00C0C0
00C0C0
00C0C0
00C0C0
00C0C0
00C0C0
FFFFF0
000000
000000
000000
006000
00F000
019000
031800
0E0600
7803C0
6000C0
ENDCHAR
STARTCHAR ACF5
ENCODING 12408
SWIDTH 2400 0
DWIDTH 24 0
BBX 20 20 2 -3
BITMAP
3FFF80
0000C0
0000C0
0000C0
00C0C0
00C0C0
00C0C0
00C0C0
00C0C0
FFFFF0
000000
000000
03FE00
0E0380
3800C0
300060
300060
1800C0
0E0380
03FC00
ENDCHAR
STARTCHAR ACF6
ENCODING 12409
SWIDTH 2400 0
DWIDTH 24 0
BBX 20 20 2 -3
BITMAP
3FFF80
0000C0
0000C0
0000C0
00C0C0
00C0C0
00C0C0
00C0C0
00C0C0
FFFFF0
000000
000000
000000
3FFFC0
006000
00F000
019800
030C00
3E0780
3001C0
ENDCHAR
STARTCHAR ACFC
ENCODING 12410
SWIDTH 2400 0
DWIDTH 24 0
BBX 21 22 1 -4
BITMAP
0000C0
7FF8C0
0018C0
0018C0
0018C0
0018C0
0018C0
0018C0
0018C0
0618F8
0618C0
0610C0
0630C0
0620C0
0600C0
0601C0
FFFFC0
0000C0
0000C0
0000C0
0000C0
000080
ENDCHAR
STARTCHAR ACFD
ENCODING 12411
SWIDTH 2400 0
DWIDTH 24 0
BBX 21 21 1 -3
BITMAP
0000C0
7FF8C0
0018C0
0018C0
0018C0
0618C0
0618F8
0618C0
0618C0
063BC0
FFFCC0
0000C0
0000C0
000000
3FFF80
0000C0
0000C0
0000C0
0000C0
0000C0
0000C0
ENDCHAR
STARTCHAR AD00
ENCODING 12412
SWIDTH 2400 0
DWIDTH 24 0
BBX 21 20 1 -2
BITMAP
0000C0
7FF8C0
0018C0
0018C0
0018C0
0018C0
0618C0
0618F8
0618C0
0618C0
0639C0
FFFEC0
0000C0
0000C0
3000C0
3000C0
300000
300000
300000
1FFFC0
ENDCHAR
STARTCHAR AD04
ENCODING 12413
SWIDTH 2400 0
DWIDTH 24 0
BBX 21 20 1 -2
BITMAP
0000C0
7FF0C0
0010C0
0010C0
0410C0
0410C0
0410F8
0410C0
0430C0
FFFFC0
0000C0
000000
000000
3FFFC0
0000C0
0000C0
1FFFC0
100000
100000
1FFFC0
ENDCHAR
STARTCHAR AD06
ENCODING 12414
SWIDTH 2400 0
DWIDTH 24 0
BBX 21 20 1 -2
BITMAP
0000C0
7FF8C0
0018C0
0018C0
0618C0
0618F8
0618C0
0618C0
0633C0
FFFCC0
0000C0
000000
7F9FC0
0098C0
0098C0
0098C0
3F98C0
6018C0
6018C0
7FDFC0
ENDCHAR
STARTCHAR AD0C
ENCODING 12577
SWIDTH 2400 0
DWIDTH 24 0
BBX 21 20 1 -2
BITMAP
0000C0
7FF8C0
0018C0
0018C0
0018C0
0618F8
0618C0
0618C0
0618C0
0633C0
FFFCC0
0000C0
000000
0FFFE0
180060
180060
180060
180060
180060
0FFFC0
ENDCHAR
STARTCHAR AD0D
ENCODING 12578
SWIDTH 2400 0
DWIDTH 24 0
BBX 21 21 1 -3
BITMAP
0000C0
7FF8C0
0018C0
0018C0
0018C0
0618F8
0618C0
0618C0
0638C0
FFFFC0
0000C0
000000
000000
3000C0
3000C0
3FFFC0
3000C0
3000C0
3000C0
3000C0
1FFF80
ENDCHAR
STARTCHAR AD0F
ENCODING 12579
SWIDTH 2400 0
DWIDTH 24 0
BBX 21 21 1 -3
BITMAP
0000C0
7FF8C0
0018C0
0018C0
0618C0
0618F8
0618C0
0618C0
0618C0
0638C0
07FFC0
F800C0
0000C0
0000C0
003000
003800
006800
00CC00
030300
3E01E0
300060
ENDCHAR
STARTCHAR AD11
ENCODING 12580
SWIDTH 2400 0
DWIDTH 24 0
BBX 21 21 1 -3
BITMAP
0000C0
7FF8C0
0018C0
0018C0
0018C0
0618F8
0618C0
0618C0
0618C0
0633C0
FFFCC0
0000C0
0000C0
03FE00
0E0380
3800C0
300060
300060
1800C0
0E0380
03FE00
ENDCHAR
STARTCHAR AD18
ENCODING 12581
SWIDTH 2400 0
DWIDTH 24 0
BBX 18 20 3 -3
BITMAP
FF8CC0
018CC0
018CC0
018CC0
018CC0
018CC0
018CC0
198CC0
198FC0
198CC0
198CC0
198CC0
180CC0
180CC0
181CC0
FFECC0
000CC0
000CC0
000CC0
000CC0
ENDCHAR
STARTCHAR AD1C
ENCODING 12582
SWIDTH 2400 0
DWIDTH 24 0
BBX 20 20 2 -2
BITMAP
000C60
3FCC60
00CC60
00CC60
00CC60
00CC60
18CFE0
18CC60
18CC60
18CC60
181C60
FFEC60
000C60
000C60
180C60
180C00
180000
180000
180000
0FFFF0
ENDCHAR
STARTCHAR AD20
ENCODING 12583
SWIDTH 2400 0
DWIDTH 24 0
BBX 18 20 3 -2
BITMAP
000880
7F88C0
0188C0
0188C0
0188C0
0188C0
118FC0
1108C0
1008C0
1018C0
FFE8C0
0008C0
000000
1FFF80
0000C0
0000C0
1FFFC0
100000
100000
1FFFC0
ENDCHAR
ENDFONT
